<svg xmlns="http://www.w3.org/2000/svg" width="375" viewBox="0 0 375 375" height="375" version="1.0"><defs><clipPath id="a"><path d="M 30 0 L 363.125 0 L 363.125 351.71875 L 30 351.71875 Z M 30 0"/></clipPath><clipPath id="b"><path d="M 105.121094 82.007812 L 375 82.007812 L 375 208.597656 L 105.121094 208.597656 Z M 105.121094 82.007812"/></clipPath><clipPath id="c"><path d="M 0.0078125 31.050781 L 333.664062 31.050781 L 333.664062 351.71875 L 0.0078125 351.71875 Z M 0.0078125 31.050781"/></clipPath></defs><path fill="#F6836B" d="M 363.128906 123.292969 C 363.128906 209.246094 295.125 335.617188 209.160156 335.617188 C 123.195312 335.617188 26.1875 226.691406 26.1875 140.738281 C 26.1875 54.789062 124.882812 -0.00390625 210.847656 -0.00390625 C 296.8125 -0.00390625 363.128906 37.34375 363.128906 123.292969"/><g clip-path="url(#a)"><path fill="#F9D291" d="M 173.167969 201.554688 L 162.621094 201.554688 L 162.621094 202.351562 L 173.167969 202.351562 Z M 173.167969 198.933594 L 162.621094 198.933594 L 162.621094 199.726562 L 173.167969 199.726562 Z M 173.167969 196.308594 L 162.621094 196.308594 L 162.621094 197.105469 L 173.167969 197.105469 Z M 281.09375 270.953125 C 279.523438 267.476562 277.898438 263.886719 276.105469 260.453125 C 271.292969 251.222656 265.125 242.800781 257.78125 235.414062 C 256.570312 234.199219 255.308594 232.992188 254.085938 231.828125 C 250.910156 228.785156 247.625 225.644531 244.980469 222.070312 C 240.796875 216.414062 238.976562 210.375 239.851562 205.058594 C 240.808594 199.257812 244.871094 194.660156 248.109375 191.824219 C 250.898438 189.382812 253.972656 187.410156 257.171875 185.964844 C 257.0625 185.722656 256.957031 185.480469 256.851562 185.238281 C 253.578125 186.710938 250.433594 188.730469 247.582031 191.226562 C 244.25 194.144531 240.0625 198.894531 239.066406 204.929688 C 238.15625 210.457031 240.027344 216.710938 244.339844 222.542969 C 247.023438 226.171875 250.335938 229.339844 253.535156 232.402344 C 254.753906 233.566406 256.011719 234.769531 257.214844 235.980469 C 264.503906 243.304688 270.625 251.664062 275.402344 260.820312 C 277.179688 264.234375 278.800781 267.816406 280.367188 271.28125 C 283.398438 277.976562 286.53125 284.90625 290.960938 290.925781 C 291.640625 291.855469 292.394531 292.785156 293.210938 293.710938 C 293.394531 293.519531 293.578125 293.324219 293.757812 293.128906 C 292.980469 292.242188 292.257812 291.347656 291.605469 290.457031 C 287.222656 284.5 284.109375 277.613281 281.09375 270.953125 Z M 297.839844 204.671875 C 296.628906 202.949219 295.507812 201.101562 294.421875 199.316406 C 292.097656 195.492188 289.695312 191.535156 286.28125 188.519531 C 281.207031 184.03125 273.820312 181.804688 266.519531 182.566406 C 263.523438 182.878906 260.503906 183.683594 257.582031 184.921875 C 257.6875 185.164062 257.796875 185.40625 257.902344 185.648438 C 260.75 184.441406 263.691406 183.660156 266.605469 183.355469 C 273.683594 182.621094 280.84375 184.773438 285.753906 189.113281 C 289.074219 192.050781 291.449219 195.957031 293.742188 199.726562 C 294.832031 201.527344 295.960938 203.386719 297.1875 205.128906 C 302.601562 212.847656 310.511719 219.320312 320.695312 224.382812 C 325.671875 226.855469 330.835938 228.816406 336.007812 230.480469 C 336.125 230.242188 336.242188 230 336.355469 229.753906 C 331.1875 228.09375 326.019531 226.136719 321.046875 223.667969 C 310.984375 218.667969 303.175781 212.277344 297.839844 204.671875 Z M 175.042969 177.050781 C 175.535156 175.703125 175.855469 174.210938 175.824219 172.625 L 174.753906 171.304688 C 174.753906 171.300781 174.761719 171.300781 174.761719 171.300781 L 170.859375 166.476562 C 170.859375 166.476562 166.429688 166.945312 165.238281 167.542969 C 164.046875 168.136719 158.363281 171.34375 158.363281 171.34375 L 154.625 179.417969 C 154.15625 180.429688 154.582031 181.632812 155.589844 182.121094 C 156.09375 182.371094 156.65625 182.382812 157.160156 182.207031 C 157.171875 182.207031 157.183594 182.199219 157.195312 182.195312 C 157.304688 182.152344 157.40625 182.105469 157.511719 182.046875 C 157.53125 182.035156 157.554688 182.023438 157.574219 182.011719 C 157.664062 181.949219 157.753906 181.886719 157.832031 181.816406 C 157.855469 181.796875 157.878906 181.777344 157.90625 181.753906 C 158 181.664062 158.09375 181.5625 158.167969 181.449219 C 158.167969 181.445312 158.171875 181.445312 158.171875 181.445312 L 161.363281 176.828125 L 173.503906 176.828125 C 174.039062 176.828125 174.554688 176.90625 175.042969 177.050781 Z M 165.96875 184.871094 L 166.019531 184.804688 C 166.339844 184.34375 166.859375 184.050781 167.421875 184.015625 L 169.792969 183.871094 C 170.261719 183.84375 170.695312 183.644531 171.019531 183.308594 C 171.246094 183.074219 171.539062 182.753906 171.863281 182.371094 L 156.886719 182.371094 L 156.707031 182.761719 L 156.398438 184.984375 C 156.238281 186.101562 157.105469 187.09375 158.234375 187.09375 L 159.171875 187.09375 C 159.742188 187.09375 160.285156 186.832031 160.636719 186.378906 C 160.988281 185.929688 161.527344 185.664062 162.105469 185.664062 L 164.449219 185.664062 C 165.054688 185.664062 165.621094 185.367188 165.96875 184.871094 Z M 292.984375 153.066406 C 292.707031 153.175781 292.421875 153.285156 292.136719 153.386719 C 292.507812 153.707031 292.878906 154.03125 293.246094 154.355469 C 293.421875 154.273438 293.628906 154.320312 293.742188 154.484375 C 293.816406 154.589844 293.820312 154.714844 293.785156 154.832031 C 297.003906 157.691406 300.117188 160.660156 303.195312 163.597656 L 346.8125 205.222656 C 346.910156 204.953125 347.011719 204.683594 347.113281 204.410156 L 303.746094 163.023438 C 300.238281 159.675781 296.6875 156.289062 292.984375 153.066406 Z M 292.304688 152.480469 C 288.386719 149.109375 284.292969 145.933594 279.902344 143.199219 C 279.757812 143.421875 279.617188 143.640625 279.46875 143.867188 C 283.695312 146.5 287.648438 149.542969 291.433594 152.78125 C 291.726562 152.683594 292.019531 152.585938 292.304688 152.480469 Z M 192.433594 231.714844 L 150.382812 231.714844 C 160.039062 240.96875 168.199219 251.59375 174.65625 263.328125 C 175.773438 265.355469 176.863281 267.460938 177.921875 269.503906 C 181.898438 277.175781 186.015625 285.097656 192.433594 290.824219 Z M 192.433594 291.882812 C 185.601562 286.019531 181.335938 277.816406 177.214844 269.867188 C 176.160156 267.835938 175.070312 265.734375 173.960938 263.710938 C 167.402344 251.800781 159.0625 241.054688 149.195312 231.714844 L 143.359375 231.714844 L 143.359375 261.792969 C 147.429688 266.539062 150.640625 272.050781 152.679688 277.910156 C 153.308594 279.710938 153.847656 281.59375 154.367188 283.417969 C 155.804688 288.425781 157.292969 293.605469 160.703125 297.5 C 164.058594 301.339844 168.667969 303.386719 173.550781 305.554688 C 176.898438 307.039062 180.359375 308.574219 183.339844 310.734375 C 187.453125 313.71875 190.632812 317.976562 192.433594 322.738281 Z M 182.554688 218.128906 L 185.886719 218.128906 L 186.21875 215.09375 L 186.863281 212.8125 L 187.121094 211.910156 L 184.09375 214.9375 Z M 129.769531 283.210938 C 129.664062 282.96875 129.550781 282.730469 129.445312 282.488281 C 128.835938 287.925781 128.960938 293.421875 129.769531 298.8125 Z M 267.113281 314.085938 C 267.4375 314.5625 267.78125 315.023438 268.117188 315.492188 C 267.898438 315.640625 267.679688 315.792969 267.460938 315.941406 C 267.125 315.476562 266.78125 315.015625 266.457031 314.535156 C 260.480469 305.8125 256.253906 295.910156 252.167969 286.332031 C 250.941406 283.464844 249.675781 280.5 248.382812 277.613281 C 243.226562 266.089844 236.433594 253.136719 225.207031 244.40625 C 221.847656 241.792969 218.097656 239.589844 214.472656 237.453125 C 211.652344 235.792969 208.761719 234.070312 206.019531 232.160156 L 206.019531 300.0625 C 208.246094 301.589844 210.375 303.269531 212.179688 305.296875 C 217.496094 311.269531 219.742188 320.074219 218.1875 328.851562 C 217.804688 331.019531 217.195312 333.175781 216.382812 335.3125 C 216.089844 335.335938 215.796875 335.359375 215.5 335.382812 C 216.367188 333.179688 217.007812 330.949219 217.40625 328.714844 C 218.917969 320.175781 216.742188 311.617188 211.585938 305.828125 C 209.953125 303.996094 208.039062 302.445312 206.019531 301.03125 L 206.019531 351.71875 L 192.433594 351.71875 L 192.433594 325.300781 C 190.921875 319.773438 187.507812 314.738281 182.875 311.382812 C 179.957031 309.265625 176.539062 307.75 173.226562 306.28125 C 168.480469 304.175781 163.574219 301.996094 160.101562 298.027344 C 156.574219 293.992188 155.066406 288.726562 153.601562 283.636719 C 153.082031 281.828125 152.550781 279.953125 151.925781 278.171875 C 150.027344 272.691406 147.082031 267.523438 143.359375 263.015625 L 143.359375 301.078125 C 145.621094 303.210938 148.054688 305.164062 150.640625 306.886719 C 153.355469 308.6875 156.269531 310.273438 159.085938 311.808594 C 161.175781 312.945312 163.335938 314.121094 165.40625 315.382812 C 171.433594 319.046875 175.410156 322.734375 177.933594 326.988281 C 178.832031 328.5 179.503906 330.078125 179.96875 331.679688 C 179.671875 331.601562 179.371094 331.515625 179.074219 331.4375 C 178.632812 330.0625 178.023438 328.699219 177.25 327.394531 C 174.796875 323.257812 170.902344 319.65625 164.996094 316.0625 C 162.941406 314.8125 160.789062 313.640625 158.707031 312.507812 C 155.875 310.960938 152.941406 309.367188 150.199219 307.546875 C 147.785156 305.941406 145.496094 304.136719 143.359375 302.171875 L 143.359375 351.71875 L 129.769531 351.71875 L 129.769531 303.191406 C 128.164062 295.886719 127.824219 288.308594 128.847656 280.867188 L 129.058594 279.347656 L 129.613281 280.777344 C 129.664062 280.902344 129.71875 281.03125 129.769531 281.160156 L 129.769531 252.125 C 126.625 250.839844 122.847656 250.203125 119.457031 252.082031 C 114.570312 254.796875 113.28125 261.207031 112.667969 267.121094 C 111.753906 275.945312 111.03125 285.386719 111.949219 294.632812 C 111.976562 294.90625 112.019531 295.171875 112.050781 295.445312 C 111.753906 295.203125 111.457031 294.964844 111.160156 294.71875 C 111.160156 294.714844 111.15625 294.710938 111.15625 294.710938 C 110.234375 285.394531 110.957031 275.90625 111.878906 267.039062 C 112.511719 260.921875 113.863281 254.277344 119.070312 251.390625 C 122.613281 249.421875 126.507812 250.003906 129.769531 251.273438 L 129.769531 231.714844 L 111.898438 231.714844 C 101.804688 240.585938 94.566406 251.800781 91.25 263.9375 C 90.289062 267.457031 89.695312 271.042969 89.417969 274.625 C 89.175781 274.371094 88.929688 274.125 88.6875 273.867188 C 88.984375 270.464844 89.570312 267.070312 90.484375 263.726562 C 93.769531 251.714844 100.839844 240.589844 110.691406 231.714844 L 57.390625 231.714844 C 57.257812 232.28125 57.117188 232.84375 56.984375 233.410156 C 56.785156 233.09375 56.578125 232.785156 56.382812 232.46875 C 56.441406 232.21875 56.507812 231.964844 56.566406 231.714844 L 30.195312 231.714844 L 30.195312 218.128906 L 59.992188 218.128906 C 60.554688 215.992188 61.113281 213.871094 61.671875 211.765625 C 66.4375 193.851562 71.359375 175.328125 72.578125 156.582031 C 74.679688 124.285156 65.589844 92.882812 54.488281 66.613281 C 54.679688 66.386719 54.875 66.164062 55.070312 65.9375 C 66.28125 92.367188 75.492188 124.035156 73.375 156.636719 C 72.148438 175.457031 67.214844 194.019531 62.445312 211.96875 C 61.902344 214.007812 61.359375 216.066406 60.816406 218.128906 L 178.679688 218.128906 C 178.710938 217.980469 178.742188 217.832031 178.777344 217.683594 C 178.785156 217.644531 178.792969 217.609375 178.800781 217.570312 C 178.832031 217.441406 178.859375 217.316406 178.886719 217.183594 C 178.90625 217.082031 178.929688 216.980469 178.953125 216.875 C 178.976562 216.777344 179 216.675781 179.019531 216.574219 C 179.0625 216.371094 179.109375 216.171875 179.152344 215.96875 C 179.160156 215.941406 179.167969 215.910156 179.171875 215.882812 C 179.214844 215.695312 179.257812 215.511719 179.296875 215.328125 C 179.308594 215.28125 179.320312 215.234375 179.332031 215.1875 C 179.367188 215.015625 179.410156 214.847656 179.445312 214.679688 C 179.457031 214.636719 179.464844 214.597656 179.472656 214.554688 C 179.519531 214.355469 179.5625 214.160156 179.609375 213.96875 C 179.617188 213.945312 179.621094 213.925781 179.625 213.902344 C 179.664062 213.738281 179.699219 213.582031 179.738281 213.429688 C 179.75 213.382812 179.761719 213.335938 179.773438 213.289062 C 179.804688 213.15625 179.835938 213.03125 179.867188 212.910156 C 179.875 212.871094 179.882812 212.832031 179.894531 212.800781 C 179.929688 212.648438 179.96875 212.5 180.003906 212.367188 C 180.007812 212.359375 180.007812 212.351562 180.011719 212.339844 C 180.042969 212.222656 180.070312 212.113281 180.097656 212.015625 C 180.109375 211.984375 180.117188 211.960938 180.125 211.933594 C 180.144531 211.855469 180.167969 211.789062 180.1875 211.730469 C 180.191406 211.707031 180.199219 211.683594 180.207031 211.660156 C 180.230469 211.589844 180.253906 211.527344 180.269531 211.488281 C 180.273438 211.488281 180.273438 211.484375 180.273438 211.484375 C 180.300781 211.417969 180.351562 211.335938 180.414062 211.238281 C 180.433594 211.203125 180.464844 211.167969 180.488281 211.128906 C 180.539062 211.058594 180.589844 210.984375 180.652344 210.898438 C 180.6875 210.847656 180.726562 210.800781 180.765625 210.746094 C 180.832031 210.664062 180.902344 210.574219 180.976562 210.476562 C 181.019531 210.421875 181.0625 210.367188 181.109375 210.308594 C 181.199219 210.203125 181.289062 210.089844 181.382812 209.976562 C 181.425781 209.921875 181.472656 209.871094 181.515625 209.820312 C 181.636719 209.675781 181.761719 209.519531 181.898438 209.367188 C 181.917969 209.339844 181.941406 209.316406 181.960938 209.292969 C 182.464844 208.707031 183.03125 208.078125 183.589844 207.464844 C 183.59375 207.460938 183.597656 207.457031 183.605469 207.449219 C 183.617188 207.433594 183.632812 207.421875 183.644531 207.40625 C 184.136719 206.871094 184.617188 206.359375 185.046875 205.910156 C 185.09375 205.863281 185.140625 205.8125 185.1875 205.769531 C 185.257812 205.695312 185.320312 205.628906 185.386719 205.5625 C 185.449219 205.496094 185.507812 205.4375 185.566406 205.375 C 185.621094 205.324219 185.671875 205.273438 185.71875 205.226562 C 185.730469 205.214844 185.742188 205.203125 185.753906 205.1875 C 184.503906 201.5625 183.628906 197.816406 183.203125 194.027344 C 182.566406 188.40625 183.359375 184.292969 185.628906 181.445312 C 187.898438 178.601562 191.382812 177.304688 194.757812 176.046875 C 195.886719 175.628906 197.058594 175.195312 198.152344 174.710938 C 206.46875 171.03125 212.292969 163.566406 217.925781 156.351562 C 223.179688 149.617188 228.613281 142.660156 236.121094 138.585938 C 246.441406 132.984375 260.378906 133.371094 273.40625 139.621094 C 275.410156 140.582031 277.34375 141.648438 279.222656 142.789062 C 279.085938 143.007812 278.941406 143.230469 278.792969 143.460938 C 276.9375 142.335938 275.035156 141.285156 273.066406 140.339844 C 260.265625 134.199219 246.597656 133.804688 236.5 139.285156 C 229.140625 143.277344 223.757812 150.171875 218.554688 156.839844 C 212.859375 164.132812 206.972656 171.679688 198.476562 175.4375 C 197.359375 175.933594 196.179688 176.371094 195.035156 176.796875 C 191.765625 178.011719 188.382812 179.273438 186.253906 181.945312 C 184.121094 184.617188 183.382812 188.539062 183.992188 193.9375 C 184.40625 197.554688 185.21875 201.132812 186.390625 204.601562 C 187.992188 203.476562 196.253906 202.566406 196.253906 202.566406 L 199.203125 197.855469 L 200.351562 196.019531 L 213.984375 203.152344 C 213.984375 203.152344 212.515625 205.808594 210.859375 208.210938 C 210.855469 208.21875 210.855469 208.222656 210.851562 208.226562 C 210.679688 208.476562 210.507812 208.71875 210.335938 208.957031 C 210.328125 208.972656 210.320312 208.980469 210.3125 208.992188 C 210.144531 209.222656 209.972656 209.449219 209.808594 209.667969 C 209.796875 209.683594 209.785156 209.699219 209.769531 209.714844 C 209.605469 209.925781 209.441406 210.132812 209.28125 210.324219 C 209.265625 210.339844 209.253906 210.355469 209.242188 210.371094 C 209.082031 210.558594 208.921875 210.742188 208.765625 210.90625 C 208.753906 210.917969 208.742188 210.929688 208.730469 210.941406 C 208.574219 211.105469 208.421875 211.257812 208.273438 211.386719 C 208.265625 211.394531 208.257812 211.398438 208.246094 211.410156 C 208.097656 211.539062 207.953125 211.65625 207.816406 211.746094 C 207.8125 211.75 207.804688 211.75 207.800781 211.757812 C 207.664062 211.847656 207.523438 211.917969 207.402344 211.960938 C 206.605469 212.242188 205.457031 212.332031 204.332031 212.339844 C 202.460938 212.351562 200.65625 212.121094 200.65625 212.121094 L 198.253906 217.347656 C 198.230469 217.40625 198.1875 217.453125 198.15625 217.503906 C 198.117188 217.5625 198.089844 217.625 198.046875 217.671875 C 198.035156 217.683594 198.019531 217.695312 198.007812 217.707031 C 197.933594 217.785156 197.851562 217.859375 197.761719 217.917969 C 197.75 217.925781 197.734375 217.929688 197.726562 217.933594 C 197.628906 217.992188 197.527344 218.042969 197.417969 218.074219 C 197.398438 218.082031 197.371094 218.082031 197.351562 218.082031 C 197.25 218.109375 197.148438 218.128906 197.039062 218.128906 L 206.019531 218.128906 L 206.019531 231.183594 C 208.867188 233.207031 211.910156 235.019531 214.878906 236.769531 C 218.523438 238.914062 222.292969 241.136719 225.695312 243.777344 C 237.0625 252.613281 243.910156 265.675781 249.109375 277.285156 C 250.40625 280.179688 251.671875 283.148438 252.898438 286.023438 C 256.972656 295.5625 261.179688 305.425781 267.113281 314.085938 Z M 232.449219 330.824219 L 244.605469 330.824219 L 244.605469 318.914062 L 231.179688 322.261719 Z M 317.304688 330.824219 L 329.460938 330.824219 L 329.460938 318.914062 L 316.027344 322.261719 Z M 328.804688 69.1875 C 325.308594 58.449219 324.746094 46.769531 327 35.6875 C 326.773438 35.484375 326.546875 35.285156 326.316406 35.085938 C 323.925781 46.433594 324.460938 58.421875 328.046875 69.433594 Z M 97.714844 118.0625 C 97.34375 127.394531 96.878906 139.003906 104.535156 145.574219 C 107.59375 148.199219 111.699219 149.570312 116.007812 149.570312 C 118.570312 149.570312 121.199219 149.085938 123.726562 148.097656 C 130.839844 145.3125 135.703125 139.394531 138.527344 134.917969 C 140.804688 131.304688 142.628906 127.355469 144.390625 123.535156 C 146.640625 118.65625 148.960938 113.617188 152.246094 109.300781 C 156.117188 104.210938 161.277344 100.179688 166.265625 96.277344 C 169.183594 93.996094 172.203125 91.636719 174.949219 89.082031 C 178.3125 85.949219 181.40625 82.378906 184.210938 78.421875 C 185.464844 79.917969 187.09375 80.910156 189.214844 81.203125 C 190.957031 81.445312 192.667969 81.332031 194.3125 80.933594 C 194.988281 81.085938 196.542969 81.484375 198.183594 82.269531 C 199.957031 83.121094 205.980469 99.039062 206.136719 98.5625 C 207.816406 93.398438 218.15625 80.644531 215.273438 75.980469 C 212.796875 71.972656 210.203125 67.25 209.777344 63.101562 C 211.511719 62.429688 212.8125 61.101562 213.207031 59.535156 C 213.609375 57.945312 213.566406 56.175781 211.925781 55.570312 C 214.230469 49.726562 215.570312 44.597656 209.398438 43.324219 C 206.027344 42.625 203.417969 42.234375 199.554688 41.625 C 202.441406 27.972656 203.230469 13.917969 203.710938 0.128906 C 203.445312 0.140625 203.179688 0.144531 202.914062 0.152344 C 202.433594 13.90625 201.644531 27.914062 198.769531 41.496094 C 197.566406 41.308594 196.242188 41.097656 194.738281 40.847656 C 187.042969 39.574219 180.027344 45.492188 180.023438 53.292969 C 180.023438 62.4375 180.027344 72.558594 183.703125 77.765625 C 180.890625 81.753906 177.789062 85.351562 174.40625 88.496094 C 171.683594 91.03125 168.679688 93.378906 165.773438 95.648438 C 160.746094 99.582031 155.542969 103.648438 151.613281 108.816406 C 148.277344 113.203125 145.933594 118.289062 143.664062 123.203125 C 141.917969 127 140.105469 130.925781 137.851562 134.496094 C 135.09375 138.867188 130.347656 144.648438 123.433594 147.355469 C 116.925781 149.90625 109.714844 148.96875 105.054688 144.96875 C 97.6875 138.648438 98.144531 127.25 98.511719 118.09375 C 99.339844 97.355469 97.609375 80.832031 93.070312 66.09375 C 90.296875 57.105469 86.355469 48.816406 81.476562 41.578125 C 81.265625 41.738281 81.050781 41.894531 80.835938 42.054688 C 85.664062 49.21875 89.5625 57.425781 92.304688 66.328125 C 96.824219 80.980469 98.539062 97.417969 97.714844 118.0625 Z M 361.347656 99.960938 C 361.300781 99.679688 361.25 99.40625 361.203125 99.132812 C 356.261719 98.132812 352.214844 93.78125 350.859375 92.160156 C 344.136719 84.132812 340.417969 73.527344 340.652344 63.0625 C 340.734375 59.484375 341.285156 55.910156 342.246094 52.445312 C 342.046875 52.171875 341.855469 51.890625 341.652344 51.621094 C 340.5625 55.335938 339.941406 59.1875 339.855469 63.042969 C 339.617188 73.699219 343.40625 84.496094 350.246094 92.671875 C 351.683594 94.386719 356.011719 99.019531 361.347656 99.960938 Z M 347.117188 116.214844 C 335.761719 108.179688 326.648438 96.648438 321.449219 83.746094 C 319.796875 79.636719 318.496094 75.308594 317.230469 71.121094 C 315.714844 66.0625 314.136719 60.835938 311.929688 55.933594 C 310.652344 53.101562 309.144531 50.332031 307.6875 47.65625 C 305.8125 44.214844 303.871094 40.65625 302.429688 36.964844 C 300.019531 30.785156 298.980469 24.125 299.308594 17.527344 C 299.046875 17.402344 298.785156 17.28125 298.523438 17.15625 C 298.140625 23.972656 299.195312 30.867188 301.6875 37.25 C 303.152344 40.992188 305.101562 44.574219 306.988281 48.039062 C 308.4375 50.703125 309.941406 53.457031 311.203125 56.261719 C 313.390625 61.117188 314.957031 66.320312 316.46875 71.351562 C 317.734375 75.550781 319.046875 79.898438 320.710938 84.042969 C 325.964844 97.085938 335.179688 108.742188 346.65625 116.867188 C 351.714844 120.441406 357.273438 123.378906 363.109375 125.59375 C 363.117188 125.308594 363.117188 125.027344 363.121094 124.746094 C 357.445312 122.5625 352.042969 119.699219 347.117188 116.214844 Z M 330.644531 152.074219 C 328.957031 150.816406 327.265625 149.5625 325.59375 148.300781 C 311.488281 137.660156 296.082031 124.382812 288.734375 106.578125 C 287.417969 103.390625 286.324219 99.988281 285.269531 96.695312 C 282.710938 88.726562 280.066406 80.484375 274.042969 74.597656 C 270.488281 71.128906 266.027344 68.777344 261.71875 66.5 C 259.15625 65.144531 256.503906 63.75 254.078125 62.132812 C 243.605469 55.15625 235.898438 43.179688 232.386719 28.402344 C 230.203125 19.21875 229.738281 9.832031 229.988281 0.648438 C 229.726562 0.628906 229.457031 0.613281 229.195312 0.597656 C 228.9375 9.847656 229.40625 19.3125 231.613281 28.585938 C 235.171875 43.558594 242.996094 55.710938 253.636719 62.796875 C 256.097656 64.433594 258.765625 65.839844 261.34375 67.203125 C 265.605469 69.449219 270.011719 71.777344 273.480469 75.167969 C 279.367188 80.917969 281.984375 89.0625 284.507812 96.9375 C 285.574219 100.246094 286.667969 103.664062 287.996094 106.878906 C 295.421875 124.867188 310.925781 138.230469 325.113281 148.933594 C 326.789062 150.199219 328.480469 151.453125 330.171875 152.710938 C 339.324219 159.503906 348.769531 166.527344 356.152344 175.339844 C 356.234375 175.019531 356.308594 174.703125 356.390625 174.382812 C 349.007812 165.707031 339.679688 158.78125 330.644531 152.074219 Z M 125.554688 29.425781 C 128.808594 34.246094 133.570312 38.089844 138.964844 40.25 C 140.640625 40.925781 142.742188 41.527344 144.855469 41.527344 C 146.394531 41.527344 147.9375 41.210938 149.332031 40.367188 C 153.179688 38.03125 153.980469 32.898438 154.246094 29.242188 C 154.773438 22.027344 154.402344 14.84375 153.15625 7.785156 C 152.898438 7.851562 152.640625 7.925781 152.382812 8 C 153.609375 14.96875 153.96875 22.054688 153.453125 29.183594 C 153.199219 32.664062 152.453125 37.542969 148.917969 39.683594 C 145.882812 41.527344 141.988281 40.609375 139.261719 39.511719 C 134.011719 37.40625 129.382812 33.667969 126.21875 28.984375 C 125.28125 27.59375 124.445312 26.085938 123.632812 24.632812 C 122.625 22.820312 121.59375 20.96875 120.339844 19.28125 C 120.085938 19.390625 119.839844 19.5 119.585938 19.613281 C 120.863281 21.296875 121.914062 23.175781 122.9375 25.015625 C 123.753906 26.488281 124.601562 28.011719 125.554688 29.425781 Z M 346.109375 139.707031 C 342.578125 137.707031 338.820312 136.027344 335.183594 134.402344 C 332.40625 133.167969 329.53125 131.886719 326.789062 130.46875 C 319.148438 126.53125 313.945312 122.09375 310.882812 116.917969 C 306.679688 109.8125 306.398438 101.246094 306.125 92.960938 C 305.980469 88.667969 305.835938 84.234375 305.15625 79.992188 C 303.363281 68.761719 297.417969 58.035156 288.851562 50.550781 C 286.15625 48.195312 283.117188 46.042969 280.175781 43.964844 C 273.355469 39.132812 266.300781 34.140625 263.398438 26.421875 C 260.800781 19.507812 262.246094 12.171875 265.660156 5.878906 C 265.398438 5.816406 265.128906 5.75 264.867188 5.691406 C 261.425781 12.128906 259.992188 19.621094 262.652344 26.703125 C 265.640625 34.644531 272.792969 39.710938 279.714844 44.613281 C 282.640625 46.683594 285.664062 48.824219 288.328125 51.152344 C 296.753906 58.511719 302.601562 69.070312 304.371094 80.117188 C 305.042969 84.308594 305.1875 88.71875 305.328125 92.984375 C 305.605469 101.371094 305.890625 110.042969 310.195312 117.320312 C 313.335938 122.632812 318.648438 127.167969 326.425781 131.179688 C 329.1875 132.601562 332.070312 133.886719 334.859375 135.132812 C 338.476562 136.75 342.21875 138.417969 345.714844 140.402344 C 351.335938 143.589844 356.429688 147.644531 360.808594 152.375 C 360.859375 152.042969 360.90625 151.707031 360.953125 151.371094 C 356.625 146.78125 351.621094 142.832031 346.109375 139.707031 Z M 117.171875 75.761719 C 117.792969 78.660156 118.433594 81.65625 119.726562 84.386719 C 121.375 87.886719 123.902344 90.371094 126.832031 91.382812 C 127.871094 91.742188 128.925781 91.90625 129.976562 91.90625 C 134.726562 91.90625 139.351562 88.535156 142.039062 84.789062 C 143.925781 82.160156 145.3125 79.183594 146.648438 76.300781 C 147.703125 74.027344 148.796875 71.675781 150.128906 69.523438 C 151.953125 66.574219 154.285156 63.902344 156.539062 61.316406 C 157.757812 59.917969 159.011719 58.476562 160.183594 57 C 170.953125 43.421875 175.976562 24.644531 173.964844 5.472656 C 173.890625 4.738281 173.800781 4 173.707031 3.261719 C 173.441406 3.304688 173.179688 3.355469 172.921875 3.402344 C 173.011719 4.121094 173.101562 4.839844 173.175781 5.558594 C 175.164062 24.523438 170.203125 43.089844 159.558594 56.507812 C 158.398438 57.96875 157.148438 59.402344 155.941406 60.789062 C 153.664062 63.402344 151.308594 66.101562 149.449219 69.109375 C 148.09375 71.300781 146.992188 73.671875 145.921875 75.964844 C 144.601562 78.8125 143.234375 81.753906 141.390625 84.324219 C 138.277344 88.660156 132.472656 92.484375 127.09375 90.628906 C 123.414062 89.359375 121.351562 85.957031 120.445312 84.046875 C 119.199219 81.394531 118.5625 78.449219 117.949219 75.59375 L 117.738281 74.613281 C 114.3125 58.84375 108.476562 43.378906 100.632812 29.148438 C 100.402344 29.277344 100.171875 29.410156 99.941406 29.539062 C 107.742188 43.703125 113.550781 59.09375 116.960938 74.78125 Z M 37.636719 140.8125 C 39.789062 146.609375 42.019531 152.601562 42 158.785156 C 41.980469 164.785156 39.84375 170.605469 37.777344 176.230469 C 36.507812 179.691406 35.21875 183.234375 34.386719 186.863281 C 34.550781 187.347656 34.726562 187.828125 34.894531 188.3125 C 35.679688 184.285156 37.117188 180.347656 38.527344 176.503906 C 40.613281 170.8125 42.777344 164.929688 42.796875 158.789062 C 42.8125 152.457031 40.5625 146.398438 38.382812 140.535156 C 37.761719 138.859375 37.117188 137.125 36.539062 135.417969 C 33.34375 125.96875 31.800781 115.910156 31.910156 105.886719 C 31.636719 106.695312 31.382812 107.507812 31.128906 108.324219 C 31.269531 117.625 32.820312 126.910156 35.785156 135.671875 C 36.367188 137.390625 37.011719 139.128906 37.636719 140.8125 Z M 285.390625 221.453125 C 287.359375 221.324219 288.898438 223.121094 290.296875 224.972656 C 296.308594 232.925781 303.101562 238.742188 310.472656 242.257812 C 316.109375 244.949219 322.140625 246.21875 327.890625 246.023438 C 328.042969 245.753906 328.195312 245.484375 328.347656 245.210938 C 322.582031 245.492188 316.496094 244.25 310.816406 241.539062 C 303.558594 238.078125 296.871094 232.339844 290.933594 224.488281 C 289.800781 222.996094 287.917969 220.492188 285.339844 220.660156 C 282.929688 220.816406 281.402344 223.269531 281.371094 225.449219 C 281.335938 227.785156 282.585938 229.859375 283.679688 231.40625 C 286.050781 234.765625 289.097656 237.6875 292.042969 240.515625 C 296.246094 244.554688 300.59375 248.726562 302.835938 254.109375 C 304.160156 257.28125 304.695312 260.777344 305.214844 264.160156 C 305.394531 265.335938 305.578125 266.507812 305.789062 267.667969 C 306.21875 270.050781 306.921875 273.085938 308.355469 275.878906 C 308.535156 275.644531 308.714844 275.40625 308.894531 275.171875 C 307.625 272.558594 306.976562 269.75 306.570312 267.527344 C 306.363281 266.371094 306.183594 265.207031 306.003906 264.039062 C 305.476562 260.609375 304.933594 257.066406 303.570312 253.800781 C 301.265625 248.265625 296.855469 244.035156 292.59375 239.941406 C 289.675781 237.140625 286.660156 234.242188 284.332031 230.945312 C 283.308594 229.5 282.136719 227.566406 282.167969 225.464844 C 282.191406 223.625 283.496094 221.578125 285.390625 221.453125 Z M 138.003906 20.605469 C 138.730469 20.605469 139.445312 20.496094 140.121094 20.273438 C 143.480469 19.179688 145.328125 15.585938 145.664062 12.519531 C 145.761719 11.648438 145.765625 10.777344 145.707031 9.910156 C 145.445312 9.988281 145.1875 10.074219 144.925781 10.15625 C 144.964844 10.917969 144.960938 11.675781 144.875 12.429688 C 144.5625 15.25 142.898438 18.53125 139.875 19.519531 C 137.332031 20.347656 134.179688 19.363281 131.847656 17.003906 C 131.289062 16.441406 130.789062 15.824219 130.335938 15.175781 C 130.085938 15.273438 129.828125 15.371094 129.578125 15.464844 C 130.085938 16.210938 130.644531 16.921875 131.28125 17.566406 C 133.214844 19.519531 135.6875 20.605469 138.003906 20.605469 Z M 43.738281 209.632812 C 43.882812 209.929688 44.019531 210.226562 44.167969 210.523438 C 54.246094 191.242188 59.671875 169.765625 59.894531 147.953125 C 60.128906 124.792969 54.492188 101.890625 43.589844 81.488281 C 43.425781 81.746094 43.257812 82 43.101562 82.253906 C 53.800781 102.441406 59.328125 125.066406 59.097656 147.945312 C 58.878906 169.4375 53.582031 190.597656 43.738281 209.632812 Z M 317.085938 256.136719 C 318.699219 255.398438 320.5625 255.007812 322.640625 254.960938 C 322.804688 254.691406 322.96875 254.425781 323.128906 254.160156 C 320.738281 254.152344 318.597656 254.566406 316.757812 255.417969 C 313.925781 256.714844 311.839844 259.082031 311.179688 261.746094 C 310.542969 264.300781 311.183594 267.199219 312.894531 269.714844 C 313.0625 269.480469 313.230469 269.246094 313.394531 269.011719 C 311.9375 266.742188 311.394531 264.1875 311.953125 261.933594 C 312.558594 259.503906 314.476562 257.339844 317.085938 256.136719 Z M 149.09375 317.375 C 153.730469 319.207031 157.984375 322.007812 161.570312 325.484375 C 160.851562 325.191406 160.128906 324.890625 159.410156 324.585938 C 156.261719 321.859375 152.671875 319.644531 148.800781 318.117188 C 148.289062 317.917969 147.75 317.734375 147.296875 317.886719 C 147 317.984375 146.804688 318.214844 146.671875 318.507812 C 146.4375 318.382812 146.195312 318.253906 145.957031 318.128906 C 146.171875 317.667969 146.519531 317.308594 147.042969 317.128906 C 147.75 316.890625 148.472656 317.132812 149.09375 317.375"/></g><g clip-path="url(#b)"><path fill="#EF2C5F" d="M 375.007812 106.847656 C 374.976562 108.574219 373.949219 110.128906 372.375 110.839844 C 370.980469 111.46875 369.359375 111.339844 368.082031 110.496094 L 335.535156 86.917969 L 338.488281 82.4375 L 373 103.03125 C 374.277344 103.875 375.035156 105.316406 375.007812 106.847656 Z M 245.148438 110.699219 L 241.53125 159.382812 C 241.316406 162.175781 240.3125 164.851562 238.628906 167.097656 L 213.984375 203.152344 L 200.351562 196.019531 L 216.972656 158.472656 L 220.75 108.863281 C 221.34375 101.089844 228.964844 95.847656 236.441406 98.074219 C 241.949219 99.710938 245.574219 104.96875 245.148438 110.699219 Z M 195.828125 130.5625 L 192.550781 102.675781 C 192.042969 98.378906 194.394531 94.769531 197.75 93.097656 C 197.75 93.097656 198.835938 111.105469 203.988281 124.738281 C 207.902344 135.089844 216.984375 142.277344 216.984375 142.277344 C 215.933594 143.625 214.695312 144.839844 213.285156 145.878906 L 176.28125 173.191406 L 170.488281 166.039062 Z M 173.167969 197.105469 L 162.621094 197.105469 L 162.621094 196.308594 L 173.167969 196.308594 Z M 173.167969 199.726562 L 162.621094 199.726562 L 162.621094 198.933594 L 173.167969 198.933594 Z M 173.167969 202.351562 L 162.621094 202.351562 L 162.621094 201.554688 L 173.167969 201.554688 Z M 177.367188 197.308594 L 178.085938 196.25 C 178.539062 195.578125 178.785156 194.785156 178.785156 193.972656 L 178.785156 181.308594 C 178.785156 179.191406 176.417969 176.828125 173.503906 176.828125 L 161.363281 176.828125 L 158.171875 181.445312 C 157.597656 182.277344 156.5 182.566406 155.589844 182.121094 C 154.582031 181.632812 154.15625 180.429688 154.625 179.417969 L 155.800781 176.882812 C 153.953125 177.152344 152.363281 178.375 151.652344 180.136719 L 150.59375 182.769531 L 155.136719 186.191406 L 156.886719 182.371094 L 174.007812 182.371094 L 174.007812 192.839844 L 173.832031 193.117188 L 154.601562 193.117188 C 153.082031 188.359375 148.625 184.90625 143.359375 184.90625 C 138.089844 184.90625 133.632812 188.359375 132.117188 193.117188 L 121.300781 193.117188 C 116.894531 193.117188 112.816406 195.429688 110.550781 199.207031 L 105.605469 207.449219 L 138.492188 207.449219 C 139.980469 208.125 141.621094 208.511719 143.359375 208.511719 C 145.097656 208.511719 146.738281 208.125 148.226562 207.449219 L 177.324219 207.449219 C 179.898438 207.449219 181.519531 204.679688 180.257812 202.433594 L 177.367188 197.308594"/></g><path fill="#F7CA13" d="M 324.652344 207.449219 L 211.371094 207.449219 C 210.015625 209.507812 208.433594 211.601562 207.402344 211.960938 C 205.277344 212.707031 200.65625 212.121094 200.65625 212.121094 L 198.253906 217.347656 C 198.039062 217.824219 197.5625 218.128906 197.039062 218.128906 L 324.652344 218.128906 Z M 16.320312 207.449219 L 16.320312 218.128906 L 178.679688 218.128906 C 179.265625 215.425781 180.023438 212.042969 180.269531 211.488281 C 180.519531 210.925781 182.085938 209.105469 183.605469 207.449219 Z M 182.554688 218.128906 L 185.886719 218.128906 L 186.21875 215.09375 L 187.121094 211.910156 L 184.09375 214.9375 Z M 322.1875 71.703125 L 319.238281 76.179688 L 343.25 92 L 346.199219 87.519531 Z M 106.09375 58.21875 C 106.761719 59.050781 107.980469 59.183594 108.8125 58.511719 C 109.644531 57.84375 109.777344 56.628906 109.105469 55.796875 C 108.4375 54.964844 107.222656 54.832031 106.386719 55.503906 C 105.558594 56.171875 105.421875 57.386719 106.09375 58.21875 Z M 117.054688 71.847656 C 117.722656 72.679688 118.941406 72.8125 119.773438 72.144531 C 120.605469 71.476562 120.738281 70.257812 120.066406 69.425781 C 119.398438 68.59375 118.183594 68.460938 117.351562 69.128906 C 116.519531 69.800781 116.386719 71.015625 117.054688 71.847656 Z M 94.585938 64.40625 C 93.085938 62.542969 93.382812 59.820312 95.246094 58.316406 L 95.34375 58.242188 L 121.140625 37.496094 C 123.121094 35.90625 126.019531 36.214844 127.613281 38.199219 L 146.074219 61.152344 C 147.667969 63.132812 147.355469 66.03125 145.371094 67.621094 L 138.507812 73.140625 L 134.585938 68.261719 L 139.707031 64.148438 L 143.628906 69.023438 L 144.25 68.527344 L 120.015625 38.398438 L 119.394531 38.902344 L 123.320312 43.777344 L 118.203125 47.890625 L 114.277344 43.015625 L 113.65625 43.515625 L 137.890625 73.640625 L 136.441406 74.804688 C 135.429688 75.617188 134.222656 76.148438 132.941406 76.34375 L 132.167969 76.460938 L 109.800781 79.878906 C 108.273438 80.113281 106.738281 79.515625 105.769531 78.3125 Z M 243.945312 330.0625 L 232.082031 330.0625 C 230.550781 330.0625 229.285156 331.28125 229.253906 332.808594 C 229.226562 334.230469 229.058594 335.800781 228.492188 336.429688 C 227.484375 337.554688 213.390625 336.460938 210.320312 346.78125 L 225.847656 348.921875 C 228.964844 349.351562 232.125 349.320312 235.230469 348.832031 L 248.230469 346.78125 L 246.832031 332.675781 C 246.683594 331.191406 245.4375 330.0625 243.945312 330.0625 Z M 331.347656 332.675781 L 332.746094 346.78125 L 324.957031 348.082031 C 319.046875 349.066406 313.011719 349.070312 307.097656 348.085938 L 305.6875 346.78125 C 307.902344 336.460938 312.003906 337.554688 313.007812 336.429688 C 313.578125 335.800781 313.746094 334.230469 313.769531 332.808594 C 313.796875 331.28125 315.066406 330.0625 316.597656 330.0625 L 328.460938 330.0625 C 329.953125 330.0625 331.199219 331.191406 331.347656 332.675781"/><g clip-path="url(#c)"><path fill="#30526A" d="M 293.742188 154.484375 C 293.617188 154.300781 293.367188 154.253906 293.1875 154.378906 C 289.976562 156.59375 286.070312 157.644531 282.179688 157.34375 C 281.957031 157.324219 281.769531 157.488281 281.753906 157.710938 C 281.734375 157.929688 281.898438 158.121094 282.117188 158.136719 C 282.574219 158.171875 283.03125 158.191406 283.488281 158.191406 C 287.097656 158.191406 290.65625 157.09375 293.636719 155.035156 C 293.820312 154.910156 293.867188 154.664062 293.742188 154.484375 Z M 274.03125 152.097656 C 277.25 153.800781 280.925781 154.660156 284.597656 154.660156 C 287.683594 154.660156 290.765625 154.054688 293.5625 152.832031 C 293.761719 152.746094 293.855469 152.507812 293.769531 152.308594 C 293.679688 152.105469 293.445312 152.011719 293.242188 152.101562 C 287.332031 154.683594 280.109375 154.414062 274.40625 151.394531 C 274.210938 151.292969 273.96875 151.367188 273.867188 151.558594 C 273.765625 151.753906 273.835938 151.996094 274.03125 152.097656 Z M 262.328125 194.246094 C 258.515625 187.824219 255.597656 180.910156 253.671875 173.695312 C 253.613281 173.480469 253.394531 173.355469 253.183594 173.410156 C 252.972656 173.464844 252.84375 173.683594 252.898438 173.898438 C 254.847656 181.1875 257.789062 188.167969 261.644531 194.65625 C 261.71875 194.78125 261.847656 194.847656 261.984375 194.847656 C 262.054688 194.847656 262.125 194.832031 262.1875 194.792969 C 262.378906 194.679688 262.4375 194.4375 262.328125 194.246094 Z M 310.664062 207.449219 L 272.59375 207.449219 L 269.320312 196.109375 C 270.75 195.773438 272.183594 195.457031 273.617188 195.164062 C 273.832031 195.121094 273.96875 194.910156 273.925781 194.695312 C 273.882812 194.480469 273.671875 194.339844 273.457031 194.386719 C 267.515625 195.601562 261.578125 197.160156 255.804688 199.023438 C 255.597656 199.09375 255.480469 199.316406 255.550781 199.527344 C 255.605469 199.695312 255.761719 199.800781 255.929688 199.800781 C 255.96875 199.800781 256.011719 199.796875 256.050781 199.785156 C 260.316406 198.40625 264.671875 197.195312 269.050781 196.171875 L 265.894531 207.449219 L 225.773438 207.449219 L 235.074219 172.296875 L 238.503906 167.285156 C 239.242188 167.378906 240.1875 167.453125 241.359375 167.453125 C 244.183594 167.453125 248.28125 167.015625 253.769531 165.410156 C 272.5 159.917969 283.199219 137.464844 283.300781 137.238281 C 283.3125 137.226562 283.308594 137.210938 283.3125 137.195312 C 286.125 138.195312 304.617188 145.816406 307.363281 174.402344 C 308.101562 182.109375 309.394531 194.949219 310.664062 207.449219 Z M 201.046875 95.992188 C 199.742188 95.046875 198.957031 93.464844 198.988281 91.855469 C 198.992188 91.632812 198.816406 91.453125 198.597656 91.449219 C 198.375 91.445312 198.195312 91.621094 198.191406 91.839844 C 198.152344 93.703125 199.066406 95.539062 200.578125 96.636719 C 200.648438 96.683594 200.730469 96.710938 200.808594 96.710938 C 200.933594 96.710938 201.054688 96.65625 201.132812 96.546875 C 201.261719 96.367188 201.222656 96.121094 201.046875 95.992188 Z M 217.90625 146.226562 C 212.886719 142.5 206.484375 140.507812 203.578125 135.582031 C 199.765625 129.117188 200.789062 120.890625 199.226562 117.433594 C 196.007812 110.320312 194.558594 101.613281 197.566406 94.425781 C 197.457031 94.289062 197.355469 94.152344 197.253906 94.027344 C 195.960938 92.390625 194.8125 90.449219 194.933594 88.367188 C 195.058594 86.261719 196.441406 84.46875 197.746094 82.816406 C 198.117188 82.734375 198.421875 82.664062 198.792969 82.582031 C 200.378906 83.425781 201.953125 84.636719 202.835938 86.339844 C 203.574219 87.765625 204.199219 89.734375 204.707031 91.726562 C 204.710938 91.742188 204.714844 91.757812 204.714844 91.773438 C 204.808594 92.132812 204.898438 92.492188 204.980469 92.851562 C 205.003906 92.960938 205.03125 93.070312 205.054688 93.179688 C 205.113281 93.429688 205.167969 93.671875 205.21875 93.917969 C 205.269531 94.144531 205.316406 94.371094 205.363281 94.59375 C 205.386719 94.703125 205.40625 94.808594 205.429688 94.914062 C 205.550781 95.511719 205.660156 96.09375 205.757812 96.625 C 205.757812 96.613281 205.757812 96.605469 205.757812 96.59375 C 205.753906 96.375 205.746094 96.152344 205.738281 95.929688 C 205.738281 95.886719 205.738281 95.847656 205.738281 95.804688 C 205.734375 95.597656 205.734375 95.386719 205.730469 95.175781 C 205.730469 95.128906 205.730469 95.085938 205.730469 95.046875 C 205.726562 94.542969 205.730469 94.03125 205.742188 93.519531 C 205.742188 93.476562 205.742188 93.429688 205.746094 93.382812 C 205.75 93.183594 205.757812 92.980469 205.765625 92.78125 C 205.769531 92.710938 205.769531 92.636719 205.773438 92.566406 C 205.785156 92.382812 205.792969 92.210938 205.804688 92.035156 C 205.808594 91.960938 205.8125 91.886719 205.816406 91.816406 C 205.828125 91.617188 205.84375 91.421875 205.863281 91.234375 C 205.867188 91.1875 205.871094 91.144531 205.875 91.097656 C 205.894531 90.859375 205.921875 90.632812 205.949219 90.40625 C 205.953125 90.355469 205.960938 90.308594 205.96875 90.261719 C 205.992188 90.089844 206.011719 89.917969 206.042969 89.753906 C 206.050781 89.679688 206.0625 89.613281 206.074219 89.542969 C 206.101562 89.402344 206.128906 89.261719 206.15625 89.128906 C 206.167969 89.058594 206.183594 88.988281 206.199219 88.917969 C 206.226562 88.78125 206.261719 88.648438 206.296875 88.519531 C 206.3125 88.464844 206.324219 88.410156 206.339844 88.355469 C 206.390625 88.183594 206.441406 88.011719 206.5 87.855469 C 206.511719 87.828125 206.523438 87.804688 206.53125 87.773438 C 206.582031 87.652344 206.636719 87.527344 206.6875 87.414062 C 206.714844 87.367188 206.734375 87.324219 206.761719 87.28125 C 206.808594 87.195312 206.855469 87.109375 206.90625 87.035156 C 206.933594 86.992188 206.960938 86.953125 206.992188 86.914062 C 207.042969 86.84375 207.101562 86.777344 207.160156 86.71875 C 207.1875 86.691406 207.214844 86.660156 207.242188 86.628906 C 207.328125 86.554688 207.421875 86.484375 207.519531 86.433594 C 207.519531 86.433594 207.519531 86.433594 207.523438 86.429688 C 207.628906 86.378906 207.738281 86.308594 207.855469 86.226562 C 207.886719 86.203125 207.917969 86.183594 207.949219 86.160156 C 208.042969 86.089844 208.136719 86.015625 208.238281 85.929688 C 208.261719 85.914062 208.285156 85.894531 208.3125 85.867188 C 208.566406 85.644531 208.839844 85.375 209.121094 85.070312 C 209.128906 85.058594 209.140625 85.046875 209.148438 85.039062 C 209.734375 84.398438 210.351562 83.609375 210.96875 82.757812 C 210.96875 82.757812 210.96875 82.757812 210.972656 82.757812 C 212.34375 80.863281 213.699219 78.664062 214.609375 77.128906 C 215.625 75.40625 217.375 74.191406 219.367188 74.011719 C 219.511719 73.996094 219.652344 73.992188 219.796875 73.988281 C 221.636719 73.964844 227.25 81.585938 228.089844 82.738281 C 227.953125 82.765625 227.828125 82.855469 227.777344 83 C 225.46875 89.605469 219.84375 94.886719 213.105469 96.78125 C 212.894531 96.839844 212.769531 97.0625 212.828125 97.273438 C 212.878906 97.449219 213.039062 97.5625 213.210938 97.5625 C 213.25 97.5625 213.28125 97.554688 213.320312 97.546875 C 220.304688 95.585938 226.136719 90.109375 228.53125 83.257812 C 228.5625 83.167969 228.554688 83.078125 228.523438 82.996094 C 230.992188 83.75 233.589844 84.871094 236.21875 86.503906 C 244.007812 91.34375 255.371094 109.042969 264.734375 120.296875 C 268.09375 124.335938 274.601562 128.234375 279.542969 130.828125 C 281.816406 132.015625 282.960938 134.386719 282.765625 136.722656 C 282.6875 136.757812 282.621094 136.816406 282.582031 136.902344 C 282.476562 137.121094 271.933594 159.253906 253.546875 164.644531 C 251.621094 165.210938 249.886719 165.613281 248.300781 165.914062 C 243.675781 165.886719 242.328125 163.265625 241.289062 161.089844 C 241.398438 160.527344 241.488281 159.957031 241.53125 159.382812 L 245.148438 110.699219 C 245.574219 104.96875 241.949219 99.710938 236.441406 98.074219 C 228.964844 95.847656 221.34375 101.089844 220.75 108.863281 L 218.394531 139.820312 C 215.328125 136.675781 212.636719 133.246094 210.683594 129.320312 C 205.96875 119.851562 206.105469 108.675781 206.226562 98.816406 C 206.230469 98.59375 206.058594 98.414062 205.835938 98.410156 C 205.832031 98.410156 205.832031 98.410156 205.828125 98.410156 C 205.613281 98.410156 205.433594 98.589844 205.433594 98.804688 C 205.308594 108.757812 205.171875 120.035156 209.96875 129.675781 C 212.074219 133.898438 214.996094 137.546875 218.3125 140.875 Z M 241 162.304688 C 240.570312 163.800781 239.90625 165.226562 239.027344 166.523438 C 240.488281 166.671875 242.660156 166.722656 245.585938 166.351562 C 243.046875 165.621094 241.835938 163.902344 241 162.304688 Z M 222.386719 220.238281 C 215.9375 244.605469 215.25 270.140625 220.375 294.820312 L 228.867188 323.214844 L 249.046875 323.214844 L 249.65625 265.488281 L 262.910156 218.128906 L 222.945312 218.128906 Z M 331.269531 323.375 L 331.269531 316.566406 C 331.269531 295.890625 327.304688 275.40625 319.585938 256.222656 L 314.316406 243.121094 C 314.316406 243.121094 313.164062 231.921875 311.753906 218.128906 L 275.675781 218.128906 L 285.117188 250.871094 C 290.78125 272.933594 298.476562 278.148438 302.632812 292.476562 L 312.105469 323.375 Z M 295.132812 84.066406 L 302.683594 89.039062 C 303.089844 89.308594 303.640625 89.195312 303.90625 88.789062 L 306.84375 84.332031 C 307.109375 83.925781 307 83.378906 306.589844 83.109375 L 306.136719 82.8125 C 306.136719 82.8125 307.292969 78.875 308.984375 76.308594 L 310.492188 77.304688 C 311.527344 77.984375 312.917969 77.699219 313.597656 76.664062 L 315.210938 74.21875 L 318.917969 76.660156 L 322.503906 71.21875 L 318.796875 68.777344 L 320.425781 66.304688 C 321.09375 65.289062 320.828125 63.929688 319.835938 63.238281 C 321.410156 60.625 325.21875 54.953125 331.449219 49.53125 C 331.796875 49.230469 331.753906 48.703125 331.386719 48.820312 C 329.933594 49.277344 327.449219 50.1875 324.65625 51.777344 C 325.898438 50.464844 327.277344 49.117188 328.804688 47.789062 C 329.152344 47.488281 329.113281 46.960938 328.746094 47.078125 C 325.644531 48.050781 317.863281 51.09375 312.421875 58.34375 L 312.132812 58.15625 C 311.097656 57.472656 309.707031 57.761719 309.027344 58.796875 L 302.199219 69.152344 C 301.515625 70.1875 301.804688 71.582031 302.839844 72.261719 L 304.347656 73.253906 C 302.660156 75.820312 299.496094 78.4375 299.496094 78.4375 L 299.042969 78.136719 C 298.632812 77.871094 298.085938 77.980469 297.820312 78.386719 L 294.878906 82.847656 C 294.613281 83.25 294.726562 83.796875 295.132812 84.066406 Z M 130.757812 87.160156 L 128.96875 84.9375 L 130.960938 83.785156 L 137.566406 83.175781 L 135.804688 80.984375 L 132.167969 76.460938 L 109.800781 79.878906 C 108.273438 80.113281 106.738281 79.515625 105.769531 78.3125 L 94.585938 64.40625 C 93.085938 62.542969 93.382812 59.820312 95.246094 58.316406 L 0.0078125 134.894531 L 13.507812 151.679688 L 21.8125 150.914062 L 19.597656 148.160156 L 20.417969 147.683594 L 28.621094 146.925781 L 26.433594 144.210938 L 27.328125 143.691406 L 35.429688 142.941406 L 33.269531 140.257812 L 34.238281 139.699219 L 42.238281 138.957031 L 40.105469 136.304688 L 41.148438 135.703125 L 49.046875 134.972656 L 46.941406 132.355469 L 48.054688 131.710938 L 55.855469 130.988281 L 53.777344 128.402344 L 54.964844 127.71875 L 62.664062 127.003906 L 60.613281 124.453125 L 61.871094 123.722656 L 69.476562 123.019531 L 67.449219 120.5 L 68.78125 119.730469 L 76.285156 119.035156 L 74.285156 116.550781 L 75.691406 115.734375 L 83.09375 115.050781 L 81.121094 112.597656 L 82.601562 111.742188 L 89.902344 111.066406 L 87.953125 108.648438 L 89.511719 107.746094 L 96.710938 107.078125 L 94.792969 104.695312 L 96.417969 103.753906 L 103.519531 103.09375 L 101.625 100.742188 L 103.328125 99.761719 L 110.328125 99.109375 L 108.460938 96.792969 L 110.234375 95.765625 L 117.136719 95.128906 L 115.296875 92.839844 L 117.144531 91.773438 L 123.945312 91.144531 L 122.132812 88.886719 L 124.054688 87.777344 Z M 139.707031 64.148438 L 143.628906 69.023438 L 144.25 68.527344 L 120.015625 38.398438 L 119.394531 38.902344 L 123.320312 43.777344 Z M 138.507812 73.140625 L 134.585938 68.261719 L 118.203125 47.890625 L 114.277344 43.015625 L 113.65625 43.515625 L 137.890625 73.640625 Z M 117.351562 69.128906 C 116.519531 69.800781 116.386719 71.015625 117.054688 71.847656 C 117.722656 72.679688 118.941406 72.8125 119.773438 72.144531 C 120.605469 71.476562 120.738281 70.257812 120.066406 69.425781 C 119.398438 68.59375 118.183594 68.460938 117.351562 69.128906 Z M 108.8125 58.511719 C 109.644531 57.84375 109.777344 56.628906 109.105469 55.796875 C 108.4375 54.964844 107.222656 54.832031 106.386719 55.503906 C 105.558594 56.171875 105.421875 57.386719 106.09375 58.21875 C 106.761719 59.050781 107.980469 59.183594 108.8125 58.511719 Z M 208.929688 60.730469 C 208.878906 60.785156 208.867188 60.867188 208.90625 60.933594 C 208.957031 61.023438 209.066406 61.050781 209.152344 61.003906 L 209.179688 60.984375 C 209.476562 60.820312 209.738281 60.664062 210.015625 60.464844 C 210.292969 60.246094 210.617188 59.925781 210.65625 59.417969 C 210.664062 59.179688 210.609375 58.929688 210.445312 58.707031 C 210.300781 58.511719 210.054688 58.386719 209.8125 58.359375 C 210.058594 58.085938 210.351562 57.835938 210.6875 57.628906 C 210.742188 57.597656 210.773438 57.53125 210.761719 57.46875 C 210.742188 57.382812 210.660156 57.332031 210.578125 57.347656 C 210.140625 57.4375 209.71875 57.640625 209.367188 57.9375 C 209.007812 58.226562 208.707031 58.601562 208.503906 59.027344 C 208.441406 59.164062 208.460938 59.332031 208.566406 59.449219 C 208.710938 59.605469 208.953125 59.617188 209.109375 59.472656 L 209.113281 59.46875 C 209.328125 59.273438 209.597656 59.132812 209.707031 59.140625 C 209.765625 59.140625 209.796875 59.152344 209.832031 59.191406 C 209.867188 59.230469 209.90625 59.316406 209.90625 59.402344 C 209.921875 59.5625 209.816406 59.804688 209.609375 60.011719 C 209.386719 60.234375 209.140625 60.484375 208.929688 60.730469 Z M 201.757812 77.332031 C 202.996094 76.121094 204.140625 74.835938 205.136719 73.425781 C 206.117188 72.027344 207.082031 70.550781 207.484375 68.820312 C 207.503906 68.730469 207.453125 68.640625 207.367188 68.609375 C 207.273438 68.578125 207.171875 68.625 207.140625 68.71875 L 207.132812 68.730469 C 206.605469 70.296875 205.597656 71.6875 204.585938 73.019531 C 203.542969 74.332031 202.441406 75.621094 201.21875 76.757812 C 200.035156 77.917969 198.605469 78.769531 197.066406 79.433594 C 195.539062 80.109375 193.925781 80.617188 192.261719 80.84375 C 192.1875 80.855469 192.128906 80.921875 192.128906 81 C 192.128906 81.082031 192.195312 81.152344 192.28125 81.148438 C 194.015625 81.128906 195.71875 80.695312 197.335938 80.078125 C 198.929688 79.4375 200.511719 78.574219 201.757812 77.332031 Z M 192.253906 73.8125 C 192.242188 73.707031 192.148438 73.628906 192.046875 73.640625 L 191.175781 73.722656 C 190.894531 73.738281 190.613281 73.765625 190.332031 73.769531 C 190.054688 73.785156 189.773438 73.777344 189.488281 73.78125 L 188.605469 73.753906 C 188.558594 73.75 188.503906 73.773438 188.472656 73.820312 C 188.421875 73.890625 188.4375 73.988281 188.507812 74.042969 C 188.773438 74.234375 189.078125 74.359375 189.386719 74.445312 C 189.703125 74.535156 190.027344 74.566406 190.351562 74.566406 C 190.679688 74.558594 191.003906 74.515625 191.3125 74.410156 C 191.625 74.316406 191.921875 74.179688 192.179688 73.976562 C 192.226562 73.9375 192.257812 73.875 192.253906 73.8125 Z M 191.066406 72.460938 C 192.042969 72.300781 193.003906 72.015625 193.898438 71.597656 C 194.796875 71.175781 195.640625 70.640625 196.359375 69.972656 C 196.421875 69.917969 196.4375 69.820312 196.386719 69.746094 C 196.335938 69.664062 196.222656 69.632812 196.136719 69.6875 C 195.332031 70.183594 194.496094 70.617188 193.625 70.945312 C 192.753906 71.273438 191.855469 71.527344 190.9375 71.675781 C 190.019531 71.835938 189.089844 71.886719 188.15625 71.863281 C 187.222656 71.832031 186.289062 71.695312 185.363281 71.484375 C 185.292969 71.46875 185.21875 71.503906 185.1875 71.570312 C 185.152344 71.644531 185.1875 71.738281 185.265625 71.773438 C 186.15625 72.179688 187.121094 72.421875 188.105469 72.53125 C 189.085938 72.652344 190.085938 72.613281 191.066406 72.460938 Z M 189.726562 68.097656 C 189.65625 68.257812 189.566406 68.40625 189.457031 68.582031 L 189.445312 68.597656 C 189.421875 68.640625 189.414062 68.6875 189.417969 68.730469 C 189.4375 68.839844 189.535156 68.910156 189.640625 68.890625 C 189.898438 68.847656 190.121094 68.699219 190.300781 68.507812 C 190.480469 68.320312 190.601562 68.070312 190.65625 67.804688 C 190.707031 67.542969 190.695312 67.265625 190.597656 67.023438 C 190.507812 66.777344 190.359375 66.558594 190.140625 66.421875 C 190.109375 66.398438 190.070312 66.390625 190.027344 66.398438 C 189.9375 66.410156 189.878906 66.492188 189.890625 66.582031 L 189.890625 66.59375 C 189.953125 67.007812 189.949219 67.332031 189.878906 67.644531 C 189.847656 67.796875 189.789062 67.941406 189.726562 68.097656 Z M 186.964844 61.152344 C 187.371094 60.691406 187.789062 60.234375 188.222656 59.792969 C 188.285156 59.734375 188.378906 59.734375 188.4375 59.792969 C 188.492188 59.847656 188.496094 59.925781 188.457031 59.988281 C 188.132812 60.472656 187.796875 60.949219 187.460938 61.417969 C 187.671875 61.53125 187.878906 61.648438 188.097656 61.769531 C 189.832031 62.738281 191.796875 63.839844 194.347656 64 C 198.1875 64.246094 200.179688 62.53125 201.78125 61.152344 C 202.074219 60.902344 202.347656 60.660156 202.617188 60.453125 C 203.324219 59.902344 204.042969 59.453125 204.738281 59.082031 C 204.757812 58.398438 204.792969 57.652344 204.824219 56.910156 C 204.882812 55.722656 204.582031 54.585938 204.027344 53.570312 C 197.96875 52.90625 187.640625 52.171875 178.488281 53.503906 C 177.988281 56.984375 177.855469 62.371094 179.566406 62.890625 C 180.816406 63.269531 181.269531 62.703125 181.894531 61.914062 C 182.445312 61.21875 183.074219 60.429688 184.328125 60.371094 C 184.375 60.367188 184.417969 60.367188 184.464844 60.367188 C 185.257812 60.367188 186.078125 60.695312 186.964844 61.152344 Z M 185.414062 68.804688 C 184.878906 68.652344 184.347656 68.351562 183.992188 67.839844 C 183.625 67.328125 183.585938 66.644531 183.714844 66.09375 C 183.839844 65.53125 184.082031 65.039062 184.351562 64.582031 C 184.917969 63.703125 185.511719 62.867188 186.167969 62.078125 C 186.253906 61.972656 186.34375 61.875 186.429688 61.773438 C 185.667969 61.390625 184.976562 61.136719 184.367188 61.164062 C 183.472656 61.210938 183.03125 61.765625 182.515625 62.410156 C 181.855469 63.242188 181.101562 64.1875 179.335938 63.652344 C 176.34375 62.746094 177.59375 54.078125 177.746094 53.089844 L 177.789062 52.800781 L 178.078125 52.757812 C 187.074219 51.402344 197.238281 52.054688 203.476562 52.714844 C 203.203125 52.34375 202.894531 51.996094 202.546875 51.679688 C 201.894531 51.078125 201.371094 50.300781 201.03125 49.492188 C 198.582031 49.558594 196.046875 48.148438 194.15625 46.59375 C 192.089844 48.054688 190.007812 49.523438 187.695312 50.550781 C 185.382812 51.582031 183 51.960938 180.503906 51.53125 C 178.65625 49.609375 177.664062 46.894531 177.828125 44.234375 C 177.992188 41.574219 179.320312 39.007812 181.386719 37.328125 C 182.742188 36.226562 184.652344 35.5 186.234375 36.246094 C 188.359375 32.558594 192.925781 30.449219 197.117188 31.226562 L 195.636719 33.398438 C 198.621094 32.539062 202.105469 33.976562 203.613281 36.6875 C 205.273438 35.769531 207.300781 35.542969 209.121094 36.082031 C 210.941406 36.617188 212.527344 37.910156 213.417969 39.582031 C 214.273438 41.179688 214.632812 43.230469 216.195312 44.15625 C 216.839844 44.535156 217.632812 44.679688 218.167969 45.203125 C 219.128906 46.136719 218.785156 47.722656 218.375 49.003906 C 217.753906 50.925781 217.128906 52.855469 216.511719 54.78125 C 216.128906 55.960938 217.175781 57.742188 218.042969 58.628906 C 218.304688 58.902344 218.613281 59.148438 218.765625 59.496094 C 218.921875 59.839844 218.855469 60.328125 218.507812 60.484375 C 218.175781 60.632812 217.710938 60.433594 217.464844 60.703125 C 217.226562 60.957031 217.425781 61.363281 217.632812 61.636719 C 217.925781 62.023438 218.242188 62.410156 218.421875 62.859375 C 218.605469 63.3125 218.636719 63.851562 218.378906 64.265625 C 218.117188 64.679688 217.511719 64.878906 217.113281 64.601562 C 217.511719 65.003906 217.921875 65.417969 218.136719 65.941406 C 218.351562 66.46875 218.320312 67.132812 217.917969 67.527344 C 217.28125 68.15625 216.503906 67.507812 215.703125 67.101562 C 216.160156 68.171875 216.542969 69.273438 216.851562 70.394531 C 216.933594 70.703125 217.007812 71.050781 216.84375 71.320312 C 216.640625 71.660156 216.167969 71.71875 215.78125 71.640625 C 215.390625 71.5625 215.035156 71.113281 214.640625 71.132812 C 215.328125 72.207031 215.675781 73.316406 215.660156 74.589844 C 211.679688 72.578125 209.019531 67.835938 208.902344 63.378906 C 210.425781 63.054688 211.863281 62.191406 212.675781 60.871094 C 213.488281 59.546875 213.566406 57.746094 212.6875 56.464844 C 212.351562 55.976562 211.863281 55.5625 211.28125 55.445312 C 210.378906 55.265625 209.488281 55.828125 208.839844 56.484375 C 208.195312 57.136719 207.046875 61.011719 206.257812 61.488281 C 205.832031 61.453125 205.207031 61.195312 204.785156 61.164062 C 204.746094 60.839844 204.730469 60.441406 204.730469 60.003906 C 204.191406 60.308594 203.644531 60.660156 203.105469 61.082031 C 202.847656 61.285156 202.582031 61.515625 202.300781 61.757812 C 200.785156 63.0625 198.742188 64.824219 195.066406 64.824219 C 194.820312 64.824219 194.558594 64.8125 194.296875 64.796875 C 191.566406 64.621094 189.429688 63.421875 187.707031 62.460938 C 187.460938 62.324219 187.230469 62.195312 186.996094 62.070312 C 186.898438 62.207031 186.800781 62.34375 186.703125 62.484375 C 186.125 63.308594 185.535156 64.136719 185.03125 64.992188 C 184.523438 65.796875 184.160156 66.757812 184.585938 67.460938 C 185.011719 68.199219 186.027344 68.460938 187.015625 68.542969 C 187.113281 68.550781 187.1875 68.640625 187.179688 68.738281 C 187.171875 68.824219 187.101562 68.894531 187.015625 68.902344 L 187.011719 68.902344 C 186.496094 68.945312 185.957031 68.9375 185.414062 68.804688 Z M 184.328125 55.082031 C 183.945312 54.96875 183.546875 54.910156 183.152344 54.953125 C 182.757812 54.984375 182.367188 55.089844 182.039062 55.304688 C 181.988281 55.34375 181.953125 55.40625 181.957031 55.472656 C 181.960938 55.578125 182.050781 55.65625 182.152344 55.648438 L 182.160156 55.648438 C 182.503906 55.625 182.832031 55.621094 183.152344 55.65625 C 183.472656 55.695312 183.789062 55.746094 184.09375 55.839844 C 184.398438 55.929688 184.691406 56.054688 184.980469 56.203125 C 185.269531 56.351562 185.535156 56.539062 185.808594 56.753906 L 185.816406 56.757812 C 185.855469 56.792969 185.917969 56.804688 185.96875 56.785156 C 186.050781 56.753906 186.089844 56.664062 186.058594 56.582031 C 185.917969 56.214844 185.664062 55.898438 185.363281 55.648438 C 185.0625 55.386719 184.699219 55.207031 184.328125 55.082031 Z M 194.925781 55.621094 L 194.933594 55.621094 C 195.285156 55.601562 195.613281 55.601562 195.9375 55.640625 C 196.257812 55.683594 196.574219 55.742188 196.878906 55.839844 C 197.183594 55.933594 197.472656 56.066406 197.753906 56.214844 C 198.042969 56.367188 198.300781 56.554688 198.574219 56.773438 L 198.578125 56.777344 C 198.628906 56.816406 198.699219 56.828125 198.761719 56.804688 C 198.859375 56.769531 198.90625 56.660156 198.867188 56.566406 C 198.722656 56.199219 198.460938 55.882812 198.15625 55.632812 C 197.851562 55.378906 197.488281 55.199219 197.109375 55.082031 C 196.726562 54.972656 196.332031 54.921875 195.933594 54.96875 C 195.542969 55.007812 195.15625 55.117188 194.835938 55.335938 C 194.789062 55.363281 194.757812 55.414062 194.761719 55.472656 C 194.769531 55.558594 194.84375 55.625 194.925781 55.621094 Z M 183.679688 57.136719 C 182.722656 57.507812 182.789062 58.796875 183.59375 59.289062 C 183.851562 59.445312 184.179688 59.523438 184.453125 59.398438 C 184.722656 59.28125 184.878906 59.003906 184.976562 58.726562 C 185.273438 57.855469 184.722656 56.738281 183.679688 57.136719 Z M 196.953125 57.40625 C 195.996094 57.773438 196.0625 59.058594 196.867188 59.554688 C 197.125 59.710938 197.449219 59.789062 197.722656 59.667969 C 197.996094 59.546875 198.152344 59.269531 198.246094 58.992188 C 198.546875 58.125 197.996094 57.003906 196.953125 57.40625 Z M 210.320312 346.78125 C 209.894531 348.203125 209.679688 349.832031 209.738281 351.71875 L 237.253906 351.71875 L 237.957031 350.523438 C 238.507812 349.585938 239.511719 349.011719 240.597656 349.011719 L 241.710938 351.71875 L 248.71875 351.71875 L 248.230469 346.78125 Z M 332.746094 346.78125 L 305.6875 346.78125 C 305.382812 348.203125 305.234375 349.832031 305.289062 351.71875 L 325.546875 351.71875 L 326.25 350.523438 C 326.800781 349.585938 327.804688 349.011719 327.8125 349.011719 L 328.054688 351.71875 L 333.234375 351.71875 Z M 150.199219 196.707031 C 150.199219 192.933594 147.128906 189.867188 143.359375 189.867188 C 139.585938 189.867188 136.519531 192.933594 136.519531 196.707031 C 136.519531 200.480469 139.585938 203.546875 143.359375 203.546875 C 147.128906 203.546875 150.199219 200.480469 150.199219 196.707031 Z M 143.359375 204.34375 C 139.148438 204.34375 135.722656 200.917969 135.722656 196.707031 C 135.722656 192.496094 139.148438 189.074219 143.359375 189.074219 C 147.570312 189.074219 150.992188 192.496094 150.992188 196.707031 C 150.992188 200.917969 147.570312 204.34375 143.359375 204.34375 Z M 159.996094 196.707031 C 159.996094 200.808594 158.507812 204.550781 156.050781 207.449219 L 148.226562 207.449219 C 152.3125 205.597656 155.160156 201.488281 155.160156 196.707031 C 155.160156 190.1875 149.878906 184.90625 143.359375 184.90625 C 136.839844 184.90625 131.554688 190.1875 131.554688 196.707031 C 131.554688 201.488281 134.40625 205.597656 138.492188 207.449219 L 130.667969 207.449219 C 128.207031 204.550781 126.722656 200.808594 126.722656 196.707031 C 126.722656 187.519531 134.167969 180.074219 143.359375 180.074219 C 152.550781 180.074219 159.996094 187.519531 159.996094 196.707031"/></g></svg>