<svg xmlns="http://www.w3.org/2000/svg" width="375" viewBox="0 0 375 375" height="375" version="1.0"><defs><clipPath id="a"><path d="M 1 5.234375 L 374.5 5.234375 L 374.5 363.453125 L 1 363.453125 Z M 1 5.234375"/></clipPath><clipPath id="b"><path d="M 0.511719 22.433594 L 279.664062 22.433594 L 279.664062 364.46875 L 0.511719 364.46875 Z M 0.511719 22.433594"/></clipPath></defs><g clip-path="url(#a)"><path fill="#F9B126" d="M 197.027344 33.523438 L 206.414062 34.136719 L 226.914062 35.480469 L 230.03125 35.683594 L 230.359375 30.679688 L 228.902344 29.582031 C 228.902344 29.582031 229.128906 21.015625 223.902344 19.339844 C 218.679688 17.664062 211.375 17.105469 208.5 18.996094 C 205.625 20.894531 203.300781 29.652344 203.300781 29.652344 L 196.839844 32.421875 C 196.28125 32.660156 196.425781 33.480469 197.027344 33.523438 Z M 155.1875 24.015625 L 167.550781 10.636719 L 168.066406 11.132812 L 171.476562 7.085938 L 169.976562 5.632812 L 166.039062 9.175781 L 166.558594 9.675781 L 153.59375 22.476562 Z M 277.515625 65.09375 C 282.636719 66.089844 287.113281 62.199219 287.113281 57.261719 C 287.113281 55.816406 286.726562 54.457031 286.050781 53.289062 C 284.371094 50.382812 283.257812 47.191406 283.257812 43.832031 L 283.257812 42.71875 L 274.984375 42.71875 L 274.984375 43.203125 C 274.984375 46.636719 274.222656 50.09375 272.375 52.988281 C 271.359375 54.582031 270.890625 56.554688 271.246094 58.648438 C 271.785156 61.851562 274.320312 64.476562 277.515625 65.09375 Z M 34.574219 269.605469 C 57.867188 228.703125 71.183594 227.703125 43.175781 169.347656 C 15.164062 110.996094 39.921875 62.242188 90.09375 40.722656 C 132.863281 22.375 140.078125 62.085938 248.753906 100.046875 C 357.429688 138.007812 303.820312 232.695312 335.621094 254.90625 C 367.421875 277.121094 374.503906 363.433594 374.503906 363.433594 L 1.164062 363.433594 C 1.164062 363.433594 11.28125 310.515625 34.574219 269.605469"/></g><g clip-path="url(#b)"><path fill="#F6846B" d="M 268.878906 197.933594 C 268.726562 197.9375 268.636719 197.941406 268.636719 197.941406 C 268.636719 197.941406 268.582031 198.21875 268.492188 198.625 C 268.640625 198.390625 268.769531 198.160156 268.878906 197.933594 Z M 279.453125 198.21875 C 279.339844 199.769531 277.804688 200.117188 276.570312 200.375 C 275.328125 200.628906 274.957031 201.761719 273.515625 201.695312 C 272.074219 201.621094 270.910156 202.875 269.800781 202.875 C 269.125 202.875 268.105469 202.433594 267.414062 202.09375 C 267.375 202.128906 267.339844 202.152344 267.304688 202.152344 C 267.167969 202.152344 266.933594 201.972656 266.65625 201.695312 L 266.652344 201.691406 C 265.929688 200.964844 264.886719 199.550781 264.363281 198.828125 C 263.644531 197.828125 264.085938 195.386719 264.585938 194.117188 C 265.085938 192.84375 265.253906 191.066406 265.640625 189.902344 C 266.007812 188.804688 267.976562 186.128906 268.195312 185.832031 C 267.949219 184.921875 265.492188 175.878906 263.8125 166.679688 C 262.554688 159.816406 260.855469 144.003906 259.96875 135.332031 C 259.625 134.917969 259.316406 134.457031 259.058594 133.957031 L 248.441406 113.65625 L 268.21875 108.261719 L 274.039062 127.898438 C 274.21875 128.515625 274.316406 129.136719 274.351562 129.753906 C 274.355469 129.777344 274.363281 129.796875 274.371094 129.820312 C 277.597656 141.476562 278.828125 183.332031 278.894531 185.796875 C 278.894531 185.796875 278.894531 185.796875 278.894531 185.800781 C 279.167969 186.34375 279.152344 187.816406 278.894531 189.515625 C 278.894531 189.515625 278.894531 189.515625 278.894531 189.519531 C 278.785156 190.390625 279.5625 196.664062 279.453125 198.21875 Z M 229.46875 35.878906 C 228.710938 35.726562 227.914062 35.902344 227.234375 36.269531 C 227.179688 36 227.121094 35.738281 227.0625 35.480469 L 206.5625 34.136719 C 206.492188 34.359375 206.414062 34.582031 206.351562 34.8125 C 204.382812 42.511719 205.1875 53.203125 206.507812 54.988281 C 208.453125 57.609375 211.363281 57.328125 211.363281 57.328125 L 210.449219 67.074219 L 230.417969 67.074219 C 230.417969 67.074219 230.035156 55.625 228.617188 44.707031 C 228.746094 44.644531 228.863281 44.570312 228.976562 44.480469 C 229.40625 44.117188 229.664062 43.59375 229.890625 43.078125 C 230.332031 42.09375 230.726562 41.085938 231.070312 40.058594 C 231.367188 39.175781 231.625 38.199219 231.285156 37.332031 C 230.992188 36.582031 230.261719 36.035156 229.46875 35.878906 Z M 157.984375 70.851562 L 154.535156 40.890625 C 155.484375 39.125 156.285156 37.363281 156.148438 36.671875 C 155.921875 35.539062 156.566406 32.476562 156.523438 30 C 156.539062 29.664062 156.542969 29.335938 156.527344 29.003906 C 156.527344 29.003906 156.78125 27.167969 155.203125 26.335938 C 155.164062 26.316406 155.113281 26.304688 155.070312 26.289062 C 154.015625 25.527344 152.757812 25.886719 151.71875 25.863281 C 150.328125 25.828125 150.300781 23.101562 149.003906 22.769531 C 147.714844 22.433594 145.984375 23.195312 144.214844 24.601562 C 142.441406 26.007812 141.09375 25.328125 139.3125 25.746094 C 137.53125 26.160156 137.328125 30.625 136.148438 31.480469 C 134.96875 32.332031 135.734375 34.554688 136.949219 36.921875 C 138.164062 39.292969 142.5 41.917969 142.5 41.917969 L 143.027344 42.117188 L 140.300781 79.226562 C 140.257812 79.574219 140.226562 79.933594 140.226562 80.292969 C 140.226562 84.574219 143.554688 88.117188 147.828125 88.390625 L 170.703125 89.84375 L 167.617188 69.597656 Z M 92.714844 39.695312 L 92.714844 362.90625 C 92.714844 362.90625 -0.480469 363.46875 0.519531 364.46875 C 0.519531 364.46875 11.234375 321.046875 24.257812 289.195312 C 39.644531 251.542969 70.957031 231.921875 51.320312 192.148438 C 31.683594 152.375 5.679688 77.347656 92.714844 39.695312"/></g><path fill="#F25625" d="M 76.582031 102.695312 L 72.945312 102.695312 C 59.410156 99.875 47.207031 96.058594 37.347656 91.511719 C 37.25 91.753906 37.148438 91.996094 37.054688 92.242188 C 46.09375 96.402344 57.082031 99.957031 69.242188 102.695312 L 32.960938 102.695312 L 32.960938 159.570312 L 65.101562 159.570312 C 60.074219 164.949219 55.644531 170.414062 53.144531 175.886719 C 50.660156 181.320312 50.070312 186.84375 51.371094 192.355469 C 52.820312 195.304688 53.988281 198.144531 54.90625 200.890625 C 61.023438 211.253906 73.691406 221.28125 92.707031 230.824219 L 92.707031 229.921875 C 71.320312 219.074219 57.78125 207.394531 53.242188 195.726562 C 50.710938 189.214844 50.914062 182.652344 53.855469 176.214844 C 56.398438 170.65625 60.992188 165.074219 66.171875 159.570312 L 76.582031 159.570312 L 76.582031 149 C 81.535156 144.023438 86.433594 138.925781 90.105469 133.851562 C 91.050781 132.542969 91.910156 131.230469 92.707031 129.921875 L 92.707031 128.386719 C 91.742188 130.058594 90.675781 131.730469 89.46875 133.386719 C 85.96875 138.230469 81.320312 143.105469 76.582031 147.882812 L 76.582031 104.214844 C 81.800781 105.214844 87.191406 106.066406 92.707031 106.753906 L 92.707031 105.964844 C 87.1875 105.273438 81.796875 104.421875 76.582031 103.417969 Z M 256.394531 349.925781 L 255.613281 346.519531 C 255.339844 345.316406 254.183594 344.34375 253.035156 344.34375 L 252.742188 344.34375 C 252.742188 344.34375 252.898438 342.871094 253.125 340.136719 C 254.621094 322.109375 259.148438 248.613281 241.621094 172.125 C 240.34375 166.542969 240.054688 161.4375 240.375 156.421875 C 240.367188 156.488281 240.363281 156.554688 240.359375 156.617188 L 262.925781 156.617188 C 262.863281 156.109375 262.796875 155.59375 262.730469 155.070312 L 240.472656 155.066406 C 241.105469 147.625 243.003906 140.304688 244.9375 131.816406 C 246.453125 125.179688 247.742188 117.683594 248.085938 110.4375 L 233.363281 97.089844 C 233.363281 97.089844 234.699219 78.566406 239.3125 66.007812 C 239.617188 65.179688 239.066406 64.324219 238.203125 64.261719 L 232.890625 63.882812 C 232.390625 63.84375 231.894531 64.085938 231.613281 64.519531 C 223.898438 76.46875 221.742188 94.914062 221.742188 94.914062 L 200.390625 93.210938 C 200.390625 93.210938 202.457031 75.308594 207.296875 65.304688 C 207.835938 64.191406 207.097656 62.949219 205.878906 62.949219 L 200.632812 62.949219 C 200.082031 62.949219 199.554688 63.25 199.261719 63.726562 C 193.820312 72.628906 190.710938 79.738281 190.183594 93.835938 L 185.53125 96.457031 L 182.957031 155.058594 L 144.683594 155.054688 L 144.683594 156.617188 L 182.886719 156.617188 L 182.910156 156.035156 L 174.859375 339.3125 L 184.046875 339.5 L 183.847656 344.339844 L 182.96875 344.339844 C 182.015625 344.339844 181.246094 345.121094 181.214844 346.117188 L 181.097656 349.925781 C 181.097656 349.925781 168.425781 351.148438 168.648438 362.667969 L 198.769531 362.667969 C 198.769531 362.667969 200.898438 351.652344 198.261719 345.617188 C 197.925781 344.847656 197.203125 344.34375 196.398438 344.34375 L 197.085938 344.34375 L 197.695312 339.78125 L 212.636719 198.558594 C 213.527344 198.554688 213.230469 198.554688 214.117188 198.546875 L 231.058594 339.765625 L 238.882812 339.894531 L 239.621094 344.34375 L 239.640625 344.34375 C 236.261719 349.925781 239.34375 362.667969 239.34375 362.667969 L 266.964844 362.667969 C 263.347656 352.675781 256.394531 349.925781 256.394531 349.925781 Z M 212.84375 45.933594 C 213.757812 45.765625 212.898438 43.289062 212.433594 42.125 C 212.335938 41.871094 211.988281 41.84375 211.847656 42.078125 C 211.246094 43.050781 210.058594 45.019531 209.996094 45.433594 C 209.914062 45.988281 211.644531 46.152344 212.84375 45.933594 Z M 315.367188 156.617188 C 315.367188 156.617188 315.035156 155.804688 314.71875 155.074219 L 305.578125 155.074219 L 305.578125 155.835938 L 304.007812 155.835938 L 304.007812 155.074219 L 277.953125 155.074219 C 277.988281 155.585938 278.023438 156.105469 278.054688 156.617188 Z M 57.070312 224.875 C 57.019531 225.140625 56.964844 225.410156 56.90625 225.671875 C 63.261719 229.007812 68.855469 232.589844 74.269531 236.078125 L 93.128906 248.195312 L 93.128906 247.261719 L 74.695312 235.417969 C 69.207031 231.886719 63.539062 228.253906 57.070312 224.875 Z M 59.957031 238.929688 C 56.816406 238.492188 53.691406 239.265625 51.453125 240.476562 C 51.230469 240.925781 51 241.378906 50.769531 241.828125 C 52.613281 240.515625 56 239.171875 59.847656 239.703125 C 62.160156 240.023438 63.460938 240.90625 64.703125 241.855469 L 93.128906 263.660156 L 93.128906 262.671875 L 65.183594 241.234375 C 63.90625 240.257812 62.457031 239.273438 59.957031 238.929688 Z M 74.550781 297.921875 C 74.640625 297.316406 74.742188 296.703125 74.839844 296.089844 C 75.730469 290.570312 76.648438 284.863281 73.550781 279.351562 C 71.027344 274.859375 65.878906 270.65625 60.90625 266.59375 C 58.6875 264.785156 56.394531 262.910156 54.371094 261.042969 C 49.5 256.542969 47.011719 252.460938 46.964844 248.902344 C 46.964844 248.824219 46.976562 248.742188 46.976562 248.660156 C 46.738281 249.066406 46.496094 249.476562 46.253906 249.886719 C 46.671875 253.449219 49.160156 257.296875 53.839844 261.617188 C 55.878906 263.5 58.179688 265.382812 60.40625 267.203125 C 65.328125 271.21875 70.410156 275.371094 72.867188 279.738281 C 75.828125 285.007812 74.929688 290.578125 74.066406 295.96875 C 73.964844 296.578125 73.867188 297.191406 73.773438 297.804688 C 72.886719 303.621094 72.429688 310.328125 78.199219 316.304688 C 81.480469 319.703125 86.757812 322.5625 93.128906 324.601562 L 93.128906 323.78125 C 86.992188 321.796875 81.921875 319.03125 78.765625 315.761719 C 73.242188 310.042969 73.652344 303.8125 74.550781 297.921875 Z M 84.226562 61.152344 C 84.214844 64.460938 87.5 67.714844 93.128906 70.097656 L 93.128906 69.246094 C 87.992188 67.015625 85.003906 64.082031 85.011719 61.152344 C 85.019531 58.234375 88.007812 55.316406 93.128906 53.09375 L 93.128906 52.242188 C 87.519531 54.613281 84.238281 57.855469 84.226562 61.152344 Z M 70.574219 62.1875 C 69.097656 58.976562 69.136719 56.050781 70.679688 53.734375 C 71.589844 52.359375 72.707031 51.007812 73.976562 49.675781 C 73.175781 50.171875 72.378906 50.671875 71.609375 51.179688 C 71.039062 51.878906 70.5 52.585938 70.023438 53.296875 C 68.324219 55.855469 68.265625 59.042969 69.859375 62.515625 C 72.746094 68.800781 81.3125 75.855469 93.128906 79.226562 L 93.128906 78.414062 C 81.660156 75.089844 73.363281 68.265625 70.574219 62.1875 Z M 48.292969 72.269531 C 48.128906 72.480469 47.96875 72.691406 47.808594 72.902344 C 49.410156 74.625 51.285156 76.253906 53.460938 77.777344 C 62.53125 84.125 77.230469 88.75 93.128906 90.3125 L 93.128906 89.523438 C 77.394531 87.96875 62.859375 83.398438 53.914062 77.132812 C 51.742188 75.613281 49.878906 73.988281 48.292969 72.269531 Z M 79.074219 185.496094 C 76.390625 195.675781 81.382812 206.273438 93.128906 215.382812 L 93.128906 214.386719 C 81.992188 205.570312 77.273438 195.414062 79.832031 185.695312 C 81.460938 179.519531 86.042969 173.402344 93.128906 167.765625 L 93.128906 166.773438 C 85.632812 172.625 80.777344 179.019531 79.074219 185.496094 Z M 49.671875 350.835938 L 47.394531 350.769531 C 38.980469 350.515625 29.144531 350.050781 19.949219 348.554688 C 14.46875 347.667969 9.710938 346.460938 5.921875 345.027344 C 5.851562 345.28125 5.777344 345.535156 5.710938 345.785156 C 9.546875 347.226562 14.332031 348.4375 19.820312 349.328125 C 29.0625 350.832031 38.933594 351.296875 47.371094 351.554688 L 49.648438 351.621094 C 55.929688 351.800781 62.421875 351.988281 68.246094 352.945312 C 78.242188 354.585938 84.683594 358.117188 90.316406 362.171875 C 90.824219 362.167969 91.269531 362.164062 91.640625 362.164062 C 85.71875 357.789062 79.050781 353.925781 68.371094 352.171875 C 62.5 351.203125 55.980469 351.015625 49.671875 350.835938 Z M 10.386719 357.015625 C 8.214844 355.996094 5.984375 354.964844 3.4375 354.078125 C 3.371094 354.332031 3.300781 354.589844 3.238281 354.839844 C 5.726562 355.707031 7.917969 356.726562 10.054688 357.722656 C 10.996094 358.164062 11.9375 358.605469 12.898438 359.03125 C 16.085938 360.445312 19.589844 361.730469 23.347656 362.882812 C 24.210938 362.867188 25.085938 362.855469 25.972656 362.839844 C 21.328125 361.523438 17.042969 360.011719 13.21875 358.316406 C 12.257812 357.890625 11.324219 357.453125 10.386719 357.015625 Z M 52.683594 339.894531 C 49.382812 339.582031 45.964844 339.261719 42.664062 338.875 C 31.917969 337.609375 24.585938 335.796875 20.238281 333.328125 C 15.183594 330.464844 13.933594 326.648438 16.300781 321.324219 C 16.746094 320.328125 17.277344 319.308594 17.789062 318.324219 C 19.488281 315.066406 21.246094 311.691406 20.335938 308.269531 C 20.175781 307.675781 19.679688 306.527344 18.160156 305.742188 C 18.070312 305.996094 17.984375 306.242188 17.894531 306.492188 C 19.066406 307.136719 19.453125 308.007812 19.578125 308.472656 C 20.410156 311.597656 18.796875 314.691406 17.089844 317.964844 C 16.574219 318.960938 16.039062 319.988281 15.585938 321.003906 C 13.058594 326.695312 14.453125 330.949219 19.847656 334.011719 C 24.289062 336.53125 31.71875 338.375 42.570312 339.652344 C 45.882812 340.042969 49.304688 340.363281 52.609375 340.679688 C 58.007812 341.1875 63.585938 341.714844 68.804688 342.539062 C 78.507812 344.078125 86.949219 346.695312 93.128906 349.949219 L 93.128906 349.082031 C 86.890625 345.863281 78.507812 343.28125 68.925781 341.765625 C 63.683594 340.9375 58.09375 340.40625 52.683594 339.894531 Z M 33.273438 320.675781 C 28.855469 313.769531 33.074219 306.847656 37.539062 299.519531 C 39.714844 295.949219 41.96875 292.253906 43.09375 288.589844 C 45.691406 280.148438 42.363281 271.714844 37.867188 263.453125 C 37.707031 263.710938 37.550781 263.964844 37.390625 264.222656 C 41.695312 272.214844 44.8125 280.335938 42.34375 288.359375 C 41.246094 291.929688 39.023438 295.582031 36.871094 299.113281 C 32.472656 306.324219 27.929688 313.78125 32.613281 321.101562 C 36.9375 327.859375 49.554688 333.941406 66.363281 337.371094 C 74.535156 339.039062 83.628906 340.101562 93.128906 340.539062 L 93.128906 339.753906 C 83.683594 339.316406 74.644531 338.261719 66.519531 336.605469 C 49.914062 333.214844 37.488281 327.261719 33.273438 320.675781 Z M 274.210938 64.988281 C 274.027344 64.871094 273.785156 64.925781 273.667969 65.105469 L 270.589844 69.871094 C 270.472656 70.050781 270.523438 70.292969 270.703125 70.414062 C 270.773438 70.457031 270.84375 70.476562 270.917969 70.476562 C 271.046875 70.476562 271.171875 70.410156 271.25 70.296875 L 274.328125 65.53125 C 274.445312 65.351562 274.390625 65.109375 274.210938 64.988281 Z M 286.359375 46.195312 C 286.425781 46.234375 286.5 46.253906 286.574219 46.253906 C 286.703125 46.253906 286.828125 46.195312 286.902344 46.078125 L 288.902344 42.988281 C 289.015625 42.804688 288.964844 42.558594 288.785156 42.441406 C 288.601562 42.328125 288.359375 42.378906 288.242188 42.558594 L 286.242188 45.652344 C 286.125 45.832031 286.179688 46.078125 286.359375 46.195312 Z M 265.867188 47.9375 L 270.636719 51.015625 C 270.699219 51.058594 270.773438 51.078125 270.847656 51.078125 C 270.972656 51.078125 271.101562 51.015625 271.175781 50.898438 C 271.296875 50.714844 271.238281 50.472656 271.058594 50.355469 L 266.292969 47.28125 C 266.109375 47.164062 265.867188 47.214844 265.75 47.398438 C 265.628906 47.578125 265.683594 47.820312 265.867188 47.9375 Z M 288.855469 61.84375 C 288.675781 61.726562 288.433594 61.777344 288.3125 61.960938 C 288.195312 62.140625 288.25 62.382812 288.429688 62.5 L 293.195312 65.578125 C 293.261719 65.621094 293.335938 65.640625 293.410156 65.640625 C 293.535156 65.640625 293.664062 65.578125 293.738281 65.460938 C 293.859375 65.277344 293.804688 65.035156 293.621094 64.917969 Z M 288.242188 70.296875 C 288.316406 70.410156 288.441406 70.476562 288.570312 70.476562 C 288.644531 70.476562 288.71875 70.457031 288.785156 70.414062 C 288.964844 70.292969 289.015625 70.050781 288.902344 69.871094 L 285.820312 65.105469 C 285.707031 64.925781 285.460938 64.875 285.277344 64.988281 C 285.097656 65.109375 285.042969 65.351562 285.160156 65.53125 Z M 272.585938 46.078125 C 272.660156 46.195312 272.785156 46.253906 272.914062 46.253906 C 272.988281 46.253906 273.0625 46.234375 273.128906 46.195312 C 273.3125 46.078125 273.363281 45.832031 273.246094 45.652344 L 271.25 42.558594 C 271.132812 42.378906 270.886719 42.328125 270.703125 42.441406 C 270.523438 42.558594 270.472656 42.804688 270.589844 42.988281 Z M 288.3125 50.898438 C 288.390625 51.015625 288.515625 51.078125 288.644531 51.078125 C 288.714844 51.078125 288.789062 51.058594 288.855469 51.015625 L 293.621094 47.9375 C 293.804688 47.820312 293.859375 47.578125 293.738281 47.398438 C 293.621094 47.214844 293.378906 47.164062 293.195312 47.28125 L 288.429688 50.355469 C 288.25 50.472656 288.195312 50.714844 288.3125 50.898438 Z M 270.636719 61.84375 L 265.867188 64.917969 C 265.683594 65.035156 265.628906 65.277344 265.75 65.460938 C 265.824219 65.578125 265.953125 65.640625 266.082031 65.640625 C 266.152344 65.640625 266.226562 65.621094 266.292969 65.578125 L 271.058594 62.5 C 271.238281 62.382812 271.296875 62.140625 271.175781 61.960938 C 271.058594 61.777344 270.816406 61.726562 270.636719 61.84375 Z M 289.945312 56.425781 C 289.945312 56.644531 290.121094 56.820312 290.339844 56.820312 L 296.011719 56.820312 C 296.230469 56.820312 296.40625 56.644531 296.40625 56.425781 C 296.40625 56.210938 296.230469 56.035156 296.011719 56.035156 L 290.339844 56.035156 C 290.121094 56.035156 289.945312 56.210938 289.945312 56.425781 Z M 263.476562 56.820312 L 269.152344 56.820312 C 269.367188 56.820312 269.542969 56.644531 269.542969 56.425781 C 269.542969 56.210938 269.367188 56.035156 269.152344 56.035156 L 263.476562 56.035156 C 263.257812 56.035156 263.082031 56.210938 263.082031 56.425781 C 263.082031 56.644531 263.257812 56.820312 263.476562 56.820312 Z M 279.746094 73.074219 C 279.960938 73.074219 280.136719 72.898438 280.136719 72.683594 L 280.136719 67.015625 C 280.136719 66.796875 279.960938 66.621094 279.746094 66.621094 C 279.527344 66.621094 279.351562 66.796875 279.351562 67.015625 L 279.351562 72.683594 C 279.351562 72.898438 279.527344 73.074219 279.746094 73.074219 Z M 329.546875 292.210938 C 329.546875 290.152344 327.878906 288.480469 325.816406 288.480469 C 323.757812 288.480469 322.085938 290.152344 322.085938 292.210938 C 322.085938 294.269531 323.757812 295.9375 325.816406 295.9375 C 327.878906 295.9375 329.546875 294.269531 329.546875 292.210938 Z M 311.464844 292.210938 C 311.464844 290.152344 309.796875 288.480469 307.734375 288.480469 C 305.675781 288.480469 304.003906 290.152344 304.003906 292.210938 C 304.003906 294.269531 305.675781 295.9375 307.734375 295.9375 C 309.796875 295.9375 311.464844 294.269531 311.464844 292.210938 Z M 293.382812 292.210938 C 293.382812 290.152344 291.710938 288.480469 289.652344 288.480469 C 287.59375 288.480469 285.921875 290.152344 285.921875 292.210938 C 285.921875 294.269531 287.59375 295.9375 289.652344 295.9375 C 291.710938 295.9375 293.382812 294.269531 293.382812 292.210938 Z M 337.445312 305.921875 L 278.023438 305.921875 C 275.082031 305.921875 272.691406 303.539062 272.691406 300.59375 L 272.691406 283.824219 C 272.691406 280.882812 275.082031 278.496094 278.023438 278.496094 L 337.445312 278.496094 C 340.390625 278.496094 342.777344 280.882812 342.777344 283.824219 L 342.777344 300.59375 C 342.777344 303.539062 340.390625 305.921875 337.445312 305.921875 Z M 286.914062 328.335938 C 286.914062 331.519531 289.5 334.101562 292.683594 334.101562 C 295.871094 334.101562 298.453125 331.519531 298.453125 328.335938 C 298.453125 325.152344 295.871094 322.574219 292.683594 322.574219 C 289.5 322.574219 286.914062 325.152344 286.914062 328.335938 Z M 272.691406 315.742188 L 310.769531 315.742188 L 310.769531 343.171875 L 272.691406 343.171875 Z M 349.429688 331.867188 L 353.839844 331.867188 L 353.839844 330.296875 L 349.429688 330.296875 Z M 349.429688 327.550781 L 349.429688 329.121094 L 353.839844 329.121094 L 353.839844 327.550781 Z M 339 331.867188 L 343.410156 331.867188 L 343.410156 330.296875 L 339 330.296875 Z M 339 329.121094 L 343.410156 329.121094 L 343.410156 327.550781 L 339 327.550781 Z M 328.570312 331.867188 L 332.984375 331.867188 L 332.984375 330.296875 L 328.570312 330.296875 Z M 328.570312 329.121094 L 332.984375 329.121094 L 332.984375 327.550781 L 328.570312 327.550781 Z M 122.90625 37.332031 C 122.90625 37.332031 121.75 36.988281 121.347656 36.851562 L 121.324219 155.050781 L 117.015625 155.050781 L 117.015625 116.160156 L 116.921875 116.160156 L 116.921875 111.503906 L 121.195312 111.503906 L 121.195312 106.84375 L 117.015625 106.84375 L 117.015625 92.378906 L 116.921875 92.378906 L 116.921875 87.726562 L 121.195312 87.726562 L 121.195312 83.070312 L 117.015625 83.070312 L 117.019531 68.601562 L 116.921875 68.601562 L 116.921875 63.945312 L 121.195312 63.945312 L 121.195312 59.289062 L 117.019531 59.289062 L 117.019531 35.875 L 115.476562 35.640625 L 115.449219 156.617188 L 130.40625 156.617188 L 130.40625 155.050781 L 122.894531 155.050781 Z M 142.371094 158.820312 C 141.636719 158.820312 141.035156 159.359375 140.921875 160.066406 C 140.910156 160.140625 140.898438 160.21875 140.898438 160.296875 C 140.898438 160.394531 140.90625 160.492188 140.929688 160.585938 C 140.9375 160.625 140.953125 160.667969 140.964844 160.707031 C 140.976562 160.757812 140.988281 160.808594 141.011719 160.855469 C 141.035156 160.90625 141.0625 160.960938 141.089844 161.011719 C 141.105469 161.039062 141.121094 161.066406 141.136719 161.09375 C 141.175781 161.15625 141.222656 161.214844 141.273438 161.269531 C 141.285156 161.28125 141.292969 161.292969 141.300781 161.304688 C 141.359375 161.363281 141.429688 161.421875 141.496094 161.472656 C 141.496094 161.476562 141.5 161.476562 141.5 161.480469 C 141.71875 161.636719 141.984375 161.738281 142.269531 161.757812 C 142.304688 161.757812 142.335938 161.769531 142.371094 161.769531 C 142.40625 161.769531 142.4375 161.757812 142.472656 161.757812 C 142.757812 161.738281 143.023438 161.636719 143.242188 161.480469 C 143.242188 161.480469 143.242188 161.476562 143.246094 161.476562 C 143.316406 161.421875 143.378906 161.363281 143.441406 161.304688 C 143.449219 161.292969 143.460938 161.28125 143.46875 161.273438 C 143.519531 161.214844 143.566406 161.15625 143.609375 161.09375 C 143.625 161.066406 143.636719 161.039062 143.652344 161.015625 C 143.683594 160.960938 143.710938 160.910156 143.734375 160.855469 C 143.753906 160.808594 143.765625 160.753906 143.78125 160.703125 C 143.792969 160.664062 143.808594 160.625 143.816406 160.585938 C 143.835938 160.492188 143.84375 160.394531 143.84375 160.296875 C 143.84375 160.21875 143.832031 160.140625 143.820312 160.066406 C 143.710938 159.359375 143.105469 158.820312 142.371094 158.820312 Z M 137.546875 158.820312 C 136.8125 158.820312 136.207031 159.363281 136.09375 160.066406 C 136.082031 160.140625 136.070312 160.21875 136.070312 160.296875 C 136.070312 160.394531 136.082031 160.492188 136.101562 160.585938 C 136.109375 160.625 136.125 160.664062 136.136719 160.703125 C 136.152344 160.753906 136.164062 160.804688 136.183594 160.851562 C 136.207031 160.90625 136.234375 160.957031 136.265625 161.007812 C 136.28125 161.035156 136.292969 161.0625 136.308594 161.089844 C 136.351562 161.152344 136.398438 161.210938 136.445312 161.261719 C 136.457031 161.273438 136.464844 161.289062 136.476562 161.300781 C 136.535156 161.363281 136.597656 161.417969 136.664062 161.46875 C 136.667969 161.46875 136.667969 161.472656 136.671875 161.476562 C 136.886719 161.632812 137.152344 161.734375 137.433594 161.757812 C 137.472656 161.757812 137.507812 161.769531 137.546875 161.769531 C 137.582031 161.769531 137.617188 161.757812 137.65625 161.757812 C 137.941406 161.734375 138.203125 161.632812 138.417969 161.476562 C 138.421875 161.472656 138.425781 161.46875 138.429688 161.46875 C 138.496094 161.417969 138.558594 161.363281 138.617188 161.300781 C 138.628906 161.289062 138.636719 161.277344 138.648438 161.265625 C 138.699219 161.210938 138.742188 161.152344 138.78125 161.089844 C 138.800781 161.0625 138.8125 161.035156 138.828125 161.007812 C 138.859375 160.957031 138.886719 160.90625 138.910156 160.851562 C 138.929688 160.804688 138.941406 160.75 138.953125 160.703125 C 138.964844 160.664062 138.984375 160.625 138.988281 160.585938 C 139.011719 160.492188 139.019531 160.394531 139.019531 160.296875 C 139.019531 159.480469 138.359375 158.820312 137.546875 158.820312 Z M 134.171875 160.066406 C 134.183594 160.140625 134.191406 160.21875 134.191406 160.296875 C 134.191406 160.394531 134.183594 160.492188 134.167969 160.582031 C 134.15625 160.625 134.144531 160.664062 134.128906 160.703125 C 134.117188 160.75 134.105469 160.804688 134.085938 160.851562 C 134.0625 160.902344 134.03125 160.953125 134.003906 161.003906 C 133.988281 161.03125 133.976562 161.0625 133.957031 161.089844 C 133.921875 161.148438 133.875 161.203125 133.828125 161.257812 C 133.816406 161.273438 133.804688 161.285156 133.792969 161.296875 C 133.734375 161.359375 133.675781 161.410156 133.609375 161.460938 C 133.605469 161.464844 133.601562 161.46875 133.597656 161.472656 C 133.382812 161.632812 133.121094 161.734375 132.839844 161.757812 C 132.800781 161.757812 132.761719 161.769531 132.722656 161.769531 C 132.679688 161.769531 132.640625 161.757812 132.597656 161.757812 C 132.320312 161.734375 132.058594 161.632812 131.84375 161.472656 C 131.839844 161.46875 131.835938 161.464844 131.832031 161.460938 C 131.765625 161.410156 131.703125 161.359375 131.644531 161.296875 C 131.632812 161.285156 131.625 161.273438 131.613281 161.257812 C 131.566406 161.203125 131.519531 161.148438 131.480469 161.089844 C 131.464844 161.0625 131.449219 161.027344 131.4375 161 C 131.40625 160.953125 131.378906 160.902344 131.355469 160.851562 C 131.335938 160.800781 131.324219 160.75 131.308594 160.699219 C 131.296875 160.660156 131.285156 160.625 131.273438 160.585938 C 131.257812 160.492188 131.246094 160.394531 131.246094 160.296875 C 131.246094 160.21875 131.257812 160.140625 131.269531 160.066406 C 131.378906 159.363281 131.984375 158.820312 132.722656 158.820312 C 133.457031 158.820312 134.0625 159.363281 134.171875 160.066406"/><path fill="#F7E2C4" d="M 53.570312 132.6875 L 49.46875 133.785156 L 54.902344 122.683594 L 54.027344 129.496094 L 58.128906 128.398438 L 52.691406 139.503906 Z M 28.03125 163.113281 C 28.03125 164.046875 27.273438 164.804688 26.339844 164.804688 C 25.40625 164.804688 24.648438 164.046875 24.648438 163.113281 C 24.648438 162.175781 25.40625 161.421875 26.339844 161.421875 C 27.273438 161.421875 28.03125 162.175781 28.03125 163.113281 Z M 28.03125 96.09375 C 28.03125 97.023438 27.273438 97.785156 26.339844 97.785156 C 25.40625 97.785156 24.648438 97.023438 24.648438 96.09375 C 24.648438 95.15625 25.40625 94.402344 26.339844 94.402344 C 27.273438 94.402344 28.03125 95.15625 28.03125 96.09375 Z M 82.039062 163.113281 C 82.039062 164.046875 81.28125 164.804688 80.347656 164.804688 C 79.414062 164.804688 78.65625 164.046875 78.65625 163.113281 C 78.65625 162.175781 79.414062 161.421875 80.347656 161.421875 C 81.28125 161.421875 82.039062 162.175781 82.039062 163.113281 Z M 82.039062 96.09375 C 82.039062 97.023438 81.28125 97.785156 80.347656 97.785156 C 79.414062 97.785156 78.65625 97.023438 78.65625 96.09375 C 78.65625 95.15625 79.414062 94.402344 80.347656 94.402344 C 81.28125 94.402344 82.039062 95.15625 82.039062 96.09375 Z M 32.304688 102.054688 L 74.382812 102.054688 L 74.382812 157.148438 L 32.304688 157.148438 Z M 31.519531 157.9375 L 75.164062 157.9375 L 75.164062 101.269531 L 31.519531 101.269531 Z M 265.707031 359.914062 C 265.707031 360.347656 265.359375 360.699219 264.925781 360.699219 L 238.40625 360.699219 C 237.972656 360.699219 237.625 360.347656 237.625 359.914062 C 237.625 359.480469 237.972656 359.128906 238.40625 359.128906 L 264.925781 359.128906 C 265.359375 359.128906 265.707031 359.480469 265.707031 359.914062 Z M 199.585938 359.914062 C 199.585938 360.347656 199.234375 360.699219 198.800781 360.699219 L 168.570312 360.699219 C 168.136719 360.699219 167.785156 360.347656 167.785156 359.914062 C 167.785156 359.480469 168.136719 359.128906 168.570312 359.128906 L 198.800781 359.128906 C 199.234375 359.128906 199.585938 359.480469 199.585938 359.914062 Z M 195.550781 106.566406 L 224.554688 108.402344 L 222.449219 132.421875 C 218.445312 133.933594 208.402344 137.519531 206.5 137.300781 C 203.996094 137.023438 194.390625 129.410156 194.074219 128.324219 C 193.8125 127.40625 194.828125 114.65625 195.550781 106.566406 Z M 206.414062 138.078125 C 206.484375 138.089844 206.558594 138.089844 206.644531 138.089844 C 209.695312 138.089844 222.402344 133.28125 222.957031 133.066406 L 223.1875 132.980469 L 225.410156 107.667969 L 194.839844 105.734375 L 194.804688 106.113281 C 194.609375 108.269531 192.925781 127.179688 193.320312 128.542969 C 193.78125 130.121094 203.863281 137.796875 206.414062 138.078125 Z M 234.21875 161.308594 L 239.792969 161.511719 L 240.660156 161.542969 L 240.660156 166.441406 L 240.074219 166.417969 L 230.246094 166.058594 L 230.015625 163.023438 L 229.871094 161.148438 Z M 240.820312 171.316406 L 211.167969 174.382812 L 181.078125 187.828125 L 180.226562 207.195312 L 169.847656 201.71875 C 168.761719 201.144531 168.183594 199.921875 168.429688 198.71875 L 170.058594 190.710938 L 168.320312 190.046875 C 167.089844 189.570312 166.523438 188.148438 167.09375 186.957031 L 171.183594 178.429688 L 172.519531 178.601562 L 172.996094 176.238281 C 173.179688 175.351562 173.777344 174.609375 174.601562 174.25 L 181.8125 171.101562 L 240.105469 166.71875 L 240.71875 166.671875 C 241.125 166.640625 241.488281 166.929688 241.546875 167.332031 L 241.988281 170.386719 C 242.050781 170.820312 241.738281 171.222656 241.300781 171.269531 Z M 182.324219 159.417969 L 190.285156 159.707031 L 189.914062 164.589844 L 182.324219 164.316406 Z M 170.703125 89.84375 L 167.617188 69.597656 L 198.207031 65.613281 C 198.007812 65.910156 197.628906 66.605469 197.628906 66.46875 C 197.351562 66.945312 197.078125 67.414062 196.8125 67.882812 C 196.707031 68.074219 196.609375 68.261719 196.503906 68.449219 C 196.351562 68.726562 196.195312 69.007812 196.046875 69.285156 C 195.917969 69.523438 195.796875 69.761719 195.667969 70.003906 C 195.550781 70.222656 195.433594 70.445312 195.324219 70.667969 C 195.1875 70.941406 195.054688 71.210938 194.921875 71.484375 C 194.832031 71.671875 194.738281 71.859375 194.648438 72.050781 C 194.507812 72.347656 194.371094 72.648438 194.238281 72.949219 C 194.164062 73.109375 194.09375 73.269531 194.023438 73.429688 C 193.878906 73.757812 193.738281 74.085938 193.601562 74.417969 C 193.550781 74.546875 193.496094 74.679688 193.445312 74.808594 C 193.296875 75.171875 193.15625 75.539062 193.019531 75.90625 C 192.984375 75.992188 192.957031 76.085938 192.925781 76.171875 C 192.773438 76.585938 192.621094 77 192.484375 77.425781 C 192.480469 77.4375 192.476562 77.449219 192.472656 77.457031 C 191.183594 81.335938 190.328125 85.664062 189.914062 91.066406 C 189.832031 92.210938 189.753906 93.386719 189.707031 94.632812 L 188.984375 95.042969 C 189.03125 93.683594 189.105469 92.339844 189.195312 91.019531 Z M 234.230469 86.445312 C 234.539062 84.371094 234.917969 82.136719 235.363281 79.855469 C 235.363281 79.851562 235.367188 79.851562 235.367188 79.847656 C 235.550781 78.898438 235.75 77.941406 235.964844 76.980469 C 236.167969 76.054688 236.386719 75.128906 236.613281 74.210938 C 236.632812 74.136719 236.648438 74.0625 236.671875 73.992188 C 236.890625 73.121094 237.121094 72.253906 237.363281 71.402344 C 237.382812 71.332031 237.402344 71.253906 237.425781 71.1875 C 237.683594 70.28125 237.957031 69.390625 238.246094 68.523438 C 238.402344 68.042969 238.570312 67.574219 238.738281 67.109375 C 245.550781 67.476562 254.472656 68.84375 257.042969 73.394531 C 261.371094 81.042969 268.21875 108.261719 268.21875 108.261719 L 248.441406 113.65625 L 246.792969 110.488281 L 232.890625 97.890625 C 232.890625 97.890625 233.246094 92.953125 234.226562 86.453125 L 234.21875 86.445312 Z M 192.996094 164.703125 L 193.367188 159.820312 L 195.027344 159.882812 L 226.769531 161.039062 L 227.144531 165.945312 Z M 221.265625 95.714844 L 199.917969 94.011719 C 199.917969 94.011719 200.015625 93.160156 200.21875 91.722656 C 200.222656 91.71875 200.222656 91.71875 200.222656 91.714844 C 200.453125 90.058594 200.832031 87.621094 201.359375 84.820312 C 201.359375 84.8125 201.363281 84.808594 201.363281 84.804688 C 202.429688 79.15625 204.113281 72.039062 206.503906 66.792969 L 203.683594 65.578125 L 206.289062 60.269531 L 211.027344 59.417969 L 211.972656 65.042969 C 212.515625 65.066406 213.074219 65.089844 213.640625 65.121094 L 216.9375 60.269531 L 231.445312 57.609375 L 234.964844 63.746094 L 231.445312 65.886719 L 230.058594 67.121094 C 223.226562 79.027344 221.265625 95.714844 221.265625 95.714844 Z M 304.320312 221.421875 L 304.320312 227.988281 L 238.308594 227.988281 L 238.308594 221.421875 L 242.011719 221.421875 L 246.003906 205.363281 L 296.628906 205.363281 L 300.617188 221.421875 Z M 294.449219 250.863281 L 279.722656 250.863281 L 282.460938 230.644531 L 297.753906 230.644531 Z M 298.214844 229.855469 L 282.117188 229.855469 C 281.921875 229.855469 281.753906 230.003906 281.730469 230.199219 L 278.882812 251.207031 C 278.867188 251.316406 278.898438 251.429688 278.972656 251.515625 C 279.046875 251.601562 279.15625 251.648438 279.269531 251.648438 L 294.78125 251.648438 C 294.972656 251.648438 295.140625 251.511719 295.167969 251.320312 L 298.601562 230.3125 C 298.617188 230.199219 298.585938 230.085938 298.511719 229.996094 C 298.441406 229.910156 298.328125 229.855469 298.214844 229.855469 Z M 120.71875 116.957031 L 116.449219 116.957031 L 116.449219 107.648438 L 120.71875 107.648438 Z M 126.425781 104.910156 L 110.742188 104.910156 L 110.742188 120.585938 L 126.425781 120.585938 Z M 120.71875 93.183594 L 116.449219 93.183594 L 116.449219 83.871094 L 120.71875 83.871094 Z M 126.425781 81.132812 L 110.742188 81.132812 L 110.742188 96.808594 L 126.425781 96.808594 Z M 120.71875 69.402344 L 116.449219 69.402344 L 116.449219 60.089844 L 120.71875 60.089844 Z M 126.425781 57.351562 L 110.742188 57.351562 L 110.742188 73.027344 L 126.425781 73.027344 Z M 143.269531 161.097656 C 143.269531 161.1875 143.261719 161.277344 143.242188 161.363281 C 143.242188 161.378906 143.234375 161.394531 143.230469 161.40625 C 143.214844 161.480469 143.195312 161.550781 143.167969 161.617188 C 143.15625 161.644531 143.136719 161.667969 143.125 161.695312 C 143.101562 161.742188 143.078125 161.792969 143.046875 161.839844 C 143.007812 161.898438 142.964844 161.957031 142.917969 162.007812 C 142.910156 162.015625 142.902344 162.027344 142.894531 162.035156 C 142.890625 162.035156 142.890625 162.035156 142.890625 162.035156 C 142.847656 162.082031 142.792969 162.128906 142.738281 162.171875 C 142.730469 162.179688 142.71875 162.1875 142.710938 162.199219 C 142.621094 162.261719 142.515625 162.316406 142.410156 162.359375 C 142.382812 162.367188 142.359375 162.378906 142.332031 162.382812 C 142.222656 162.421875 142.109375 162.453125 141.988281 162.457031 L 141.804688 162.457031 C 141.089844 162.410156 140.523438 161.820312 140.523438 161.097656 C 140.523438 161.023438 140.535156 160.953125 140.546875 160.882812 C 140.648438 160.230469 141.214844 159.722656 141.898438 159.722656 C 142.582031 159.722656 143.148438 160.230469 143.25 160.882812 C 143.261719 160.953125 143.269531 161.023438 143.269531 161.097656 Z M 137.171875 162.457031 L 136.972656 162.457031 C 136.261719 162.40625 135.699219 161.820312 135.699219 161.097656 C 135.699219 161.023438 135.710938 160.953125 135.722656 160.882812 C 135.824219 160.230469 136.386719 159.722656 137.070312 159.722656 C 137.757812 159.722656 138.320312 160.230469 138.421875 160.882812 C 138.433594 160.953125 138.445312 161.023438 138.445312 161.097656 C 138.445312 161.820312 137.882812 162.40625 137.171875 162.457031 Z M 132.355469 162.457031 L 132.136719 162.457031 C 132.015625 162.445312 131.90625 162.417969 131.796875 162.382812 C 131.773438 162.375 131.746094 162.363281 131.722656 162.351562 C 131.617188 162.308594 131.515625 162.257812 131.429688 162.191406 C 131.402344 162.175781 131.382812 162.152344 131.359375 162.128906 C 131.320312 162.097656 131.28125 162.066406 131.246094 162.03125 C 131.238281 162.019531 131.226562 162.003906 131.214844 161.992188 C 131.199219 161.976562 131.1875 161.957031 131.171875 161.941406 C 131.0625 161.804688 130.984375 161.648438 130.933594 161.476562 C 130.933594 161.476562 130.933594 161.472656 130.933594 161.472656 C 130.929688 161.464844 130.929688 161.457031 130.925781 161.453125 C 130.917969 161.421875 130.90625 161.394531 130.902344 161.363281 C 130.882812 161.277344 130.875 161.1875 130.875 161.097656 C 130.875 161.023438 130.882812 160.953125 130.894531 160.882812 C 130.996094 160.230469 131.5625 159.722656 132.246094 159.722656 C 132.933594 159.722656 133.492188 160.230469 133.597656 160.882812 C 133.609375 160.953125 133.621094 161.023438 133.621094 161.097656 C 133.621094 161.816406 133.0625 162.398438 132.355469 162.457031 Z M 145.355469 147.175781 L 128.789062 147.175781 C 127.484375 147.175781 126.425781 148.234375 126.425781 149.535156 L 126.425781 169.914062 C 126.425781 171.214844 127.484375 172.273438 128.789062 172.273438 L 145.355469 172.273438 C 146.65625 172.273438 147.714844 171.214844 147.714844 169.914062 L 147.714844 149.535156 C 147.714844 148.234375 146.65625 147.175781 145.355469 147.175781"/><path fill="#151E34" d="M 218.914062 114.457031 C 219.246094 113.378906 218.25 105.8125 216.417969 105.5625 C 214.589844 105.3125 211.507812 103.566406 210.261719 103.316406 C 209.015625 103.066406 205.453125 106.367188 205.453125 106.367188 C 205.453125 106.367188 206.433594 107.390625 206.351562 108.140625 C 206.265625 108.886719 204.273438 111.382812 203.6875 113.679688 C 203.105469 115.972656 206.683594 115.039062 207.847656 113.679688 C 209.015625 112.316406 210.179688 109.472656 210.179688 109.472656 C 210.179688 109.472656 210.179688 111.214844 209.261719 113.679688 C 208.347656 116.140625 209.34375 118.949219 210.84375 118.867188 C 212.339844 118.78125 212.175781 117.035156 213.089844 115.558594 C 214.003906 114.085938 213.757812 108.804688 213.757812 108.804688 C 213.757812 108.804688 214.839844 113.878906 216 114.957031 C 217.167969 116.039062 218.582031 115.539062 218.914062 114.457031 Z M 54.902344 122.683594 L 49.46875 133.785156 L 53.570312 132.6875 L 52.691406 139.503906 L 58.128906 128.398438 L 54.027344 129.496094 Z M 32.257812 157.136719 L 32.304688 157.136719 L 32.304688 157.148438 L 32.90625 157.148438 L 32.90625 157.136719 L 32.953125 157.136719 L 32.953125 102.652344 L 74.382812 102.652344 L 74.382812 102.648438 L 74.414062 102.648438 L 74.414062 101.953125 C 74.382812 101.984375 32.257812 102.019531 32.257812 102.019531 Z M 76.527344 159.527344 L 76.527344 102.652344 L 75.164062 102.652344 L 75.164062 101.269531 L 31.519531 101.269531 L 31.519531 157.9375 L 32.90625 157.9375 L 32.90625 159.527344 Z M 28.03125 96.09375 C 28.03125 95.15625 27.273438 94.402344 26.339844 94.402344 C 25.40625 94.402344 24.648438 95.15625 24.648438 96.09375 C 24.648438 97.023438 25.40625 97.785156 26.339844 97.785156 C 27.273438 97.785156 28.03125 97.023438 28.03125 96.09375 Z M 28.03125 163.113281 C 28.03125 162.175781 27.273438 161.421875 26.339844 161.421875 C 25.40625 161.421875 24.648438 162.175781 24.648438 163.113281 C 24.648438 164.046875 25.40625 164.804688 26.339844 164.804688 C 27.273438 164.804688 28.03125 164.046875 28.03125 163.113281 Z M 78.65625 163.113281 C 78.65625 164.046875 79.414062 164.804688 80.347656 164.804688 C 81.28125 164.804688 82.039062 164.046875 82.039062 163.113281 C 82.039062 162.175781 81.28125 161.421875 80.347656 161.421875 C 79.414062 161.421875 78.65625 162.175781 78.65625 163.113281 Z M 78.65625 96.09375 C 78.65625 97.023438 79.414062 97.785156 80.347656 97.785156 C 81.28125 97.785156 82.039062 97.023438 82.039062 96.09375 C 82.039062 95.15625 81.28125 94.402344 80.347656 94.402344 C 79.414062 94.402344 78.65625 95.15625 78.65625 96.09375 Z M 62.800781 321.371094 L 62.800781 172.007812 L 20.191406 172.007812 L 20.191406 87.195312 L 86.492188 87.195312 L 86.492188 172.007812 L 72.898438 172.007812 L 72.898438 311.28125 L 93.359375 311.28125 L 93.359375 312.851562 L 71.328125 312.851562 L 71.328125 172.007812 L 64.367188 172.007812 L 64.367188 319.800781 L 93.359375 319.800781 L 93.359375 321.371094 Z M 227.5625 161.0625 L 227.433594 159.417969 L 227.429688 159.359375 C 227.394531 158.925781 227.027344 158.597656 226.585938 158.636719 C 226.15625 158.667969 225.832031 159.046875 225.863281 159.476562 L 225.980469 161.007812 L 226.164062 163.390625 L 226.355469 165.917969 L 226.417969 166.738281 C 226.449219 167.148438 226.796875 167.460938 227.203125 167.460938 C 227.222656 167.460938 227.238281 167.460938 227.261719 167.460938 C 227.671875 167.429688 227.976562 167.085938 227.976562 166.679688 C 227.976562 166.660156 227.984375 166.636719 227.984375 166.621094 L 227.933594 165.976562 L 227.726562 163.265625 Z M 230.792969 162.90625 L 230.660156 161.179688 L 230.519531 159.359375 C 230.488281 158.925781 230.125 158.597656 229.675781 158.636719 C 229.265625 158.664062 228.964844 159.011719 228.964844 159.417969 C 228.960938 159.4375 228.953125 159.457031 228.957031 159.476562 L 229.082031 161.121094 L 229.234375 163.113281 L 229.457031 166.03125 L 229.503906 166.679688 L 229.507812 166.738281 C 229.539062 167.140625 229.871094 167.445312 230.261719 167.460938 C 230.273438 167.460938 230.28125 167.460938 230.292969 167.460938 C 230.3125 167.460938 230.328125 167.460938 230.351562 167.460938 C 230.367188 167.460938 230.382812 167.449219 230.398438 167.449219 C 230.804688 167.390625 231.105469 167.035156 231.074219 166.621094 L 231.035156 166.089844 Z M 179.441406 207.160156 C 179.421875 207.59375 179.761719 207.960938 180.191406 207.980469 C 180.203125 207.980469 180.214844 207.980469 180.226562 207.980469 C 180.644531 207.980469 180.992188 207.652344 181.011719 207.230469 L 181.628906 193.171875 C 181.628906 193.160156 181.628906 193.148438 181.632812 193.136719 L 181.878906 187.46875 L 182.363281 176.402344 C 182.386719 175.96875 182.050781 175.601562 181.617188 175.582031 C 181.617188 175.582031 181.617188 175.582031 181.613281 175.582031 C 181.179688 175.578125 180.816406 175.902344 180.792969 176.332031 L 180.195312 190.03125 L 172.445312 190.714844 L 170.828125 190.859375 L 173.527344 178.730469 L 173.824219 177.398438 C 173.917969 176.976562 173.652344 176.554688 173.230469 176.460938 C 173.136719 176.441406 173.042969 176.445312 172.953125 176.457031 C 172.636719 176.5 172.367188 176.726562 172.289062 177.058594 L 171.964844 178.527344 L 169.316406 190.425781 L 169.066406 191.542969 C 169.0625 191.554688 169.058594 191.570312 169.058594 191.585938 L 168.535156 193.941406 C 168.527344 193.960938 168.523438 193.976562 168.519531 194 L 167.667969 197.824219 C 167.574219 198.25 167.839844 198.667969 168.265625 198.761719 C 168.316406 198.773438 168.371094 198.761719 168.421875 198.761719 C 168.785156 198.769531 169.117188 198.535156 169.199219 198.167969 L 169.933594 194.871094 L 180.019531 193.976562 L 179.457031 206.789062 Z M 173.609375 89.945312 C 173.613281 89.976562 173.628906 90 173.636719 90.03125 C 173.722656 90.378906 174.027344 90.628906 174.386719 90.628906 C 174.417969 90.628906 174.453125 90.625 174.488281 90.625 C 174.78125 90.585938 175.007812 90.382812 175.109375 90.125 C 175.15625 90.007812 175.183594 89.878906 175.164062 89.746094 L 172.476562 68.960938 C 172.417969 68.53125 172.027344 68.226562 171.597656 68.285156 C 171.167969 68.339844 170.863281 68.734375 170.917969 69.164062 L 170.917969 69.167969 Z M 188.195312 90.960938 C 188.40625 91.273438 188.542969 91.460938 188.566406 91.496094 C 188.710938 91.679688 188.925781 91.78125 189.144531 91.796875 C 189.160156 91.796875 189.179688 91.808594 189.195312 91.808594 C 189.359375 91.808594 189.523438 91.753906 189.664062 91.648438 C 189.773438 91.570312 189.84375 91.464844 189.894531 91.355469 C 189.894531 91.351562 189.894531 91.347656 189.898438 91.34375 C 189.9375 91.257812 189.960938 91.167969 189.96875 91.070312 C 189.972656 90.980469 189.96875 90.886719 189.9375 90.800781 C 189.9375 90.796875 189.9375 90.792969 189.9375 90.792969 C 189.914062 90.707031 189.878906 90.625 189.824219 90.550781 C 189.816406 90.542969 189.601562 90.253906 189.289062 89.746094 C 188.554688 88.570312 187.25 86.179688 186.589844 83.199219 C 186.492188 82.777344 186.070312 82.515625 185.652344 82.605469 C 185.226562 82.699219 184.960938 83.117188 185.054688 83.542969 C 185.847656 87.121094 187.46875 89.851562 188.195312 90.960938 Z M 189.628906 157.980469 L 189.5 159.679688 L 189.125 164.5625 L 189.074219 165.238281 C 189.042969 165.671875 189.367188 166.046875 189.800781 166.082031 C 189.820312 166.082031 189.839844 166.085938 189.859375 166.085938 C 190.265625 166.085938 190.609375 165.769531 190.640625 165.359375 L 190.648438 165.300781 L 190.695312 164.621094 L 191.070312 159.734375 L 191.195312 158.097656 C 191.195312 158.078125 191.1875 158.0625 191.1875 158.039062 C 191.1875 157.636719 190.882812 157.289062 190.472656 157.257812 C 190.023438 157.222656 189.660156 157.546875 189.628906 157.980469 Z M 211.539062 168.085938 C 211.085938 168.058594 210.734375 168.390625 210.710938 168.824219 L 210.703125 168.929688 L 210.386719 174.335938 C 210.378906 174.46875 210.410156 174.585938 210.460938 174.699219 C 210.578125 174.957031 210.820312 175.148438 211.121094 175.164062 C 211.140625 175.167969 211.15625 175.167969 211.171875 175.167969 C 211.585938 175.167969 211.929688 174.847656 211.953125 174.429688 L 211.960938 174.300781 L 212.277344 168.914062 C 212.28125 168.878906 212.265625 168.847656 212.261719 168.8125 C 212.230469 168.425781 211.933594 168.109375 211.539062 168.085938 Z M 213.339844 160.589844 L 207.648438 160.488281 L 207.59375 163.363281 L 207.566406 165.136719 L 213.257812 165.234375 L 213.289062 163.648438 L 210.453125 163.648438 C 210.261719 163.648438 210.089844 163.570312 209.957031 163.457031 C 209.785156 163.3125 209.667969 163.105469 209.667969 162.863281 C 209.667969 162.429688 210.015625 162.078125 210.453125 162.078125 L 213.316406 162.078125 Z M 213.5625 166.8125 L 207.207031 166.699219 C 206.875 166.695312 206.566406 166.558594 206.332031 166.324219 C 206.105469 166.082031 205.984375 165.769531 205.988281 165.441406 L 205.992188 165.175781 L 206.027344 163.292969 L 206.078125 160.28125 L 206.082031 160.128906 C 206.089844 159.800781 206.222656 159.492188 206.460938 159.261719 C 206.699219 159.03125 207.003906 158.917969 207.34375 158.914062 L 213.699219 159.027344 C 214.03125 159.035156 214.339844 159.167969 214.570312 159.40625 C 214.800781 159.644531 214.921875 159.957031 214.917969 160.289062 L 214.910156 160.605469 L 214.859375 163.585938 L 214.824219 165.5 L 214.824219 165.597656 C 214.8125 166.273438 214.257812 166.8125 213.585938 166.8125 C 213.578125 166.8125 213.570312 166.8125 213.5625 166.8125 Z M 192.890625 166.082031 C 192.910156 166.082031 192.929688 166.085938 192.949219 166.085938 C 193.355469 166.085938 193.703125 165.769531 193.734375 165.359375 L 193.78125 164.730469 L 194.152344 159.847656 L 194.285156 158.097656 C 194.320312 157.667969 193.996094 157.289062 193.5625 157.257812 C 193.121094 157.222656 192.753906 157.546875 192.722656 157.980469 L 192.714844 158.039062 L 192.582031 159.789062 L 192.210938 164.675781 L 192.167969 165.238281 C 192.167969 165.261719 192.175781 165.28125 192.175781 165.300781 C 192.175781 165.707031 192.480469 166.050781 192.890625 166.082031 Z M 235.050781 166.925781 C 234.921875 166.507812 234.484375 166.277344 234.070312 166.40625 C 233.710938 166.511719 233.503906 166.855469 233.53125 167.214844 C 233.535156 167.269531 233.53125 167.324219 233.546875 167.382812 L 234.9375 171.925781 L 234.984375 172.070312 C 235.085938 172.410156 235.394531 172.628906 235.730469 172.628906 C 235.808594 172.628906 235.886719 172.617188 235.964844 172.59375 C 236.324219 172.484375 236.535156 172.128906 236.496094 171.765625 C 236.492188 171.714844 236.496094 171.664062 236.484375 171.617188 L 235.101562 167.09375 Z M 242.234375 98.582031 C 243.367188 102.035156 244.554688 105.386719 245.527344 108.078125 C 245.777344 108.757812 246.007812 109.390625 246.222656 109.976562 C 246.421875 110.507812 246.597656 110.984375 246.761719 111.421875 C 247.070312 112.25 247.316406 112.902344 247.480469 113.332031 C 247.621094 113.699219 247.707031 113.921875 247.710938 113.9375 C 247.832031 114.246094 248.128906 114.441406 248.441406 114.441406 C 248.539062 114.441406 248.636719 114.421875 248.726562 114.386719 C 248.753906 114.375 248.777344 114.351562 248.800781 114.339844 C 249.128906 114.167969 249.285156 113.804688 249.191406 113.449219 C 249.183594 113.425781 249.1875 113.398438 249.175781 113.371094 C 249.167969 113.347656 248.941406 112.757812 248.558594 111.746094 L 267.195312 105.585938 L 267.5 105.484375 L 267.546875 105.464844 C 267.960938 105.332031 268.183594 104.886719 268.046875 104.476562 C 267.917969 104.082031 267.5 103.867188 267.101562 103.972656 C 267.085938 103.976562 267.070312 103.972656 267.054688 103.976562 L 266.632812 104.117188 L 248.011719 110.277344 C 247.769531 109.628906 247.496094 108.886719 247.203125 108.085938 C 245.742188 104.078125 243.738281 98.386719 242.152344 93.121094 C 241.046875 89.453125 241.203125 86.664062 241.773438 84.636719 C 242.578125 81.777344 244.203125 80.433594 244.324219 80.339844 C 244.664062 80.070312 244.726562 79.582031 244.460938 79.242188 C 244.199219 78.898438 243.703125 78.835938 243.359375 79.097656 C 243.210938 79.214844 240.882812 81.078125 240.054688 85.046875 C 239.605469 87.183594 239.589844 89.933594 240.585938 93.347656 C 240.609375 93.425781 240.625 93.5 240.648438 93.574219 C 240.972656 94.652344 241.316406 95.746094 241.667969 96.839844 C 238.796875 96.011719 238.308594 94.171875 238.285156 94.066406 C 238.238281 93.859375 238.117188 93.695312 237.957031 93.589844 C 237.785156 93.472656 237.570312 93.421875 237.355469 93.46875 C 236.929688 93.558594 236.660156 93.972656 236.75 94.398438 C 236.777344 94.515625 237.300781 96.765625 240.261719 98.003906 C 240.828125 98.238281 241.472656 98.441406 242.234375 98.582031 Z M 224.761719 69.027344 L 223.304688 67.074219 L 222.34375 65.789062 L 219.894531 62.503906 C 219.753906 62.3125 219.535156 62.199219 219.296875 62.1875 C 219.0625 62.179688 218.832031 62.277344 218.675781 62.460938 L 216.230469 65.273438 L 214.664062 67.074219 L 212.621094 69.425781 L 212.140625 69.980469 L 211.683594 69.023438 L 210.753906 67.074219 L 210.5 66.539062 L 209.75 64.96875 L 208.683594 62.730469 C 208.675781 62.714844 208.667969 62.699219 208.660156 62.683594 L 207.902344 61.09375 C 207.714844 60.703125 207.25 60.535156 206.855469 60.722656 C 206.464844 60.910156 206.300781 61.375 206.484375 61.765625 L 207.003906 62.855469 L 205.921875 63.832031 L 204.707031 64.929688 L 204.636719 64.996094 C 204.371094 65.234375 204.320312 65.609375 204.46875 65.914062 C 204.5 65.980469 204.53125 66.046875 204.582031 66.101562 C 204.796875 66.339844 205.121094 66.414062 205.40625 66.320312 C 205.507812 66.285156 205.605469 66.234375 205.691406 66.15625 L 206.957031 65.011719 L 207.054688 64.921875 L 207.707031 64.332031 L 207.996094 64.929688 L 209.496094 68.082031 L 211.238281 71.738281 C 211.351562 71.972656 211.578125 72.140625 211.839844 72.175781 C 211.875 72.183594 211.910156 72.183594 211.945312 72.183594 C 212.171875 72.183594 212.386719 72.085938 212.539062 71.914062 L 214.132812 70.078125 L 216.746094 67.074219 L 218.183594 65.417969 L 219.21875 64.222656 L 220.238281 65.589844 L 221.347656 67.074219 L 223.925781 70.535156 C 224.167969 70.859375 224.617188 70.949219 224.964844 70.738281 L 228.15625 68.800781 L 229.601562 67.921875 L 230.527344 67.363281 L 231.046875 67.046875 L 231.140625 66.988281 L 234.675781 64.84375 L 235.375 64.417969 C 235.742188 64.195312 235.863281 63.714844 235.636719 63.34375 C 235.417969 62.980469 234.949219 62.863281 234.582031 63.074219 C 234.570312 63.074219 234.566406 63.074219 234.558594 63.078125 L 230.359375 65.628906 L 228.757812 66.597656 L 227.976562 67.074219 Z M 189.160156 266.710938 C 189.453125 266.710938 189.734375 266.546875 189.871094 266.265625 C 190.054688 265.875 189.894531 265.40625 189.503906 265.214844 C 185.558594 263.3125 182.246094 260.136719 180.175781 256.273438 C 179.96875 255.894531 179.492188 255.75 179.113281 255.957031 C 178.730469 256.160156 178.585938 256.632812 178.792969 257.015625 C 181.015625 261.167969 184.578125 264.582031 188.820312 266.628906 C 188.929688 266.683594 189.046875 266.710938 189.160156 266.710938 Z M 196.878906 198.777344 L 207.199219 199.230469 L 198.769531 202.132812 C 198.355469 202.273438 198.140625 202.71875 198.28125 203.128906 C 198.421875 203.535156 198.867188 203.753906 199.28125 203.617188 L 209.125 200.226562 L 205.125 205.386719 C 204.855469 205.726562 204.917969 206.222656 205.261719 206.488281 C 205.605469 206.753906 206.097656 206.6875 206.363281 206.347656 L 211.734375 199.429688 L 212.152344 199.445312 L 213.664062 199.515625 L 214.117188 199.535156 L 219.214844 207.613281 C 219.363281 207.851562 219.617188 207.980469 219.878906 207.980469 C 220.019531 207.980469 220.167969 207.941406 220.296875 207.859375 C 220.664062 207.628906 220.773438 207.144531 220.542969 206.78125 L 216.027344 199.621094 L 222.171875 199.886719 C 222.621094 199.898438 222.972656 199.574219 222.996094 199.136719 C 223.011719 198.703125 222.675781 198.339844 222.242188 198.320312 L 211.410156 197.847656 C 211.398438 197.847656 211.390625 197.847656 211.378906 197.84375 L 196.949219 197.210938 C 196.519531 197.199219 196.148438 197.53125 196.132812 197.964844 C 196.109375 198.390625 196.445312 198.761719 196.878906 198.777344 Z M 236.558594 270.824219 C 232.324219 270.011719 228.496094 267.511719 226.054688 263.960938 C 225.808594 263.605469 225.320312 263.511719 224.964844 263.753906 C 224.609375 264 224.519531 264.488281 224.761719 264.847656 C 227.433594 268.738281 231.625 271.476562 236.265625 272.363281 C 236.3125 272.375 236.363281 272.375 236.410156 272.375 C 236.78125 272.375 237.109375 272.117188 237.183594 271.738281 C 237.265625 271.3125 236.984375 270.902344 236.558594 270.824219 Z M 136.535156 38.34375 C 135.601562 39.316406 135.628906 40.855469 136.59375 41.792969 C 137.566406 42.730469 139.109375 42.703125 140.046875 41.734375 L 140.90625 40.84375 L 143.300781 38.371094 L 144.972656 36.640625 C 144.914062 36.640625 144.851562 36.636719 144.792969 36.636719 C 144.882812 36.359375 144.820312 36.046875 144.601562 35.832031 L 143.679688 34.941406 L 141.691406 33.015625 L 138.832031 30.246094 L 137.902344 29.347656 C 137.730469 29.179688 137.503906 29.121094 137.28125 29.140625 C 137.105469 29.15625 136.925781 29.222656 136.792969 29.363281 C 136.488281 29.675781 136.496094 30.171875 136.808594 30.476562 L 138.101562 31.726562 L 140.601562 34.144531 L 143.164062 36.625 C 143.066406 36.648438 142.972656 36.671875 142.886719 36.710938 C 141.972656 37.144531 142.222656 37.644531 140.808594 37.308594 C 140.769531 37.300781 140.734375 37.28125 140.695312 37.269531 C 140.890625 36.949219 140.847656 36.539062 140.558594 36.28125 L 139.46875 35.316406 L 137.898438 33.921875 L 137.542969 33.605469 C 137.21875 33.320312 136.722656 33.347656 136.433594 33.671875 C 136.148438 33.996094 136.175781 34.492188 136.5 34.78125 L 138.375 36.441406 L 137.328125 37.53125 Z M 141.316406 27.308594 L 143.660156 30.984375 L 146.25 35.058594 C 146.285156 35.109375 146.332031 35.148438 146.378906 35.191406 C 146.398438 35.210938 146.414062 35.238281 146.4375 35.253906 C 146.660156 35.425781 146.960938 35.457031 147.226562 35.339844 C 147.261719 35.328125 147.300781 35.320312 147.332031 35.296875 C 147.703125 35.066406 147.808594 34.582031 147.574219 34.21875 L 147.472656 34.054688 L 146.34375 32.28125 C 146.726562 32.480469 147.179688 32.640625 147.703125 32.757812 C 147.773438 33.054688 147.84375 33.34375 147.898438 33.617188 L 148.582031 32.914062 C 148.859375 32.949219 149.15625 32.976562 149.46875 32.992188 C 149.503906 32.996094 149.535156 33 149.574219 33.003906 C 149 33.476562 148.421875 34.039062 147.960938 34.667969 C 147.878906 34.785156 147.789062 34.898438 147.714844 35.015625 C 147.640625 35.132812 147.582031 35.253906 147.519531 35.375 C 147.421875 35.554688 147.347656 35.734375 147.28125 35.921875 C 147.09375 36.445312 147.007812 36.992188 147.109375 37.554688 C 147.148438 37.785156 147.292969 37.96875 147.480469 38.078125 C 147.597656 38.152344 147.734375 38.203125 147.878906 38.203125 C 147.921875 38.203125 147.96875 38.199219 148.015625 38.191406 C 148.445312 38.117188 148.730469 37.710938 148.652344 37.285156 C 148.554688 36.730469 148.8125 36.136719 149.242188 35.570312 C 150.140625 34.378906 151.792969 33.289062 152.539062 32.886719 C 152.863281 32.710938 153.023438 32.335938 152.917969 31.984375 C 152.820312 31.632812 152.515625 31.398438 152.117188 31.414062 C 151.300781 31.460938 150.601562 31.46875 150 31.449219 C 148.898438 31.410156 148.125 31.273438 147.585938 31.101562 C 147.144531 30.957031 146.859375 30.789062 146.675781 30.625 C 146.28125 30.265625 146.21875 29.8125 146.1875 29.214844 C 146.460938 28.847656 147.910156 28.347656 149.640625 27.980469 C 150.214844 27.855469 150.824219 27.75 151.433594 27.667969 C 151.863281 27.609375 152.164062 27.214844 152.101562 26.785156 C 152.09375 26.738281 152.070312 26.699219 152.058594 26.65625 C 153.265625 26.28125 154.324219 26.039062 155.011719 26.265625 L 155.019531 26.257812 L 156.335938 24.894531 C 156.605469 24.617188 156.597656 24.171875 156.320312 23.90625 L 155.855469 23.453125 L 154.285156 21.9375 L 153.816406 21.488281 C 153.539062 21.21875 153.097656 21.230469 152.828125 21.507812 L 151.300781 23.082031 L 150.742188 22.542969 L 149.839844 23.476562 L 148.898438 24.449219 C 148.941406 24.589844 148.988281 24.734375 149.03125 24.890625 L 149.304688 25.148438 L 149.152344 25.304688 C 149.25 25.65625 149.34375 26.027344 149.421875 26.410156 C 148.824219 26.523438 148.234375 26.664062 147.679688 26.824219 C 145.917969 27.347656 144.566406 28.101562 144.617188 29.21875 C 144.625 29.335938 144.628906 29.464844 144.636719 29.605469 L 142.554688 26.328125 L 142.039062 25.515625 L 141.804688 25.152344 C 141.574219 24.785156 141.089844 24.675781 140.71875 24.910156 C 140.476562 25.066406 140.359375 25.332031 140.371094 25.597656 C 140.375 25.734375 140.402344 25.871094 140.480469 25.992188 Z M 153.035156 79.109375 C 152.84375 79.496094 153.003906 79.96875 153.394531 80.15625 C 153.503906 80.210938 153.625 80.238281 153.738281 80.238281 C 154.03125 80.238281 154.308594 80.078125 154.445312 79.800781 L 154.902344 78.878906 L 158.148438 72.292969 L 158.6875 71.199219 C 158.761719 71.058594 158.769531 70.902344 158.75 70.753906 C 158.714844 70.503906 158.574219 70.269531 158.332031 70.152344 C 158.191406 70.082031 158.042969 70.074219 157.894531 70.089844 C 157.640625 70.121094 157.402344 70.257812 157.28125 70.507812 L 157.046875 70.976562 L 153.0625 79.050781 Z M 264.210938 195.386719 L 263.09375 195.386719 L 261.261719 205.363281 L 265.671875 205.363281 L 266.394531 201.417969 L 266.953125 198.378906 L 268.640625 198.378906 C 268.730469 198.230469 268.808594 198.078125 268.878906 197.933594 C 269.070312 197.527344 269.1875 197.140625 269.136719 196.832031 C 268.96875 195.832031 266.417969 195.386719 266.417969 195.386719 Z M 277.792969 200.058594 L 278.769531 205.363281 L 283.175781 205.363281 L 281.347656 195.386719 L 279.328125 195.386719 C 279.425781 196.609375 279.488281 197.6875 279.453125 198.21875 C 279.375 199.273438 278.640625 199.765625 277.792969 200.058594 Z M 249.347656 219.023438 L 242.609375 219.023438 L 242.292969 220.292969 L 242.011719 221.421875 L 300.617188 221.421875 L 300.023438 219.023438 L 277.792969 219.023438 L 274.464844 205.363281 L 273.65625 205.363281 L 276.988281 219.023438 L 275.824219 219.023438 L 272.492188 205.363281 L 271.6875 205.363281 L 275.015625 219.023438 Z M 297.753906 230.644531 L 282.460938 230.644531 L 279.722656 250.863281 L 294.449219 250.863281 Z M 278.882812 251.207031 C 278.867188 251.316406 278.898438 251.429688 278.972656 251.515625 C 279.046875 251.601562 279.15625 251.648438 279.269531 251.648438 L 294.78125 251.648438 C 294.972656 251.648438 295.140625 251.511719 295.167969 251.320312 L 298.601562 230.3125 C 298.617188 230.199219 298.585938 230.085938 298.511719 229.996094 C 298.441406 229.910156 298.328125 229.855469 298.214844 229.855469 L 282.117188 229.855469 C 281.921875 229.855469 281.753906 230.003906 281.730469 230.199219 Z M 250.441406 227.988281 L 300.898438 227.988281 L 296.628906 254.140625 L 246.003906 254.140625 L 241.734375 227.988281 Z M 238.40625 340.699219 L 239.066406 345.140625 L 239.160156 345.152344 C 239.160156 345.152344 239.164062 345.144531 239.167969 345.140625 L 252.265625 345.140625 L 252.675781 340.613281 L 252.679688 340.585938 Z M 183.375 345.140625 L 195.925781 345.140625 C 195.925781 345.140625 195.929688 345.140625 195.929688 345.140625 C 196.160156 345.140625 196.382812 345.1875 196.59375 345.269531 L 196.667969 344.738281 L 197.222656 340.585938 L 183.570312 340.300781 Z M 209.308594 48.363281 C 209.140625 48.226562 208.890625 48.257812 208.757812 48.425781 C 208.621094 48.59375 208.648438 48.839844 208.820312 48.976562 C 209.933594 49.867188 211.335938 50.359375 212.761719 50.367188 C 212.777344 50.367188 212.792969 50.367188 212.804688 50.367188 C 214.21875 50.367188 215.605469 49.894531 216.726562 49.03125 C 216.894531 48.898438 216.929688 48.652344 216.792969 48.476562 C 216.664062 48.308594 216.417969 48.277344 216.246094 48.410156 C 215.253906 49.175781 214.011719 49.585938 212.769531 49.585938 C 211.515625 49.578125 210.285156 49.144531 209.308594 48.363281 Z M 209.296875 38.585938 C 208.773438 38.300781 208.15625 38.210938 207.578125 38.328125 C 207.363281 38.375 207.226562 38.582031 207.269531 38.792969 C 207.3125 39.003906 207.523438 39.140625 207.730469 39.097656 C 208.132812 39.019531 208.566406 39.082031 208.925781 39.277344 C 209.285156 39.46875 209.574219 39.800781 209.722656 40.179688 C 209.785156 40.335938 209.933594 40.425781 210.085938 40.425781 C 210.136719 40.425781 210.183594 40.417969 210.230469 40.402344 C 210.433594 40.320312 210.535156 40.089844 210.453125 39.894531 C 210.238281 39.335938 209.824219 38.871094 209.296875 38.585938 Z M 218.636719 40.402344 C 218.839844 40.320312 218.941406 40.089844 218.859375 39.894531 C 218.644531 39.335938 218.230469 38.871094 217.707031 38.585938 C 217.1875 38.308594 216.558594 38.210938 215.980469 38.328125 C 215.769531 38.375 215.632812 38.582031 215.675781 38.792969 C 215.71875 39.003906 215.925781 39.140625 216.140625 39.097656 C 216.539062 39.015625 216.972656 39.082031 217.332031 39.277344 C 217.691406 39.46875 217.980469 39.800781 218.128906 40.179688 C 218.191406 40.335938 218.339844 40.425781 218.496094 40.425781 C 218.542969 40.425781 218.59375 40.417969 218.636719 40.402344 Z M 209.382812 43.242188 C 209.773438 43.242188 210.085938 42.757812 210.085938 42.160156 C 210.085938 41.5625 209.773438 41.078125 209.382812 41.078125 C 208.992188 41.078125 208.675781 41.5625 208.675781 42.160156 C 208.675781 42.757812 208.992188 43.242188 209.382812 43.242188 Z M 217.617188 41.078125 C 217.226562 41.078125 216.910156 41.5625 216.910156 42.160156 C 216.910156 42.757812 217.226562 43.242188 217.617188 43.242188 C 218.011719 43.242188 218.324219 42.757812 218.324219 42.160156 C 218.324219 41.5625 218.011719 41.078125 217.617188 41.078125 Z M 223.34375 40.375 L 225.082031 40.375 C 224.921875 38.78125 225.738281 37.117188 227.132812 36.316406 C 227.164062 36.296875 227.203125 36.285156 227.234375 36.269531 C 227.464844 36.140625 227.710938 36.046875 227.960938 35.976562 C 227.96875 35.828125 227.976562 35.683594 227.980469 35.539062 L 227.066406 35.480469 L 222.074219 35.152344 C 221.589844 39.230469 223.34375 40.375 223.34375 40.375 Z M 205.945312 36.433594 C 205.945312 36.433594 205.972656 36.4375 205.984375 36.441406 C 206.417969 36.480469 212.394531 37.0625 215.441406 37.0625 C 218 37.0625 220.777344 35.664062 221.742188 35.132812 L 206.5625 34.136719 L 203.464844 33.933594 C 203.347656 36.226562 205.945312 36.433594 205.945312 36.433594 Z M 131.09375 161.835938 C 131.117188 161.875 131.144531 161.90625 131.171875 161.941406 C 131.121094 161.871094 131.074219 161.800781 131.03125 161.722656 C 131.039062 161.734375 131.042969 161.746094 131.050781 161.753906 C 131.0625 161.78125 131.074219 161.808594 131.09375 161.835938 Z M 131.03125 161.71875 C 130.992188 161.644531 130.960938 161.5625 130.933594 161.476562 C 130.949219 161.523438 130.960938 161.570312 130.976562 161.613281 C 130.992188 161.652344 131.011719 161.683594 131.03125 161.71875 Z M 131.417969 162.183594 C 131.398438 162.167969 131.378906 162.148438 131.359375 162.128906 C 131.382812 162.152344 131.402344 162.175781 131.429688 162.191406 C 131.425781 162.1875 131.421875 162.1875 131.417969 162.183594 Z M 92.570312 339.234375 L 116.542969 339.234375 L 116.542969 162.453125 L 126.425781 162.453125 L 126.425781 160.882812 L 114.972656 160.886719 L 114.972656 337.664062 L 92.570312 337.664062 Z M 147.714844 162.460938 L 182.191406 162.464844 L 182.257812 160.878906 L 147.714844 160.882812 Z M 131.65625 172.273438 L 130.085938 172.273438 L 130.085938 346.855469 L 92.570312 346.855469 L 92.570312 348.425781 L 131.65625 348.425781 L 131.65625 333.648438 L 174.671875 333.648438 L 174.742188 332.082031 L 131.65625 332.082031 L 131.65625 326.195312 L 174.996094 326.195312 L 175.066406 324.625 L 131.65625 324.625 L 131.65625 297.609375 L 176.253906 297.609375 L 176.320312 296.042969 L 131.65625 296.039062 L 131.65625 290.152344 L 176.582031 290.160156 L 176.648438 288.582031 L 131.65625 288.582031 Z M 262.910156 160.871094 L 239.785156 160.875 C 239.785156 161.40625 239.785156 161.9375 239.800781 162.476562 L 263.136719 162.480469 C 263.0625 161.960938 262.988281 161.425781 262.910156 160.871094 Z M 311.078125 279.296875 L 311.078125 162.488281 L 316.601562 162.488281 L 316.101562 160.867188 L 277.792969 160.867188 C 277.828125 161.410156 277.859375 161.949219 277.886719 162.484375 L 309.507812 162.488281 L 309.507812 279.296875 Z M 356.804688 323.730469 L 323.6875 323.730469 C 322.910156 323.730469 322.273438 324.363281 322.273438 325.144531 L 322.273438 329.472656 L 310.292969 329.472656 L 310.292969 331.042969 L 322.273438 331.042969 L 322.273438 335.371094 C 322.273438 336.152344 322.910156 336.789062 323.6875 336.789062 L 356.804688 336.789062 C 357.582031 336.789062 358.21875 336.152344 358.21875 335.371094 L 358.21875 325.144531 C 358.21875 324.363281 357.582031 323.730469 356.804688 323.730469 Z M 283.667969 37.417969 L 280.054688 37.417969 L 280.054688 1.570312 L 303.535156 1.570312 L 303.535156 156.636719 L 305.105469 156.636719 L 305.105469 0 L 278.484375 0 L 278.484375 37.417969 L 274.875 37.417969 L 274.875 44.316406 L 283.667969 44.316406 Z M 290.46875 306.726562 L 290.46875 316.546875 L 292.039062 316.546875 L 292.039062 306.726562 Z M 120.71875 116.957031 L 120.71875 112.304688 L 116.449219 112.304688 L 116.449219 116.957031 Z M 120.71875 93.183594 L 120.71875 88.527344 L 116.449219 88.527344 L 116.449219 93.183594 Z M 120.71875 69.402344 L 120.71875 64.746094 L 116.449219 64.746094 L 116.449219 69.402344 Z M 144.210938 157.417969 L 144.210938 150.390625 L 129.933594 150.390625 L 129.933594 157.484375 L 144.210938 157.484375 Z M 202.722656 288.582031 L 202.558594 290.164062 L 224.542969 290.171875 L 224.351562 288.585938 Z M 272.203125 288.585938 L 254.238281 288.585938 C 254.246094 289.117188 254.25 289.648438 254.257812 290.175781 L 272.203125 290.179688 Z M 201.933594 296.046875 L 201.765625 297.617188 L 225.433594 297.621094 L 225.246094 296.050781 Z M 198.746094 326.195312 L 228.863281 326.195312 L 228.675781 324.625 L 198.910156 324.625 Z M 198.121094 332.082031 L 197.957031 333.648438 L 229.757812 333.648438 L 229.570312 332.082031 Z M 254.296875 297.621094 L 272.203125 297.621094 L 272.214844 296.054688 L 254.296875 296.054688 C 254.296875 296.578125 254.296875 297.105469 254.296875 297.621094 Z M 253.183594 333.648438 L 272.070312 333.648438 L 272.070312 332.082031 L 253.277344 332.082031 C 253.246094 332.617188 253.214844 333.140625 253.183594 333.648438 Z M 253.675781 324.625 L 272.070312 324.625 L 272.070312 326.195312 L 253.601562 326.195312 C 253.628906 325.679688 253.652344 325.15625 253.675781 324.625"/></svg>