<svg xmlns="http://www.w3.org/2000/svg" width="375" viewBox="0 0 375 375" height="375" version="1.0"><defs><clipPath id="a"><path d="M 8 61 L 242 61 L 242 374.984375 L 8 374.984375 Z M 8 61"/></clipPath><clipPath id="b"><path d="M 8 0 L 345.597656 0 L 345.597656 374.984375 L 8 374.984375 Z M 8 0"/></clipPath></defs><path fill="#CBEDDD" d="M 338.136719 125.003906 C 338.136719 215.183594 290.082031 350.683594 199.878906 350.683594 C 109.679688 350.683594 11.492188 229.546875 11.492188 139.363281 C 11.492188 49.179688 84.613281 0.00390625 174.816406 0.00390625 C 265.011719 0.00390625 338.136719 34.820312 338.136719 125.003906"/><g clip-path="url(#a)"><path fill="#F9D291" d="M 114.980469 84.957031 C 114.765625 85.800781 114.097656 93.039062 112.769531 95.695312 C 110.664062 99.910156 112.816406 105.003906 117.304688 106.433594 L 126.808594 109.460938 L 129.5 100.367188 C 130.324219 97.582031 133.089844 95.738281 135.949219 96.253906 C 139.328125 96.859375 141.898438 95.828125 142.484375 95.03125 C 143.683594 93.40625 145.261719 88.648438 144.679688 82.136719 C 144.328125 78.195312 142.144531 74.25 141.675781 70.324219 C 141.347656 67.632812 140.378906 65.472656 139.125 63.738281 C 138.058594 64.066406 136.875 64.339844 135.609375 64.472656 C 126.507812 65.441406 121.195312 71.417969 118.199219 76.875 C 117.957031 76.273438 117.785156 75.894531 117.785156 75.894531 C 117.785156 75.894531 117.308594 75.121094 114.023438 75.1875 C 110.285156 75.261719 109.960938 83.117188 114.980469 84.957031 Z M 48.777344 316.210938 L 32.082031 302.9375 L 18.132812 336.785156 C 17.628906 338.015625 16.707031 339.035156 15.527344 339.648438 C 8.890625 343.109375 8.3125 351.132812 8.3125 351.132812 C 8.3125 351.132812 13.5625 359.167969 14.382812 364.746094 C 15.203125 370.320312 19.957031 374.984375 19.957031 374.984375 L 39.574219 374.984375 C 40.621094 374.984375 41.226562 373.777344 40.589844 372.953125 C 37.789062 369.296875 33.988281 367.242188 31.816406 366.289062 C 30.480469 365.707031 29.449219 364.578125 29.09375 363.167969 C 27.652344 357.519531 28.546875 347.082031 28.546875 347.082031 Z M 137.125 349.339844 L 144.695312 283.425781 L 122.210938 294.5625 L 125.574219 349.339844 L 125.574219 363.5625 C 125.574219 364.875 126.5 366 127.785156 366.261719 C 129.988281 366.714844 133.546875 367.226562 137.054688 366.824219 C 142.730469 366.167969 146.238281 363.28125 151.925781 363.28125 C 157.609375 363.28125 163.953125 359.027344 163.953125 356.910156 C 163.953125 354.796875 144.414062 354.8125 137.125 349.339844 Z M 236.761719 67.019531 C 236.761719 67.019531 234.484375 66.832031 232.363281 66.871094 C 233.425781 64.785156 234.285156 62.003906 233.050781 61.34375 C 231.519531 60.523438 230.265625 62.4375 228.953125 64.023438 C 227.640625 65.605469 221.464844 66.316406 220.371094 67.847656 C 219.273438 69.378906 218.425781 73.664062 218.425781 73.664062 L 180.507812 110.726562 C 176.328125 114.8125 176.523438 121.601562 180.9375 125.4375 C 185.246094 129.183594 191.808594 128.574219 195.355469 124.101562 L 228.578125 82.167969 C 230.546875 82.527344 234.054688 81.96875 234.054688 80.546875 C 234.054688 80.472656 234.074219 80.414062 234.078125 80.34375 C 234.824219 79.988281 235.398438 79.597656 235.578125 79.183594 C 235.878906 78.460938 236.738281 75.925781 237.574219 73.425781 C 238.746094 72.628906 241.097656 71.59375 241.023438 70.625 C 240.941406 69.5625 242.84375 67.070312 236.761719 67.019531 Z M 121.210938 177.957031 L 123.609375 175.523438 L 113.484375 171.984375 L 60.273438 164.351562 C 54.621094 163.542969 50.789062 158.175781 51.859375 152.570312 C 52.957031 146.824219 58.722656 143.238281 64.359375 144.792969 L 115.957031 159.027344 C 115.957031 159.027344 121.96875 158.796875 124.429688 158.207031 C 126.886719 157.613281 128.445312 157.074219 131.070312 156.910156 C 133.691406 156.75 138.378906 156.910156 138.378906 156.910156 L 135.910156 159.34375 C 135.910156 159.34375 137.464844 158.796875 138.378906 159.945312 C 139.292969 161.09375 139.351562 164.429688 139.351562 164.429688 C 139.351562 164.429688 138.121094 165.683594 137.710938 166.957031 C 137.300781 168.230469 134.921875 167.816406 134.101562 168.492188 C 133.28125 169.171875 133.28125 171.996094 131.398438 172.40625 C 129.511719 172.816406 129.675781 174.621094 128.773438 175.933594 C 127.871094 177.246094 121.210938 177.957031 121.210938 177.957031"/></g><path fill="#ABDFEB" d="M 303.796875 26.1875 C 303.699219 25.929688 303.480469 25.734375 303.210938 25.675781 L 300.128906 24.878906 L 296.8125 24.027344 C 296.617188 23.972656 296.425781 24.007812 296.253906 24.085938 C 296.042969 24.1875 295.875 24.363281 295.808594 24.605469 C 295.695312 25.042969 295.953125 25.492188 296.390625 25.609375 L 300.128906 26.597656 L 301.621094 26.996094 L 300.128906 29.019531 L 295.214844 35.6875 L 268.199219 37.625 C 268.027344 37.636719 267.863281 37.703125 267.734375 37.816406 L 264.042969 40.90625 L 255.523438 48.050781 C 255.507812 48.0625 255.503906 48.078125 255.492188 48.085938 L 256.613281 49.277344 L 264.042969 43.046875 L 268.582031 39.242188 L 295.707031 37.292969 C 295.945312 37.277344 296.164062 37.15625 296.308594 36.964844 L 300.128906 31.78125 L 303.6875 26.960938 C 303.851562 26.738281 303.894531 26.445312 303.796875 26.1875 Z M 197.085938 294.957031 C 180.761719 294.957031 167.191406 296.816406 167.535156 299.054688 L 169.003906 310.039062 L 225.894531 304.585938 L 226.636719 299.054688 C 226.636719 296.789062 213.40625 294.957031 197.085938 294.957031 Z M 64.503906 144.832031 C 64.691406 144.929688 64.878906 145.023438 65.054688 145.125 L 65.109375 145 Z M 51.53125 146.242188 C 61.648438 134.820312 79.101562 115.546875 86.347656 110.113281 C 90.273438 107.171875 94.746094 105.328125 98.8125 104.175781 C 98.8125 104.175781 99.035156 104.023438 99.429688 103.777344 C 99.382812 103.738281 99.351562 103.714844 99.351562 103.714844 L 106.9375 99.773438 C 106.9375 99.773438 107.066406 99.882812 107.285156 100.074219 C 108.355469 99.699219 109.507812 99.351562 110.714844 99.054688 C 110.714844 98.773438 110.742188 98.617188 110.742188 98.617188 L 105.226562 99.773438 L 111.019531 92.136719 L 120.988281 93.777344 C 120.988281 93.777344 123.132812 99.363281 124.6875 103.714844 C 125.179688 105.089844 126.128906 106.902344 127.074219 108.554688 L 129.5 100.367188 C 129.558594 100.171875 129.628906 99.980469 129.703125 99.796875 L 129.710938 99.796875 C 129.726562 99.757812 129.738281 99.722656 129.753906 99.6875 C 129.757812 99.6875 129.761719 99.6875 129.765625 99.6875 C 130.183594 98.726562 130.835938 97.902344 131.644531 97.296875 L 135.125 98.5625 L 135.230469 100.539062 L 135.78125 100.609375 C 135.78125 100.609375 135.824219 100.683594 135.898438 100.832031 C 136.078125 100.867188 136.230469 100.898438 136.375 100.929688 L 179.472656 108.253906 L 178.671875 107.214844 L 184.695312 102.089844 L 201.953125 119.375 L 194.519531 127.695312 L 194.445312 127.609375 C 192.328125 130.074219 189.136719 131.578125 185.617188 131.410156 C 173.132812 130.800781 153.464844 129.65625 141.929688 128.023438 C 141.414062 129.789062 140.386719 132.019531 139.027344 134.527344 C 137.824219 139.457031 134.871094 149.34375 129.089844 157.128906 C 127.511719 157.382812 126.203125 157.78125 124.429688 158.207031 C 121.96875 158.796875 115.957031 159.027344 115.957031 159.027344 L 86.855469 151 C 86.679688 148.785156 86.675781 146.40625 86.957031 143.945312 L 80.867188 149.347656 L 72.976562 147.167969 L 67.644531 167.773438 L 56.746094 165.4375 L 57.277344 164.140625 C 55.722656 163.789062 54.226562 163.097656 52.910156 162.050781 C 48.003906 158.148438 47.371094 150.933594 51.53125 146.242188 Z M 142.636719 229.449219 C 146.878906 239.652344 148.445312 250.769531 147.1875 261.746094 L 142.484375 302.699219 L 113.734375 316.210938 L 113.734375 250.253906 C 113.734375 250.253906 106.339844 236.648438 98.3125 222.566406 L 90.066406 247.601562 C 88.382812 252.703125 86.078125 257.574219 83.195312 262.109375 L 48.777344 316.210938 L 27.066406 298.953125 L 60.546875 242.601562 L 63.980469 217.25 C 66.449219 199.03125 74.089844 181.976562 85.875 168.023438 L 113.484375 171.984375 L 119.617188 174.128906 L 121.210938 177.957031 L 142.636719 229.449219"/><path fill="#EF2C5F" d="M 220.324219 80.078125 L 135.96875 159.324219 C 136.257812 159.238281 137.566406 158.925781 138.378906 159.945312 C 138.597656 160.21875 138.765625 160.625 138.898438 161.074219 L 224.203125 80.929688 C 222.753906 80.605469 221.25 80.304688 220.324219 80.078125 Z M 119.785156 174.527344 L 62.476562 228.367188 L 0.136719 286.929688 L 2.382812 289.316406 L 61.777344 233.523438 L 121.132812 177.761719 L 123.542969 175.5 L 120.050781 174.277344 Z M 264.042969 40.90625 L 267.734375 37.816406 C 267.863281 37.703125 268.027344 37.636719 268.199219 37.625 L 295.214844 35.6875 L 300.128906 29.019531 C 300.128906 28.113281 300.128906 27.300781 300.128906 26.597656 L 296.390625 25.609375 C 295.953125 25.492188 295.695312 25.042969 295.808594 24.605469 C 295.875 24.363281 296.042969 24.1875 296.253906 24.085938 C 296.425781 24.007812 296.617188 23.972656 296.8125 24.027344 L 300.128906 24.878906 C 300.128906 23.902344 300.125 23.363281 300.125 23.355469 C 299.941406 21.710938 299.085938 20.5625 297.960938 20.207031 L 297.964844 20.203125 L 297.933594 20.199219 C 297.792969 20.15625 297.652344 20.117188 297.503906 20.101562 L 269.308594 13.925781 C 268.648438 13.589844 267.867188 13.542969 267.0625 13.878906 C 265.492188 14.53125 264.332031 16.386719 264.074219 18.382812 L 264.042969 18.378906 L 264.042969 18.648438 C 264.011719 19.042969 264 19.441406 264.042969 19.835938 Z M 298.472656 135.886719 L 298.859375 138.015625 L 299.238281 138.945312 L 300.148438 138.945312 C 300.148438 138.945312 300.140625 58.386719 300.128906 31.78125 L 296.308594 36.964844 C 296.164062 37.15625 295.945312 37.277344 295.707031 37.292969 L 268.582031 39.242188 L 264.042969 43.046875 L 264.042969 131.421875 L 266.878906 132.90625 L 266.878906 131.421875 L 267.371094 132.90625 L 268.023438 132.90625 L 268.679688 129.792969 L 269.421875 133.480469 L 270.566406 133.972656 L 270.949219 124.238281 L 271.035156 124.261719 L 270.816406 133.808594 L 271.332031 134.164062 L 272.644531 134.164062 L 272.644531 134.574219 L 273.355469 135.558594 L 274.257812 136.761719 L 274.257812 125.054688 L 274.503906 125.113281 L 274.503906 136.925781 L 275.734375 136.925781 L 277.453125 137.414062 L 279.015625 138.890625 L 280.40625 138.890625 C 280.40625 138.890625 281.226562 138.480469 281.3125 138.234375 C 281.390625 137.992188 282.097656 137.25 282.097656 137.25 L 282.097656 138.890625 C 282.097656 138.890625 282.703125 136.679688 282.703125 136.183594 C 282.703125 135.898438 282.875 131.097656 283.015625 127.207031 L 283.546875 127.339844 L 283.195312 137.851562 C 283.195312 137.851562 285.460938 138.671875 285.902344 138.890625 C 286.339844 139.113281 287.8125 139.601562 287.8125 139.601562 L 290.332031 138.890625 L 290.984375 133.972656 L 290.984375 139.277344 L 293.445312 140.203125 L 293.445312 129.773438 L 293.988281 129.90625 L 294.265625 140.585938 L 294.539062 140.53125 L 294.867188 135.449219 C 294.867188 135.449219 294.921875 137.472656 295.195312 138.015625 C 295.46875 138.566406 295.140625 141.734375 295.195312 141.898438 C 295.25 142.0625 296.234375 142.226562 296.234375 142.226562 L 296.726562 142.226562 L 297.875 141.679688 C 297.875 141.679688 297.875 141.351562 298.203125 141.023438 C 298.53125 140.695312 298.148438 139.054688 298.203125 138.671875 C 298.257812 138.292969 298.472656 135.886719 298.472656 135.886719 Z M 340.339844 331.066406 L 277.140625 331.898438 L 277.203125 332.117188 L 233.738281 344.84375 L 233.96875 346.453125 L 269.429688 346.453125 C 269.773438 348.34375 271.058594 351.078125 274.234375 351.496094 C 274.675781 351.554688 275.066406 351.582031 275.425781 351.582031 C 277.550781 351.582031 278.167969 350.519531 278.71875 349.582031 C 279.015625 349.066406 279.324219 348.53125 279.933594 348.050781 C 280.175781 347.855469 280.390625 347.761719 280.582031 347.761719 C 280.980469 347.761719 281.480469 348.175781 282.011719 348.613281 C 282.757812 349.234375 283.6875 350.003906 284.917969 350.003906 C 287.113281 350.003906 289.023438 347.484375 289.714844 346.453125 L 301.703125 346.453125 L 340.625 332.65625 Z M 222.671875 301.101562 C 222.800781 301.070312 222.921875 301.039062 223.042969 301.007812 C 222.921875 301.039062 222.785156 301.066406 222.660156 301.101562 C 222.664062 301.101562 222.671875 301.101562 222.671875 301.101562 Z M 190.820312 299.144531 L 189.019531 290.328125 C 189.019531 290.328125 188.046875 290.265625 187.910156 291.605469 C 187.773438 292.941406 188.648438 293.707031 187.335938 294.664062 C 186.539062 295.246094 187.828125 299.144531 187.46875 299.199219 C 187.117188 299.253906 186.378906 296.960938 185.476562 297.042969 C 184.644531 297.117188 185.121094 298.328125 184.300781 298.027344 C 183.484375 297.730469 183.042969 295.757812 182.199219 294.527344 C 181.347656 293.296875 180.21875 294.203125 180.21875 294.203125 L 181.457031 299.675781 C 177.363281 300.03125 173.933594 300.519531 171.507812 301.101562 C 174.0625 301.710938 177.71875 302.222656 182.117188 302.582031 L 182.117188 302.585938 C 183.109375 302.855469 191.625 303.082031 191.625 303.082031 L 191.625 303.078125 C 192.027344 303.089844 192.429688 303.097656 192.839844 303.105469 C 192.835938 303.105469 192.835938 303.109375 192.835938 303.109375 C 192.828125 303.125 192.820312 303.132812 192.808594 303.148438 C 192.808594 303.148438 196.65625 309.582031 197.085938 313.410156 C 197.511719 317.238281 199.042969 318.878906 201.777344 322.15625 C 204.511719 325.4375 203.632812 331.664062 205.054688 333.742188 C 206.476562 335.820312 208.882812 331.554688 208.773438 321.9375 C 208.667969 312.320312 211.617188 308.492188 213.367188 309.582031 C 215.113281 310.679688 214.132812 315.378906 216.425781 315.816406 C 218.722656 316.253906 220.183594 301.605469 220.183594 301.605469 C 220.183594 301.605469 220.171875 301.605469 220.171875 301.605469 C 221.089844 301.445312 221.921875 301.277344 222.660156 301.101562 C 217.546875 299.875 208.011719 299.054688 197.085938 299.054688 C 194.933594 299.054688 192.839844 299.085938 190.820312 299.144531 Z M 171.496094 301.101562 C 171.5 301.101562 171.507812 301.101562 171.507812 301.101562 C 171.382812 301.070312 171.257812 301.039062 171.132812 301.011719 C 171.257812 301.039062 171.371094 301.070312 171.496094 301.101562 Z M 238.851562 67.171875 L 257.21875 49.921875 L 254.972656 47.53125 L 234.367188 66.886719 C 235.703125 66.933594 236.761719 67.019531 236.761719 67.019531 C 237.605469 67.027344 238.289062 67.082031 238.851562 67.171875 Z M 136.554688 64.34375 C 136.246094 64.398438 135.929688 64.4375 135.609375 64.472656 C 135.066406 64.53125 134.535156 64.609375 134.019531 64.699219 C 125.882812 66.15625 121.015625 71.742188 118.199219 76.875 C 117.957031 76.273438 117.785156 75.894531 117.785156 75.894531 C 117.785156 75.894531 117.308594 75.121094 114.023438 75.1875 C 110.285156 75.261719 109.960938 83.117188 114.980469 84.957031 C 114.921875 85.195312 114.820312 85.949219 114.683594 86.957031 C 114.601562 87.339844 114.558594 87.570312 114.550781 87.617188 C 113.890625 90.566406 110.074219 92.074219 105.53125 91.71875 C 101.125 91.371094 99.191406 89.039062 99.191406 89.039062 C 99.191406 89.039062 100.667969 89.039062 103.070312 88.65625 C 105.476562 88.273438 106.816406 85.234375 109.765625 83.773438 C 110.078125 83.625 110.355469 83.503906 110.613281 83.402344 C 108.355469 78.105469 103.351562 68.59375 101.152344 64.753906 C 98.363281 59.886719 97.296875 53.605469 97.296875 53.605469 C 97.296875 53.605469 100.867188 54.203125 106.9375 53.714844 C 113.003906 53.222656 121.40625 48.816406 130.972656 49.558594 C 142.234375 50.433594 144.679688 61.042969 144.679688 61.042969 C 144.679688 61.042969 142.476562 62.695312 139.125 63.738281 C 138.859375 63.820312 138.585938 63.898438 138.308594 63.972656 C 138.285156 63.976562 138.265625 63.980469 138.246094 63.988281 C 137.988281 64.054688 137.722656 64.117188 137.453125 64.175781 C 137.34375 64.199219 137.230469 64.21875 137.121094 64.238281 C 136.933594 64.273438 136.75 64.3125 136.554688 64.34375"/><g clip-path="url(#b)"><path fill="#363E8D" d="M 103.324219 74.757812 C 103.324219 74.757812 105.828125 80.085938 105.496094 83.203125 C 105.277344 85.304688 104.871094 87.0625 104.628906 87.996094 C 106.195312 86.921875 107.511719 84.890625 109.765625 83.773438 C 110.078125 83.625 110.355469 83.503906 110.613281 83.402344 C 108.355469 78.105469 103.351562 68.59375 101.152344 64.753906 C 98.199219 72.050781 101.152344 78.675781 101.152344 78.675781 Z M 33.382812 367.050781 C 30.621094 363.144531 28.273438 353.839844 28.273438 353.839844 C 28.261719 356.976562 28.433594 360.578125 29.09375 363.167969 C 29.398438 364.375 30.203125 365.378906 31.265625 366.007812 L 31.261719 366.007812 C 31.261719 366.007812 26.515625 362.664062 19.519531 368.460938 C 19.519531 368.460938 17.304688 359.941406 15.636719 356.65625 C 13.722656 352.886719 14.710938 348.921875 10.566406 344.402344 L 9.199219 347.308594 C 8.4375 349.457031 8.3125 351.132812 8.3125 351.132812 C 8.3125 351.132812 12.660156 359.167969 13.480469 364.746094 C 14 368.285156 14.488281 371.460938 14.773438 373.304688 C 14.925781 374.273438 15.757812 374.984375 16.742188 374.984375 L 39.574219 374.984375 C 40.621094 374.984375 41.226562 373.78125 40.589844 372.953125 C 38.375 370.0625 35.546875 368.183594 33.382812 367.050781 Z M 62.515625 228.078125 L 62.625 227.253906 L 62.515625 227.21875 L 62.515625 166.671875 L 61.695312 166.496094 L 61.695312 226.972656 L 56.539062 225.386719 L 56.539062 163.941406 C 56.261719 163.855469 55.988281 163.761719 55.71875 163.65625 L 55.71875 225.136719 L 31.625 217.738281 C 31.785156 218.070312 31.941406 218.40625 32.105469 218.742188 Z M 58.964844 156.316406 C 58.671875 157.046875 58.425781 157.792969 58.191406 158.539062 C 57.945312 159.28125 57.742188 160.039062 57.53125 160.792969 C 57.335938 161.550781 57.144531 162.308594 56.988281 163.074219 C 56.824219 163.84375 56.667969 164.609375 56.566406 165.390625 C 56.554688 165.472656 56.601562 165.554688 56.679688 165.585938 C 56.777344 165.625 56.886719 165.582031 56.925781 165.484375 C 57.214844 164.75 57.457031 164.003906 57.691406 163.257812 C 57.925781 162.511719 58.128906 161.757812 58.328125 161 C 58.515625 160.238281 58.707031 159.480469 58.859375 158.710938 C 59.015625 157.945312 59.167969 157.175781 59.265625 156.394531 C 59.277344 156.324219 59.238281 156.253906 59.167969 156.230469 C 59.089844 156.195312 58.996094 156.234375 58.964844 156.316406 Z M 56.539062 38.148438 C 56.261719 38.382812 55.992188 38.621094 55.71875 38.859375 L 55.71875 141.539062 C 55.988281 141.238281 56.261719 140.929688 56.539062 140.625 Z M 60.378906 143.464844 C 60.570312 143.640625 60.742188 143.828125 60.902344 144.027344 C 60.308594 143.921875 59.703125 143.875 59.101562 143.90625 C 58.152344 143.96875 57.210938 144.183594 56.363281 144.601562 C 56.304688 144.632812 56.265625 144.703125 56.28125 144.777344 C 56.300781 144.859375 56.382812 144.914062 56.46875 144.894531 C 57.355469 144.710938 58.238281 144.609375 59.117188 144.644531 C 59.992188 144.664062 60.859375 144.804688 61.695312 145.054688 L 61.699219 145.054688 C 61.75 145.070312 61.796875 145.074219 61.847656 145.070312 C 61.625 146.03125 61.394531 146.996094 61.152344 147.957031 C 60.753906 149.53125 60.417969 151.121094 60.082031 152.710938 C 60.0625 152.789062 60.113281 152.871094 60.195312 152.894531 C 60.277344 152.914062 60.363281 152.867188 60.386719 152.785156 C 61.207031 149.769531 62.144531 146.785156 62.910156 143.742188 L 67.925781 144.613281 L 72.875 145.417969 L 71.019531 153.144531 C 70.363281 155.855469 69.757812 158.582031 69.128906 161.296875 C 69.105469 161.394531 69.164062 161.492188 69.261719 161.519531 C 69.363281 161.546875 69.460938 161.484375 69.492188 161.386719 C 70.203125 158.691406 70.953125 156.003906 71.640625 153.300781 L 73.726562 145.195312 L 73.730469 145.167969 C 73.765625 144.957031 73.625 144.757812 73.417969 144.722656 L 73.410156 144.722656 L 68.0625 143.808594 L 62.699219 142.953125 L 62.695312 142.953125 C 62.503906 142.921875 62.320312 143.042969 62.277344 143.230469 C 62.195312 143.574219 62.117188 143.914062 62.035156 144.257812 C 61.714844 143.734375 61.296875 143.277344 60.804688 142.933594 C 60.25 142.527344 59.613281 142.253906 58.960938 142.117188 C 58.878906 142.101562 58.792969 142.140625 58.753906 142.222656 C 58.710938 142.316406 58.75 142.425781 58.847656 142.46875 C 59.410156 142.738281 59.929688 143.070312 60.378906 143.464844 Z M 128.554688 168.972656 C 128.429688 168.519531 128.167969 168.109375 127.835938 167.78125 C 127.507812 167.4375 127.046875 167.253906 126.710938 167.097656 C 125.972656 166.78125 125.238281 166.460938 124.472656 166.203125 C 124.398438 166.179688 124.304688 166.207031 124.257812 166.28125 C 124.199219 166.367188 124.226562 166.480469 124.3125 166.539062 C 124.980469 166.992188 125.679688 167.382812 126.375 167.773438 C 126.75 167.972656 127.042969 168.117188 127.269531 168.359375 C 127.507812 168.589844 127.671875 168.886719 127.777344 169.199219 C 127.863281 169.484375 127.902344 169.953125 127.980469 170.324219 C 128.046875 170.71875 128.117188 171.113281 128.203125 171.503906 C 128.355469 172.289062 128.523438 173.070312 128.734375 173.851562 C 128.753906 173.921875 128.816406 173.96875 128.890625 173.964844 C 128.976562 173.960938 129.042969 173.890625 129.042969 173.804688 C 129.019531 173 128.953125 172.199219 128.875 171.402344 C 128.839844 171.007812 128.792969 170.609375 128.746094 170.210938 C 128.6875 169.796875 128.671875 169.460938 128.554688 168.972656 Z M 62.515625 33.402344 C 62.238281 33.609375 61.964844 33.820312 61.695312 34.027344 L 61.695312 134.921875 C 61.964844 134.621094 62.238281 134.324219 62.515625 134.023438 Z M 120.917969 172.925781 L 120.207031 172.660156 L 119.472656 172.359375 C 119.429688 172.34375 119.375 172.339844 119.328125 172.367188 C 119.25 172.414062 119.21875 172.511719 119.261719 172.589844 C 119.410156 172.859375 119.625 173.070312 119.859375 173.257812 C 120.089844 173.445312 120.355469 173.578125 120.625 173.691406 C 120.902344 173.792969 121.1875 173.871094 121.476562 173.898438 C 121.667969 173.917969 121.855469 173.914062 122.046875 173.898438 C 122.167969 174.09375 122.296875 174.285156 122.449219 174.460938 C 122.777344 174.855469 123.152344 175.214844 123.585938 175.480469 C 123.648438 175.519531 123.738281 175.515625 123.796875 175.46875 C 123.882812 175.40625 123.898438 175.289062 123.839844 175.203125 C 123.554688 174.8125 123.277344 174.4375 123.039062 174.039062 C 122.804688 173.640625 122.578125 173.242188 122.390625 172.820312 C 122.191406 172.402344 122.039062 171.96875 121.890625 171.527344 C 121.75 171.082031 121.644531 170.628906 121.535156 170.15625 C 121.523438 170.09375 121.476562 170.042969 121.410156 170.03125 C 121.324219 170.011719 121.242188 170.070312 121.226562 170.15625 C 121.132812 170.660156 121.140625 171.171875 121.214844 171.679688 C 121.28125 172.1875 121.441406 172.683594 121.644531 173.15625 C 121.652344 173.171875 121.660156 173.183594 121.667969 173.199219 C 121.65625 173.195312 121.648438 173.195312 121.636719 173.191406 Z M 93.632812 236.777344 L 93.375 237.554688 L 109.484375 242.5 C 109.296875 242.164062 109.109375 241.816406 108.914062 241.464844 Z M 193.949219 305.191406 C 193.300781 303.972656 192.808594 303.148438 192.808594 303.148438 C 192.820312 303.132812 192.828125 303.125 192.835938 303.109375 C 178.53125 302.824219 167.535156 301.117188 167.535156 299.054688 L 167.964844 302.269531 C 169.632812 302.941406 172.0625 303.488281 175.597656 303.980469 C 180.601562 304.671875 187.027344 305.09375 193.949219 305.191406 Z M 16.730469 343.96875 C 16.8125 344 16.902344 343.953125 16.933594 343.871094 C 17.09375 343.394531 17.253906 342.945312 17.453125 342.507812 C 17.65625 342.078125 17.871094 341.65625 18.128906 341.261719 C 18.375 340.859375 18.660156 340.484375 18.960938 340.117188 C 19.265625 339.75 19.601562 339.410156 19.949219 339.058594 C 20.003906 339.003906 20.023438 338.925781 19.996094 338.851562 C 19.953125 338.753906 19.84375 338.710938 19.746094 338.75 C 19.261719 338.953125 18.828125 339.257812 18.4375 339.609375 C 18.042969 339.960938 17.710938 340.382812 17.433594 340.832031 C 17.160156 341.28125 16.9375 341.765625 16.800781 342.273438 C 16.660156 342.785156 16.582031 343.304688 16.621094 343.828125 C 16.625 343.890625 16.667969 343.949219 16.730469 343.96875 Z M 150.773438 353.953125 C 157.214844 356.832031 157.121094 359.554688 157.121094 359.554688 C 157.121094 359.554688 154.316406 359.695312 150.273438 360.460938 C 146.226562 361.226562 141.976562 362.285156 137.984375 362.722656 C 133.992188 363.160156 131.042969 358.511719 128.089844 357.914062 C 126.132812 357.511719 125.667969 357.8125 125.574219 358.058594 L 125.574219 363.566406 C 125.574219 364.875 126.5 366 127.785156 366.261719 C 129.992188 366.714844 133.546875 367.226562 137.054688 366.824219 C 142.730469 366.167969 146.238281 363.28125 151.925781 363.28125 C 157.609375 363.28125 163.953125 359.027344 163.953125 356.910156 C 163.953125 355.703125 157.589844 355.191406 150.773438 353.953125 Z M 134.613281 354.527344 C 134.585938 354.601562 134.601562 354.6875 134.664062 354.742188 C 134.742188 354.808594 134.863281 354.804688 134.933594 354.722656 C 135.339844 354.253906 135.628906 353.683594 135.824219 353.082031 C 136.023438 352.484375 136.105469 351.851562 136.097656 351.21875 C 136.082031 350.589844 135.980469 349.957031 135.757812 349.367188 C 135.539062 348.78125 135.234375 348.222656 134.8125 347.765625 C 134.769531 347.714844 134.695312 347.699219 134.632812 347.726562 C 134.550781 347.761719 134.515625 347.855469 134.550781 347.9375 C 134.785156 348.472656 134.972656 349.011719 135.09375 349.5625 C 135.207031 350.113281 135.28125 350.671875 135.277344 351.230469 C 135.289062 351.789062 135.226562 352.347656 135.121094 352.898438 C 135.011719 353.449219 134.832031 353.988281 134.613281 354.527344 Z M 143.546875 293.429688 C 141.03125 294.417969 138.523438 295.433594 136.027344 296.46875 C 133.503906 297.519531 130.984375 298.582031 128.496094 299.714844 C 125.992188 300.804688 123.519531 301.972656 121.050781 303.144531 C 118.605469 304.3125 116.164062 305.503906 113.734375 306.71875 L 113.734375 316.210938 L 142.484375 302.699219 Z M 340.347656 331.886719 L 278.230469 332.703125 L 280.144531 339.28125 L 287.164062 339.707031 C 287.242188 339.710938 287.300781 339.777344 287.296875 339.855469 C 287.292969 339.929688 287.230469 339.988281 287.15625 339.992188 L 279.863281 340.085938 L 251.980469 343.496094 C 251.859375 343.511719 251.753906 343.425781 251.738281 343.304688 C 251.722656 343.191406 251.808594 343.082031 251.925781 343.066406 L 279.304688 339.332031 L 277.433594 332.90625 L 233.96875 345.632812 L 270.15625 345.632812 C 270.15625 345.632812 270.40625 350.167969 274.339844 350.683594 C 278.273438 351.199219 277.292969 349.101562 279.425781 347.410156 C 281.554688 345.714844 282.703125 349.183594 284.917969 349.183594 C 287.132812 349.183594 289.265625 345.632812 289.265625 345.632812 L 301.5625 345.632812 Z M 345.601562 330.109375 L 344.070312 358.292969 L 336.632812 358.292969 L 336.628906 353.644531 L 302.101562 352.726562 L 298.582031 358.292969 L 293.554688 358.292969 L 295.304688 352.710938 L 231.265625 352.710938 L 227.734375 358.292969 L 222.707031 358.292969 L 226.636719 345.773438 L 277.042969 330.109375 Z M 77.09375 187.707031 C 77.140625 187.800781 77.25 187.839844 77.339844 187.792969 C 78.570312 187.199219 79.738281 186.492188 80.863281 185.726562 C 81.988281 184.957031 83.054688 184.097656 84.085938 183.203125 C 85.089844 182.28125 86.066406 181.328125 86.960938 180.296875 C 87.855469 179.265625 88.691406 178.1875 89.425781 177.039062 C 89.464844 176.976562 89.453125 176.890625 89.394531 176.839844 C 89.328125 176.78125 89.230469 176.785156 89.175781 176.855469 C 88.285156 177.871094 87.390625 178.867188 86.453125 179.824219 C 85.511719 180.785156 84.558594 181.722656 83.542969 182.59375 C 82.550781 183.488281 81.503906 184.324219 80.4375 185.136719 C 79.375 185.949219 78.273438 186.714844 77.15625 187.46875 C 77.082031 187.523438 77.054688 187.625 77.09375 187.707031 Z M 63.980469 217.25 C 66.449219 199.03125 74.089844 181.976562 85.875 168.023438 L 113.484375 171.984375 L 119.617188 174.128906 L 119.785156 174.527344 L 62.476562 228.367188 Z M 137.292969 160.0625 C 137.816406 160.578125 138.1875 161.226562 138.472656 161.9375 C 138.757812 162.652344 138.949219 163.421875 139.1875 164.195312 C 139.207031 164.261719 139.273438 164.308594 139.347656 164.304688 C 139.433594 164.300781 139.5 164.226562 139.492188 164.140625 C 139.453125 163.332031 139.359375 162.523438 139.128906 161.710938 C 138.910156 160.910156 138.488281 160.113281 137.875 159.488281 C 137.261719 158.871094 136.515625 158.425781 135.75 158.113281 C 134.984375 157.796875 134.203125 157.570312 133.410156 157.410156 C 133.328125 157.394531 133.242188 157.4375 133.203125 157.515625 C 133.160156 157.609375 133.199219 157.722656 133.292969 157.765625 C 134.023438 158.109375 134.757812 158.40625 135.445312 158.769531 C 136.125 159.132812 136.773438 159.542969 137.292969 160.0625 Z M 225.285156 303.46875 C 223.859375 303.910156 222.003906 304.296875 219.824219 304.632812 C 219.257812 308.894531 218.050781 316.125 216.425781 315.816406 C 214.132812 315.378906 215.113281 310.679688 213.367188 309.582031 C 211.617188 308.492188 208.667969 312.320312 208.773438 321.9375 C 208.882812 331.554688 206.476562 335.820312 205.054688 333.742188 C 203.632812 331.664062 204.511719 325.4375 201.777344 322.15625 C 199.042969 318.878906 197.511719 317.238281 197.085938 313.410156 C 196.84375 311.238281 195.496094 308.230469 194.378906 306.027344 C 187.257812 305.941406 180.628906 305.515625 175.480469 304.800781 C 172.179688 304.34375 169.796875 303.835938 168.089844 303.210938 L 175.84375 361.164062 C 175.84375 362.75 185.351562 364.035156 197.085938 364.035156 C 208.816406 364.035156 218.324219 362.75 218.324219 361.164062 L 226.078125 303.210938 C 225.769531 303.320312 225.492188 303.40625 225.285156 303.46875 Z M 98.019531 221.425781 C 98.015625 221.316406 97.929688 221.242188 97.824219 221.246094 C 96.855469 221.296875 95.894531 221.351562 94.933594 221.367188 C 93.972656 221.378906 93.015625 221.382812 92.058594 221.34375 C 91.097656 221.316406 90.136719 221.246094 89.179688 221.164062 C 88.222656 221.078125 87.269531 220.953125 86.300781 220.835938 C 86.230469 220.824219 86.160156 220.867188 86.132812 220.941406 C 86.105469 221.019531 86.152344 221.109375 86.230469 221.140625 C 87.164062 221.457031 88.121094 221.679688 89.089844 221.851562 C 90.058594 222.023438 91.042969 222.117188 92.023438 222.164062 C 93.007812 222.199219 93.996094 222.1875 94.976562 222.089844 C 95.957031 222 96.929688 221.855469 97.878906 221.613281 C 97.96875 221.589844 98.023438 221.511719 98.019531 221.425781 Z M 96.601562 222.894531 C 96.566406 222.671875 96.359375 222.523438 96.132812 222.5625 L 96.128906 222.5625 L 94.105469 222.890625 L 92.078125 223.175781 C 90.722656 223.363281 89.363281 223.519531 88 223.6875 C 87.925781 223.699219 87.863281 223.757812 87.859375 223.839844 C 87.859375 223.925781 87.929688 224 88.015625 224 C 89.394531 224.039062 90.777344 223.976562 92.152344 223.871094 C 92.84375 223.824219 93.527344 223.734375 94.210938 223.65625 C 94.53125 223.613281 94.851562 223.5625 95.171875 223.523438 C 94.570312 224.214844 93.949219 224.910156 93.332031 225.589844 C 92.460938 226.535156 91.5625 227.453125 90.617188 228.320312 C 90.546875 228.378906 90.535156 228.484375 90.585938 228.5625 C 90.644531 228.648438 90.761719 228.667969 90.847656 228.613281 C 91.933594 227.878906 92.914062 227.003906 93.847656 226.089844 C 94.78125 225.179688 95.644531 224.199219 96.507812 223.230469 C 96.582031 223.140625 96.621094 223.019531 96.601562 222.894531 Z M 84.75 255.351562 C 84.695312 255.289062 84.597656 255.277344 84.53125 255.335938 C 83.464844 256.234375 82.390625 257.113281 81.277344 257.9375 C 80.167969 258.761719 79.035156 259.5625 77.851562 260.28125 C 76.6875 261.03125 75.480469 261.703125 74.25 262.34375 C 73.023438 262.984375 71.769531 263.566406 70.492188 264.132812 C 70.410156 264.171875 70.363281 264.265625 70.390625 264.355469 C 70.417969 264.453125 70.523438 264.511719 70.621094 264.480469 C 71.972656 264.09375 73.289062 263.578125 74.570312 262.992188 C 75.851562 262.402344 77.085938 261.710938 78.285156 260.972656 C 79.472656 260.203125 80.628906 259.390625 81.707031 258.484375 C 82.785156 257.582031 83.816406 256.609375 84.75 255.558594 C 84.796875 255.503906 84.800781 255.414062 84.75 255.351562 Z M 97.886719 217.90625 C 97.890625 218.011719 97.976562 218.089844 98.078125 218.089844 C 99.25 218.0625 100.417969 218.035156 101.582031 217.976562 C 101.710938 217.96875 101.828125 217.882812 101.867188 217.753906 L 101.871094 217.742188 C 102.300781 216.363281 102.703125 214.980469 103.058594 213.585938 C 103.425781 212.191406 103.769531 210.792969 104.066406 209.382812 C 104.679688 206.566406 105.179688 203.722656 105.515625 200.859375 C 105.523438 200.785156 105.46875 200.710938 105.390625 200.691406 C 105.308594 200.671875 105.222656 200.726562 105.203125 200.808594 L 103.300781 209.210938 L 102.292969 213.390625 L 101.304688 217.355469 C 100.21875 217.460938 99.136719 217.585938 98.054688 217.71875 C 97.960938 217.730469 97.886719 217.8125 97.886719 217.90625 Z M 50.820312 311.441406 C 49.21875 309.917969 47.582031 308.429688 45.941406 306.953125 L 40.976562 302.566406 L 35.941406 298.257812 C 34.25 296.835938 32.550781 295.425781 30.820312 294.046875 C 30.757812 294 30.664062 294.003906 30.609375 294.0625 C 30.550781 294.125 30.550781 294.222656 30.613281 294.285156 C 32.210938 295.8125 33.84375 297.296875 35.484375 298.78125 L 40.4375 303.183594 L 45.464844 307.5 C 47.152344 308.921875 48.847656 310.34375 50.574219 311.71875 C 50.648438 311.78125 50.757812 311.773438 50.824219 311.703125 C 50.894531 311.628906 50.894531 311.511719 50.820312 311.441406 Z M 114.960938 249.472656 C 115.378906 248.675781 115.824219 247.898438 116.335938 247.164062 C 116.824219 246.449219 117.363281 245.761719 117.921875 245.089844 L 117.367188 244.921875 C 116.753906 245.457031 116.195312 246.054688 115.699219 246.703125 C 114.980469 247.664062 114.375 248.714844 113.941406 249.835938 L 113.929688 249.867188 C 113.898438 249.945312 113.894531 250.03125 113.925781 250.117188 C 113.992188 250.300781 114.199219 250.398438 114.378906 250.328125 C 115.089844 250.078125 115.875 249.914062 116.621094 249.585938 C 116.699219 249.550781 116.746094 249.464844 116.730469 249.382812 C 116.710938 249.28125 116.617188 249.210938 116.511719 249.230469 C 116.003906 249.316406 115.484375 249.382812 114.960938 249.472656 Z M 118.136719 244.300781 L 118.480469 244.40625 C 118.476562 244.414062 118.476562 244.425781 118.46875 244.433594 C 118.519531 244.378906 118.523438 244.300781 118.480469 244.238281 C 118.429688 244.167969 118.332031 244.152344 118.261719 244.199219 C 118.21875 244.234375 118.179688 244.269531 118.136719 244.300781 Z M 98.230469 222.820312 L 90.066406 247.601562 C 88.382812 252.703125 86.078125 257.574219 83.195312 262.109375 L 48.777344 316.210938 L 27.066406 298.953125 L 60.546875 242.601562 L 61.777344 233.523438 L 121.132812 177.761719 L 121.210938 177.957031 L 124.988281 187.035156 L 124.386719 186.644531 C 123.847656 186.28125 123.308594 185.921875 122.78125 185.542969 C 122.25 185.167969 121.734375 184.769531 121.214844 184.375 L 119.671875 183.152344 C 119.617188 183.113281 119.539062 183.109375 119.484375 183.148438 C 119.410156 183.199219 119.394531 183.296875 119.445312 183.367188 C 119.828125 183.921875 120.28125 184.425781 120.761719 184.898438 C 121.234375 185.375 121.761719 185.804688 122.300781 186.207031 C 122.847656 186.597656 123.417969 186.964844 124.019531 187.273438 C 124.445312 187.488281 124.878906 187.679688 125.324219 187.847656 L 142.636719 229.449219 C 145.800781 237.050781 147.472656 245.164062 147.597656 253.351562 C 147.597656 253.351562 147.597656 253.347656 147.597656 253.347656 L 172.703125 261.050781 L 170.773438 252.523438 L 180.613281 249.246094 L 183.773438 264.710938 L 183.71875 264.433594 L 191.640625 266.867188 L 191.640625 129.941406 C 191.925781 129.78125 192.195312 129.589844 192.460938 129.402344 L 192.460938 267.121094 L 192.511719 267.136719 C 192.730469 267.199219 192.851562 267.433594 192.785156 267.648438 C 192.738281 267.800781 192.609375 267.890625 192.460938 267.914062 L 192.460938 295.011719 C 192.1875 295.019531 191.917969 295.027344 191.640625 295.035156 L 191.640625 267.726562 L 183.90625 265.351562 L 189.019531 290.328125 C 189.019531 290.328125 188.046875 290.265625 187.910156 291.605469 C 187.773438 292.941406 188.648438 293.707031 187.335938 294.664062 C 186.539062 295.246094 187.828125 299.144531 187.46875 299.199219 C 187.117188 299.253906 186.378906 296.960938 185.476562 297.042969 C 184.644531 297.117188 185.121094 298.328125 184.300781 298.027344 C 183.484375 297.730469 183.042969 295.757812 182.199219 294.527344 C 181.347656 293.296875 180.21875 294.203125 180.21875 294.203125 L 181.457031 299.675781 L 172.914062 261.972656 L 147.601562 254.207031 C 147.601562 254.199219 147.601562 254.195312 147.601562 254.191406 C 147.605469 256.710938 147.476562 259.234375 147.1875 261.746094 L 143.589844 293.050781 C 143.566406 293.046875 143.535156 293.035156 143.511719 293.046875 C 140.898438 293.882812 138.3125 294.800781 135.757812 295.796875 C 133.199219 296.785156 130.675781 297.859375 128.164062 298.964844 C 125.667969 300.105469 123.1875 301.269531 120.746094 302.523438 C 118.371094 303.734375 116.035156 305.011719 113.734375 306.351562 L 113.734375 250.253906 C 113.734375 250.253906 106.476562 236.898438 98.535156 222.957031 C 100.351562 223.785156 102.203125 224.554688 104.109375 225.179688 C 106.117188 225.863281 108.191406 226.347656 110.285156 226.632812 C 110.386719 226.648438 110.476562 226.582031 110.496094 226.484375 C 110.515625 226.382812 110.449219 226.285156 110.347656 226.265625 C 108.292969 225.871094 106.292969 225.257812 104.332031 224.550781 C 102.753906 223.964844 101.207031 223.292969 99.675781 222.601562 C 102.5 222.035156 105.316406 221.433594 108.136719 220.835938 C 111.351562 220.140625 114.566406 219.414062 117.765625 218.640625 C 117.847656 218.621094 117.898438 218.542969 117.882812 218.464844 C 117.871094 218.378906 117.789062 218.320312 117.707031 218.335938 C 114.457031 218.890625 111.222656 219.488281 107.988281 220.109375 C 104.761719 220.757812 101.527344 221.382812 98.3125 222.074219 L 98.304688 222.074219 C 98.1875 222.101562 98.085938 222.179688 98.03125 222.296875 C 97.941406 222.492188 98.027344 222.730469 98.226562 222.820312 C 98.226562 222.820312 98.226562 222.820312 98.230469 222.820312 Z M 191.640625 99.847656 L 192.460938 99.042969 L 192.460938 0.472656 C 192.1875 0.453125 191.917969 0.433594 191.640625 0.421875 L 191.640625 32.734375 L 161.609375 0.363281 C 161.253906 0.382812 160.902344 0.40625 160.550781 0.429688 L 191.640625 33.9375 L 191.640625 46.519531 L 153.601562 5.519531 L 153 6.078125 L 191.640625 47.722656 Z M 264.839844 22.539062 C 264.898438 22.609375 265.003906 22.632812 265.085938 22.582031 C 265.171875 22.527344 265.199219 22.410156 265.144531 22.324219 C 264.636719 21.488281 264.441406 20.511719 264.390625 19.542969 C 264.363281 18.566406 264.476562 17.566406 264.765625 16.664062 C 265.0625 15.757812 265.558594 14.921875 266.269531 14.34375 C 266.96875 13.773438 267.941406 13.496094 268.871094 13.761719 C 268.9375 13.78125 269.015625 13.75 269.050781 13.6875 C 269.09375 13.613281 269.070312 13.519531 268.992188 13.472656 C 268.027344 12.914062 266.738281 13.101562 265.824219 13.746094 C 264.890625 14.390625 264.308594 15.398438 264 16.425781 C 263.703125 17.472656 263.644531 18.53125 263.742188 19.585938 C 263.839844 20.632812 264.175781 21.699219 264.839844 22.539062 Z M 188.984375 120.644531 C 188.234375 119.878906 187.527344 119.078125 186.828125 118.253906 C 186.777344 118.195312 186.695312 118.179688 186.628906 118.21875 C 186.554688 118.261719 186.527344 118.359375 186.570312 118.433594 C 187.113281 119.382812 187.765625 120.273438 188.472656 121.109375 C 189.179688 121.953125 189.96875 122.71875 190.785156 123.453125 C 191.628906 124.160156 192.507812 124.828125 193.4375 125.410156 C 194.371094 125.992188 195.34375 126.507812 196.363281 126.90625 C 196.445312 126.9375 196.542969 126.910156 196.589844 126.832031 C 196.644531 126.742188 196.617188 126.628906 196.53125 126.574219 C 195.613281 126.007812 194.710938 125.429688 193.84375 124.804688 C 192.96875 124.183594 192.121094 123.542969 191.320312 122.832031 C 190.496094 122.15625 189.734375 121.410156 188.984375 120.644531 Z M 223.21875 74.984375 L 223.25 74.988281 C 223.246094 74.980469 223.242188 74.96875 223.234375 74.941406 Z M 219.921875 80.042969 C 219.867188 79.855469 219.867188 79.648438 219.894531 79.457031 C 219.949219 79.066406 220.132812 78.734375 220.34375 78.472656 C 220.675781 78.070312 221.046875 77.765625 221.460938 77.503906 C 221.375 77.371094 221.304688 77.21875 221.265625 77.046875 C 221.175781 76.699219 221.238281 76.308594 221.386719 76.011719 C 221.535156 75.707031 221.738281 75.472656 221.960938 75.277344 C 222.113281 75.136719 222.273438 75.023438 222.441406 74.910156 C 222.441406 74.882812 222.441406 74.847656 222.441406 74.816406 C 222.445312 74.699219 222.460938 74.589844 222.476562 74.484375 C 222.507812 74.273438 222.550781 74.070312 222.601562 73.875 C 222.652344 73.675781 222.710938 73.484375 222.769531 73.292969 C 222.832031 73.105469 222.925781 72.859375 223.058594 72.667969 C 223.316406 72.257812 223.742188 71.984375 224.164062 71.832031 C 224.472656 71.730469 224.78125 71.6875 225.097656 71.679688 C 225.171875 70.832031 225.34375 70.039062 225.734375 69.234375 C 226 68.71875 226.453125 68.453125 226.863281 68.195312 C 227.296875 67.96875 227.738281 67.789062 228.183594 67.648438 C 229.078125 67.359375 229.988281 67.191406 230.902344 67.070312 C 231.816406 66.949219 232.730469 66.867188 233.652344 66.832031 C 233.738281 66.832031 233.8125 66.898438 233.816406 66.980469 C 233.816406 67.066406 233.753906 67.136719 233.671875 67.144531 L 233.667969 67.144531 C 231.871094 67.328125 230.058594 67.644531 228.375 68.21875 C 227.566406 68.507812 226.679688 68.914062 226.347656 69.554688 C 226.035156 70.246094 225.871094 71.125 225.824219 71.917969 C 226.570312 71.867188 227.320312 71.835938 228.0625 71.816406 C 229.328125 71.785156 230.59375 71.800781 231.863281 71.796875 C 233.128906 71.828125 234.394531 71.847656 235.660156 71.898438 C 236.921875 71.953125 238.1875 72.007812 239.449219 72.105469 C 239.550781 72.113281 239.628906 72.203125 239.621094 72.304688 C 239.613281 72.398438 239.539062 72.46875 239.449219 72.476562 C 238.179688 72.574219 236.914062 72.605469 235.648438 72.625 C 234.382812 72.640625 233.117188 72.617188 231.851562 72.613281 L 228.058594 72.507812 L 225.484375 72.40625 C 225.460938 72.410156 225.4375 72.421875 225.414062 72.417969 L 225.398438 72.417969 C 225.09375 72.398438 224.71875 72.445312 224.421875 72.550781 C 224.121094 72.667969 223.863281 72.84375 223.707031 73.097656 C 223.558594 73.320312 223.464844 73.707031 223.371094 74.070312 C 223.328125 74.246094 223.289062 74.425781 223.265625 74.597656 C 223.257812 74.683594 223.246094 74.765625 223.242188 74.84375 C 223.242188 74.882812 223.242188 74.921875 223.246094 74.949219 C 223.242188 74.957031 223.25 74.976562 223.253906 74.988281 L 226.347656 75.199219 C 227.496094 75.273438 228.644531 75.367188 229.792969 75.417969 C 230.945312 75.503906 232.09375 75.546875 233.246094 75.609375 C 234.398438 75.675781 235.546875 75.726562 236.703125 75.820312 C 236.804688 75.828125 236.882812 75.917969 236.875 76.023438 C 236.867188 76.113281 236.792969 76.183594 236.703125 76.191406 C 235.546875 76.292969 234.386719 76.328125 233.226562 76.335938 C 232.066406 76.339844 230.90625 76.289062 229.746094 76.234375 C 228.585938 76.136719 227.425781 76.046875 226.277344 75.882812 C 225.214844 75.738281 224.15625 75.558594 223.109375 75.328125 L 223.0625 75.472656 C 222.683594 75.695312 222.285156 76.03125 222.121094 76.371094 C 222.035156 76.539062 222.015625 76.699219 222.050781 76.859375 C 222.074219 77.019531 222.210938 77.183594 222.335938 77.34375 L 222.351562 77.363281 C 222.394531 77.414062 222.417969 77.472656 222.433594 77.535156 C 223.394531 77.710938 224.355469 77.890625 225.320312 78.050781 C 226.394531 78.226562 227.46875 78.417969 228.550781 78.566406 L 231.789062 79.074219 C 232.871094 79.246094 233.953125 79.414062 235.03125 79.625 C 235.132812 79.644531 235.199219 79.738281 235.179688 79.84375 C 235.160156 79.933594 235.082031 79.992188 234.992188 79.992188 C 233.890625 79.976562 232.792969 79.898438 231.695312 79.792969 C 230.601562 79.6875 229.511719 79.535156 228.421875 79.375 C 227.335938 79.179688 226.25 78.992188 225.179688 78.726562 C 224.222656 78.496094 223.269531 78.21875 222.335938 77.882812 C 222.320312 77.902344 222.3125 77.921875 222.292969 77.9375 C 222.273438 77.953125 222.25 77.96875 222.230469 77.980469 C 221.761719 78.226562 221.28125 78.570312 220.960938 78.957031 C 220.800781 79.15625 220.695312 79.367188 220.664062 79.570312 C 220.648438 79.667969 220.644531 79.769531 220.675781 79.867188 C 220.683594 79.925781 220.699219 79.96875 220.699219 79.957031 C 220.691406 79.964844 220.75 80 220.765625 80.023438 C 221.117188 80.289062 221.730469 80.457031 222.265625 80.613281 C 222.828125 80.765625 223.402344 80.886719 223.984375 80.996094 C 226.304688 81.410156 228.667969 81.714844 231.027344 81.964844 C 231.128906 81.976562 231.203125 82.066406 231.199219 82.167969 C 231.1875 82.265625 231.101562 82.339844 231.003906 82.335938 C 228.617188 82.222656 226.234375 82.050781 223.863281 81.675781 C 223.269531 81.585938 222.675781 81.476562 222.085938 81.339844 C 221.484375 81.171875 220.90625 81.054688 220.285156 80.628906 C 220.199219 80.539062 220.121094 80.5 220.046875 80.367188 C 219.960938 80.230469 219.9375 80.128906 219.921875 80.042969 Z M 225.03125 302.679688 C 225.324219 302.585938 225.753906 302.453125 226.207031 302.273438 L 226.636719 299.054688 C 226.636719 300.019531 224.21875 300.90625 220.183594 301.605469 C 220.183594 301.605469 220.097656 302.476562 219.933594 303.777344 C 221.960938 303.457031 223.691406 303.089844 225.03125 302.679688 Z M 294.160156 28.710938 C 294.21875 28.777344 294.324219 28.789062 294.402344 28.738281 C 294.484375 28.679688 294.507812 28.5625 294.449219 28.476562 C 293.949219 27.746094 293.742188 26.871094 293.710938 26 C 293.691406 25.125 293.820312 24.214844 294.148438 23.441406 C 294.46875 22.65625 295.003906 21.964844 295.707031 21.523438 C 296.402344 21.078125 297.289062 20.890625 298.148438 21.082031 L 298.152344 21.082031 C 298.21875 21.097656 298.292969 21.066406 298.328125 21.003906 C 298.367188 20.925781 298.332031 20.828125 298.257812 20.789062 C 297.367188 20.328125 296.246094 20.410156 295.339844 20.878906 C 294.417969 21.355469 293.757812 22.210938 293.398438 23.140625 C 293.042969 24.089844 292.960938 25.070312 293.050781 26.042969 C 293.140625 27.007812 293.492188 27.992188 294.160156 28.710938 Z M 223.828125 320.035156 L 257.605469 329.652344 C 257.867188 329.441406 258.128906 329.234375 258.394531 329.023438 L 223.9375 319.214844 Z M 265.585938 22.75 C 265.566406 22.835938 265.617188 22.917969 265.699219 22.941406 C 270.394531 24.167969 275.101562 25.347656 279.808594 26.507812 C 284.523438 27.640625 289.234375 28.804688 293.960938 29.894531 L 293.933594 29.886719 C 295.035156 30.242188 296.269531 30.203125 297.34375 29.730469 C 297.875 29.5 298.347656 29.175781 298.757812 28.769531 C 299.183594 28.371094 299.480469 27.84375 299.632812 27.292969 C 299.65625 27.207031 299.617188 27.117188 299.535156 27.078125 C 299.441406 27.03125 299.328125 27.070312 299.285156 27.164062 C 299.0625 27.617188 298.703125 27.972656 298.328125 28.285156 C 297.9375 28.589844 297.484375 28.820312 297.039062 29.023438 C 296.144531 29.410156 295.105469 29.433594 294.175781 29.128906 L 294.148438 29.125 L 294.144531 29.125 C 289.429688 27.972656 284.703125 26.894531 279.980469 25.789062 C 275.25 24.710938 270.515625 23.652344 265.773438 22.636719 C 265.691406 22.621094 265.609375 22.667969 265.585938 22.75 Z M 268.058594 320.425781 L 225.410156 308.222656 L 225.300781 309.046875 L 267.386719 321.089844 C 267.613281 320.871094 267.835938 320.648438 268.058594 320.425781 Z M 158.6875 106.5 L 161.4375 106.324219 L 164.203125 106.167969 C 164.289062 106.160156 164.367188 106.09375 164.378906 106.003906 C 164.390625 105.902344 164.316406 105.808594 164.214844 105.796875 C 163.289062 105.667969 162.359375 105.617188 161.425781 105.601562 C 160.488281 105.578125 159.558594 105.617188 158.625 105.683594 C 157.695312 105.761719 156.769531 105.863281 155.847656 106.03125 C 154.929688 106.1875 154.011719 106.378906 153.121094 106.644531 C 153.050781 106.667969 152.996094 106.734375 153.003906 106.8125 C 153.011719 106.898438 153.085938 106.960938 153.175781 106.957031 L 155.933594 106.714844 Z M 122.4375 100.53125 C 122.351562 100.480469 122.238281 100.507812 122.1875 100.597656 L 122.183594 100.601562 L 119.34375 105.484375 C 118.878906 106.304688 118.40625 107.117188 117.953125 107.957031 C 117.84375 108.164062 117.742188 108.257812 117.703125 108.25 C 117.65625 108.265625 117.507812 108.230469 117.355469 108.113281 C 117.050781 107.878906 116.71875 107.523438 116.441406 107.179688 C 115.871094 106.480469 115.410156 105.671875 114.875 104.882812 C 114.351562 104.09375 113.808594 103.316406 113.253906 102.546875 C 112.117188 101.03125 110.910156 99.566406 109.59375 98.207031 C 109.539062 98.148438 109.449219 98.140625 109.386719 98.191406 C 109.316406 98.242188 109.304688 98.339844 109.355469 98.40625 C 110.484375 99.917969 111.601562 101.429688 112.652344 102.976562 C 113.183594 103.746094 113.703125 104.527344 114.203125 105.320312 C 114.699219 106.109375 115.203125 106.925781 115.835938 107.683594 C 116.15625 108.0625 116.472656 108.40625 116.914062 108.742188 C 117.140625 108.894531 117.460938 109.082031 117.890625 108.980469 C 118.324219 108.855469 118.488281 108.484375 118.589844 108.289062 C 119.007812 107.453125 119.457031 106.625 119.902344 105.792969 C 120.257812 105.128906 120.609375 104.460938 120.960938 103.792969 C 121.316406 104.535156 121.691406 105.257812 122.074219 105.976562 C 122.515625 106.816406 122.992188 107.632812 123.46875 108.453125 C 123.953125 109.269531 124.441406 110.082031 124.960938 110.875 C 125.472656 111.667969 125.996094 112.464844 126.5625 113.230469 C 126.613281 113.300781 126.707031 113.324219 126.789062 113.285156 C 126.882812 113.246094 126.925781 113.132812 126.878906 113.039062 C 126.480469 112.175781 126.035156 111.339844 125.582031 110.503906 C 125.132812 109.667969 124.65625 108.851562 124.171875 108.035156 C 123.683594 107.222656 123.191406 106.414062 122.671875 105.625 C 122.183594 104.878906 121.691406 104.140625 121.160156 103.421875 C 121.621094 102.546875 122.074219 101.664062 122.511719 100.769531 C 122.558594 100.683594 122.527344 100.578125 122.4375 100.53125 Z M 179.339844 108.84375 C 179.386719 108.917969 179.425781 109 179.472656 109.074219 C 179.800781 109.65625 180.171875 110.210938 180.542969 110.765625 C 180.921875 111.3125 181.3125 111.855469 181.742188 112.367188 C 182.167969 112.886719 182.609375 113.394531 183.125 113.84375 C 183.183594 113.894531 183.277344 113.90625 183.347656 113.859375 C 183.433594 113.800781 183.460938 113.6875 183.402344 113.601562 C 183.054688 113.039062 182.6875 112.492188 182.328125 111.9375 C 181.96875 111.382812 181.589844 110.84375 181.214844 110.296875 C 180.832031 109.761719 180.453125 109.214844 180.050781 108.691406 C 179.644531 108.164062 179.242188 107.636719 178.804688 107.132812 C 178.757812 107.082031 178.683594 107.0625 178.617188 107.089844 C 178.535156 107.125 178.5 107.222656 178.535156 107.300781 C 178.617188 107.480469 178.710938 107.652344 178.796875 107.828125 C 177.042969 108.371094 175.503906 109.597656 174.683594 111.191406 C 174.648438 111.257812 174.664062 111.339844 174.722656 111.386719 C 174.792969 111.441406 174.886719 111.433594 174.945312 111.367188 C 175.90625 110.191406 177.136719 109.289062 178.507812 108.777344 C 178.367188 109.472656 178.289062 110.175781 178.277344 110.882812 C 178.265625 111.828125 178.347656 112.789062 178.621094 113.695312 C 178.644531 113.78125 178.726562 113.835938 178.816406 113.832031 C 178.917969 113.820312 178.996094 113.730469 178.984375 113.628906 C 178.917969 112.71875 178.921875 111.816406 179.003906 110.921875 C 179.074219 110.222656 179.191406 109.527344 179.339844 108.84375 Z M 91.132812 107.664062 C 92.285156 107.3125 93.519531 107.480469 94.589844 107.949219 C 95.667969 108.414062 96.597656 109.191406 97.371094 110.109375 C 98.175781 111.011719 98.824219 112.046875 99.5 113.089844 C 100.175781 114.132812 100.855469 115.199219 101.722656 116.128906 C 101.78125 116.195312 101.882812 116.207031 101.960938 116.15625 C 102.046875 116.097656 102.070312 115.984375 102.011719 115.898438 C 101.324219 114.875 100.738281 113.800781 100.121094 112.714844 C 99.5 111.632812 98.820312 110.550781 97.984375 109.570312 C 97.132812 108.625 96.097656 107.75 94.84375 107.308594 C 93.625 106.859375 92.195312 106.789062 91.015625 107.371094 C 90.949219 107.402344 90.910156 107.484375 90.9375 107.558594 C 90.960938 107.640625 91.046875 107.6875 91.132812 107.664062 Z M 91.183594 140.507812 C 92.769531 139.320312 94.203125 137.925781 95.476562 136.394531 C 96.757812 134.863281 97.84375 133.179688 98.785156 131.417969 C 99.6875 129.640625 100.4375 127.78125 100.957031 125.859375 C 101.480469 123.933594 101.800781 121.960938 101.859375 119.972656 C 101.863281 119.878906 101.792969 119.796875 101.699219 119.785156 C 101.597656 119.773438 101.503906 119.84375 101.492188 119.945312 C 101.238281 121.886719 100.839844 123.800781 100.265625 125.660156 C 99.6875 127.511719 98.964844 129.324219 98.058594 131.042969 C 97.183594 132.777344 96.117188 134.414062 94.9375 135.960938 C 93.753906 137.507812 92.421875 138.9375 90.980469 140.269531 C 90.921875 140.324219 90.914062 140.414062 90.960938 140.476562 C 91.015625 140.546875 91.113281 140.558594 91.183594 140.507812 Z M 111.867188 147.476562 C 111.851562 147.585938 111.878906 147.703125 111.960938 147.789062 L 111.96875 147.796875 C 114.289062 150.171875 116.984375 152.207031 119.949219 153.730469 C 120.035156 153.773438 120.125 153.785156 120.222656 153.765625 C 122.234375 153.285156 124.238281 152.746094 126.148438 151.839844 C 126.203125 151.808594 126.257812 151.769531 126.292969 151.714844 C 127.503906 150 128.558594 148.175781 129.492188 146.300781 C 130.429688 144.429688 131.191406 142.472656 131.832031 140.484375 C 131.863281 140.386719 131.8125 140.285156 131.71875 140.253906 C 131.621094 140.214844 131.515625 140.265625 131.480469 140.359375 C 130.765625 142.304688 129.890625 144.1875 128.929688 146.011719 C 127.984375 147.808594 126.894531 149.53125 125.730469 151.183594 C 123.992188 151.984375 122.085938 152.496094 120.195312 152.933594 C 118.800781 152.199219 117.449219 151.386719 116.179688 150.457031 C 114.914062 149.53125 113.734375 148.503906 112.613281 147.410156 C 113.210938 143.878906 113.925781 140.371094 114.746094 136.878906 C 114.765625 136.800781 114.714844 136.71875 114.636719 136.695312 C 114.554688 136.671875 114.464844 136.71875 114.445312 136.800781 C 113.410156 140.3125 112.558594 143.878906 111.867188 147.476562 Z M 115.042969 134.847656 C 116.417969 135.4375 117.824219 135.941406 119.246094 136.40625 C 120.667969 136.871094 122.113281 137.257812 123.5625 137.632812 C 125.019531 137.972656 126.480469 138.289062 127.957031 138.535156 C 129.433594 138.777344 130.914062 138.976562 132.40625 139.085938 C 132.5 139.09375 132.582031 139.03125 132.601562 138.9375 C 132.625 138.835938 132.5625 138.742188 132.460938 138.71875 L 128.09375 137.820312 C 126.640625 137.511719 125.195312 137.203125 123.757812 136.839844 C 122.308594 136.511719 120.875 136.125 119.441406 135.742188 L 115.144531 134.546875 C 115.070312 134.527344 114.992188 134.566406 114.960938 134.636719 C 114.925781 134.71875 114.964844 134.8125 115.042969 134.847656 Z M 86.855469 151 C 86.597656 147.765625 86.699219 144.183594 87.535156 140.507812 C 87.535156 140.507812 95.242188 142.070312 101.511719 137.355469 C 105.046875 134.703125 107.390625 131.269531 108.765625 128.777344 C 108.761719 128.773438 107.835938 119.628906 105.992188 114.273438 C 103.449219 106.894531 99.351562 103.714844 99.351562 103.714844 L 106.9375 99.773438 C 106.9375 99.773438 111.648438 103.453125 113.65625 110.832031 C 115.164062 116.363281 117.015625 123.6875 117.851562 127.007812 L 133.730469 130.21875 C 133.730469 130.21875 136.140625 119.519531 135.496094 114.929688 C 135.128906 112.289062 133.777344 107.78125 132.695312 104.414062 C 132.523438 104.3125 132.347656 104.214844 132.179688 104.101562 C 131.941406 103.949219 131.707031 103.792969 131.472656 103.625 L 130.910156 104.574219 C 130.589844 105.113281 130.285156 105.660156 129.949219 106.203125 C 129.90625 106.28125 129.808594 106.300781 129.734375 106.257812 C 129.671875 106.21875 129.648438 106.148438 129.664062 106.085938 C 129.8125 105.457031 130.039062 104.855469 130.289062 104.261719 C 130.535156 103.667969 130.839844 103.097656 131.160156 102.542969 C 131.496094 101.992188 131.851562 101.453125 132.253906 100.953125 C 132.652344 100.449219 133.074219 99.964844 133.554688 99.53125 C 133.632812 99.460938 133.75 99.464844 133.820312 99.542969 C 133.878906 99.601562 133.882812 99.695312 133.84375 99.765625 L 131.867188 102.964844 L 131.738281 103.175781 C 132.003906 103.257812 132.261719 103.351562 132.519531 103.460938 C 132.90625 103.621094 133.277344 103.824219 133.640625 104.035156 C 134 104.253906 134.351562 104.484375 134.679688 104.753906 C 134.96875 104.984375 135.246094 105.230469 135.5 105.511719 L 135.230469 100.539062 L 135.78125 100.609375 C 135.78125 100.609375 140.875 110.035156 141.300781 117.066406 C 141.722656 124.09375 139.132812 134.070312 139.132812 134.070312 C 138.011719 138.832031 135.054688 149.101562 129.09375 157.128906 C 127.511719 157.382812 126.203125 157.78125 124.429688 158.207031 C 121.96875 158.796875 115.957031 159.027344 115.957031 159.027344 Z M 154.351562 117.191406 C 155.527344 116.335938 156.710938 115.496094 157.921875 114.707031 C 159.132812 113.917969 160.355469 113.144531 161.621094 112.449219 C 162.871094 111.722656 164.15625 111.066406 165.457031 110.433594 C 166.757812 109.800781 168.085938 109.21875 169.421875 108.644531 C 169.503906 108.609375 169.550781 108.519531 169.527344 108.425781 C 169.496094 108.324219 169.394531 108.269531 169.296875 108.296875 C 167.882812 108.691406 166.503906 109.195312 165.15625 109.773438 C 163.808594 110.351562 162.5 111.027344 161.21875 111.738281 C 159.953125 112.484375 158.707031 113.265625 157.527344 114.140625 C 156.34375 115.007812 155.203125 115.933594 154.152344 116.949219 C 154.09375 117.003906 154.082031 117.089844 154.132812 117.15625 C 154.183594 117.226562 154.28125 117.242188 154.351562 117.191406 Z M 134.878906 166.941406 C 134.9375 166.9375 134.996094 166.902344 135.023438 166.84375 C 135.078125 166.75 135.042969 166.632812 134.949219 166.582031 L 134.941406 166.578125 C 134.652344 166.417969 134.386719 166.273438 134.15625 166.082031 C 134.078125 166.027344 134.019531 165.949219 133.949219 165.886719 C 134.253906 165.753906 134.546875 165.605469 134.832031 165.4375 L 134.839844 165.433594 C 134.882812 165.410156 134.914062 165.359375 134.914062 165.304688 C 134.921875 165.214844 134.855469 165.140625 134.765625 165.132812 C 134.1875 165.101562 133.65625 165.242188 133.171875 165.332031 C 132.941406 164.726562 132.5625 164.164062 132.074219 163.765625 C 131.410156 163.1875 130.652344 162.816406 129.898438 162.492188 C 129.820312 162.457031 129.722656 162.484375 129.671875 162.558594 C 129.613281 162.640625 129.632812 162.757812 129.71875 162.816406 C 130.386719 163.289062 131.066406 163.726562 131.59375 164.273438 C 132.125 164.820312 132.453125 165.460938 132.570312 166.207031 C 132.699219 166.949219 132.664062 167.734375 132.625 168.546875 C 132.59375 169.355469 132.550781 170.210938 132.761719 171.042969 C 132.78125 171.109375 132.839844 171.160156 132.914062 171.160156 C 133.003906 171.160156 133.074219 171.089844 133.074219 171.003906 C 133.082031 170.203125 133.210938 169.421875 133.332031 168.609375 C 133.429688 167.9375 133.492188 167.226562 133.421875 166.503906 C 133.535156 166.582031 133.648438 166.667969 133.769531 166.726562 C 134.121094 166.886719 134.5 166.988281 134.878906 166.941406 Z M 114.070312 75.363281 L 114.089844 75.359375 C 114.414062 75.28125 114.738281 75.214844 115.066406 75.238281 C 115.390625 75.25 115.710938 75.300781 116.023438 75.394531 C 116.335938 75.484375 116.636719 75.613281 116.917969 75.777344 C 117.191406 75.9375 117.484375 76.132812 117.703125 76.324219 C 117.710938 76.328125 117.722656 76.339844 117.730469 76.34375 C 117.828125 76.414062 117.941406 76.433594 118.050781 76.40625 C 117.953125 77.183594 119.128906 83.160156 119.128906 83.160156 C 119.128906 83.160156 120.957031 81.890625 120.984375 79.953125 C 121 79.03125 120.941406 77.316406 120.871094 75.773438 C 123.054688 74.316406 124.789062 73.300781 124.789062 73.300781 C 124.789062 73.300781 127.84375 71.382812 127.421875 67.664062 C 128.257812 67.179688 129.117188 66.730469 130.015625 66.367188 C 130.09375 66.332031 130.175781 66.300781 130.253906 66.269531 C 130.222656 66.351562 130.1875 66.441406 130.15625 66.523438 C 128.84375 69.769531 127.042969 72.769531 124.480469 75.15625 C 126.324219 74.785156 128.191406 74.40625 129.886719 73.589844 C 131.585938 72.769531 133.34375 71.496094 134.023438 69.742188 C 133.859375 71.324219 133.8125 72.773438 133.003906 74.144531 C 135.429688 73.167969 137.46875 71.273438 138.617188 68.925781 C 138.898438 68.355469 139.121094 67.757812 139.292969 67.148438 C 140.039062 68.4375 140.523438 69.875 140.71875 71.347656 C 140.394531 71.34375 140.066406 71.367188 139.75 71.4375 C 139.316406 71.542969 138.898438 71.707031 138.523438 71.953125 C 138.148438 72.1875 137.808594 72.480469 137.558594 72.84375 C 137.527344 72.890625 137.519531 72.957031 137.550781 73.011719 C 137.59375 73.089844 137.691406 73.117188 137.769531 73.074219 C 138.132812 72.878906 138.476562 72.703125 138.835938 72.566406 C 139.199219 72.433594 139.558594 72.3125 139.933594 72.238281 C 140.214844 72.171875 140.503906 72.136719 140.789062 72.105469 C 140.824219 72.671875 140.8125 73.234375 140.75 73.800781 C 142 72.839844 142.753906 71.835938 143.382812 70.390625 C 143.921875 71.117188 144.0625 72.089844 143.957031 72.984375 C 145.746094 70.761719 146.46875 65.398438 144.738281 61.199219 C 144.75 61.1875 144.761719 61.175781 144.777344 61.164062 C 144.84375 61.113281 144.859375 61.019531 144.808594 60.949219 C 144.757812 60.878906 144.660156 60.863281 144.589844 60.914062 L 144.578125 60.921875 C 142.480469 62.441406 140.007812 63.480469 137.46875 63.855469 C 134.878906 64.199219 132.199219 64.617188 129.730469 65.671875 C 127.246094 66.660156 124.964844 68.125 122.949219 69.871094 L 117.90625 75.519531 C 117.699219 75.371094 117.484375 75.242188 117.253906 75.132812 C 116.910156 74.96875 116.546875 74.847656 116.175781 74.769531 C 115.804688 74.683594 115.417969 74.667969 115.039062 74.714844 C 114.660156 74.746094 114.300781 74.871094 113.957031 75.011719 C 113.875 75.046875 113.824219 75.136719 113.847656 75.226562 C 113.871094 75.328125 113.96875 75.386719 114.070312 75.363281 Z M 113.332031 77.675781 C 113.824219 77.878906 114.269531 78.15625 114.660156 78.476562 C 114.804688 78.601562 114.9375 78.746094 115.066406 78.886719 C 114.851562 78.957031 114.652344 79.085938 114.519531 79.257812 C 114.320312 79.488281 114.207031 79.816406 114.234375 80.128906 C 114.265625 80.433594 114.386719 80.683594 114.511719 80.886719 C 115.019531 81.664062 115.765625 82.257812 116.613281 82.53125 C 116.691406 82.554688 116.78125 82.527344 116.828125 82.453125 C 116.886719 82.367188 116.859375 82.25 116.769531 82.195312 C 116.09375 81.75 115.53125 81.167969 115.175781 80.5 C 115 80.164062 114.996094 79.953125 115.140625 79.777344 C 115.273438 79.613281 115.542969 79.585938 115.714844 79.714844 L 115.738281 79.734375 C 115.867188 79.828125 116.050781 79.839844 116.191406 79.742188 C 116.371094 79.621094 116.421875 79.378906 116.300781 79.195312 C 115.96875 78.695312 115.535156 78.277344 115.035156 77.964844 C 114.539062 77.644531 113.976562 77.441406 113.410156 77.375 C 113.339844 77.367188 113.269531 77.40625 113.242188 77.472656 C 113.210938 77.554688 113.25 77.648438 113.332031 77.675781 Z M 134.664062 88.6875 C 135.359375 89 136.109375 89.195312 136.867188 89.230469 C 137.621094 89.269531 138.386719 89.179688 139.082031 88.921875 C 139.160156 88.894531 139.210938 88.816406 139.203125 88.730469 C 139.195312 88.628906 139.105469 88.550781 139 88.558594 C 138.300781 88.621094 137.613281 88.609375 136.941406 88.507812 C 136.269531 88.398438 135.613281 88.21875 135.003906 87.941406 C 134.386719 87.671875 133.816406 87.300781 133.289062 86.875 C 132.761719 86.441406 132.296875 85.929688 131.871094 85.363281 C 131.832031 85.308594 131.757812 85.285156 131.691406 85.3125 C 131.605469 85.339844 131.566406 85.433594 131.597656 85.515625 C 131.863281 86.210938 132.292969 86.839844 132.816406 87.382812 C 133.339844 87.929688 133.972656 88.367188 134.664062 88.6875 Z M 141.683594 82.511719 C 141.875 82.390625 142.09375 82.253906 142.28125 82 C 142.476562 81.753906 142.550781 81.347656 142.4375 81.023438 C 142.183594 80.402344 141.707031 80.15625 141.316406 79.925781 C 140.539062 79.507812 139.742188 79.113281 138.921875 78.785156 C 138.101562 78.449219 137.269531 78.15625 136.410156 77.9375 C 136.34375 77.921875 136.269531 77.953125 136.230469 78.019531 C 136.195312 78.097656 136.226562 78.191406 136.304688 78.230469 L 138.632812 79.414062 C 139.398438 79.816406 140.164062 80.21875 140.917969 80.644531 C 141.277344 80.824219 141.605469 81.082031 141.679688 81.289062 C 141.710938 81.382812 141.714844 81.453125 141.644531 81.558594 C 141.578125 81.664062 141.4375 81.785156 141.269531 81.917969 C 140.597656 82.429688 139.863281 82.863281 139.09375 83.246094 C 139.015625 83.285156 138.972656 83.371094 138.992188 83.457031 C 139.015625 83.558594 139.117188 83.617188 139.21875 83.597656 C 140.089844 83.382812 140.921875 83 141.683594 82.511719 Z M 132.089844 74.035156 C 132.160156 74.019531 132.21875 73.964844 132.238281 73.890625 C 132.257812 73.789062 132.191406 73.6875 132.089844 73.664062 C 131.878906 73.617188 131.660156 73.59375 131.445312 73.570312 C 131.226562 73.570312 131.003906 73.558594 130.785156 73.582031 C 130.339844 73.601562 129.90625 73.722656 129.488281 73.867188 C 129.070312 74.03125 128.667969 74.238281 128.320312 74.519531 C 127.96875 74.800781 127.652344 75.117188 127.441406 75.53125 C 127.414062 75.582031 127.417969 75.648438 127.453125 75.695312 C 127.503906 75.769531 127.601562 75.785156 127.671875 75.734375 L 127.6875 75.722656 C 128.339844 75.257812 129.042969 74.898438 129.773438 74.632812 C 130.503906 74.371094 131.265625 74.210938 132.085938 74.035156 Z M 139.753906 76.855469 C 140.238281 76.789062 140.558594 76.144531 140.464844 75.40625 C 140.371094 74.667969 139.898438 74.121094 139.414062 74.179688 C 138.925781 74.242188 138.609375 74.890625 138.703125 75.628906 C 138.792969 76.367188 139.265625 76.914062 139.753906 76.855469 Z M 131.253906 77.210938 C 131.347656 77.945312 131.027344 78.597656 130.542969 78.65625 C 130.054688 78.71875 129.585938 78.171875 129.488281 77.433594 C 129.398438 76.695312 129.714844 76.046875 130.199219 75.984375 C 130.6875 75.921875 131.160156 76.46875 131.253906 77.210938"/></g></svg>