<svg xmlns="http://www.w3.org/2000/svg" width="375" viewBox="0 0 375 375" height="375" version="1.0"><defs><clipPath id="a"><path d="M 0.367188 7.296875 L 365.363281 7.296875 L 365.363281 312.75 L 0.367188 312.75 Z M 0.367188 7.296875"/></clipPath></defs><path fill="#CAEEFB" d="M 301.472656 23.101562 C 301.472656 27.71875 305.234375 31.476562 309.851562 31.476562 C 314.472656 31.476562 318.234375 27.71875 318.234375 23.101562 C 318.234375 18.484375 314.472656 14.726562 309.851562 14.726562 C 305.234375 14.726562 301.472656 18.484375 301.472656 23.101562 Z M 292.351562 23.101562 C 292.351562 13.457031 300.203125 5.609375 309.851562 5.609375 C 319.503906 5.609375 327.351562 13.457031 327.351562 23.101562 C 327.351562 32.746094 319.503906 40.589844 309.851562 40.589844 C 300.203125 40.589844 292.351562 32.746094 292.351562 23.101562 Z M 364.4375 311.597656 L 23.847656 311.597656 C 18.347656 228.046875 51.351562 265.398438 77.167969 235.910156 C 102.988281 206.421875 89.863281 104.191406 155.070312 104.191406 C 222.136719 104.191406 183.023438 0 240.472656 0 C 312.449219 0 274.199219 89.902344 327.457031 89.902344 C 374.621094 89.902344 364.4375 311.597656 364.4375 311.597656"/><g clip-path="url(#a)"><path fill="#FAB328" d="M 16.890625 139.925781 C 17.519531 136.019531 18.828125 128.992188 20.832031 123.015625 C 23.792969 114.203125 31.199219 105.199219 31.804688 102.984375 C 32.171875 101.632812 32.050781 100.167969 31.898438 99.226562 C 31.816406 98.695312 32.207031 98.207031 32.746094 98.179688 L 33.117188 98.160156 L 34.46875 96.96875 L 40.839844 98.699219 C 39.675781 97.6875 38.933594 96.191406 38.933594 94.527344 C 38.933594 91.464844 41.414062 88.984375 44.476562 88.984375 C 47.539062 88.984375 50.019531 91.464844 50.019531 94.527344 C 50.019531 96.179688 49.289062 97.664062 48.136719 98.675781 L 54.5 96.90625 L 55.859375 98.085938 L 56.226562 98.105469 C 56.765625 98.132812 57.164062 98.613281 57.082031 99.148438 C 56.9375 100.089844 56.828125 101.554688 57.203125 102.902344 C 57.820312 105.113281 65.28125 114.070312 68.296875 122.867188 C 70.34375 128.832031 71.691406 135.847656 72.347656 139.746094 C 72.632812 141.449219 71.589844 143.085938 69.929688 143.550781 C 68.066406 144.066406 66.152344 142.917969 65.738281 141.03125 C 64.019531 133.28125 59.066406 114.671875 49.699219 106.539062 L 47.621094 99.085938 C 46.730469 99.703125 45.644531 100.066406 44.476562 100.066406 C 43.320312 100.066406 42.25 99.710938 41.359375 99.109375 L 39.328125 106.570312 C 30.015625 114.761719 25.179688 133.40625 23.507812 141.167969 C 23.105469 143.054688 21.195312 144.214844 19.332031 143.710938 C 17.667969 143.257812 16.613281 141.625 16.890625 139.925781 Z M 88.035156 127.660156 L 81.035156 127.660156 L 82.628906 78.527344 L 86.441406 78.527344 Z M 122.839844 84.039062 L 131.128906 84.039062 L 125.269531 89.894531 C 123.890625 88.296875 123.003906 86.265625 122.839844 84.039062 Z M 125.269531 76.65625 L 131.128906 82.511719 L 122.839844 82.511719 C 123.003906 80.28125 123.890625 78.253906 125.269531 76.65625 Z M 143.105469 82.511719 L 134.820312 82.511719 L 140.675781 76.65625 C 142.054688 78.253906 142.941406 80.28125 143.105469 82.511719 Z M 134.820312 84.039062 L 143.105469 84.039062 C 142.941406 86.265625 142.054688 88.296875 140.675781 89.894531 Z M 133.734375 85.117188 L 139.59375 90.976562 C 137.996094 92.351562 135.96875 93.234375 133.734375 93.402344 Z M 132.207031 93.402344 C 129.976562 93.234375 127.949219 92.351562 126.351562 90.976562 L 132.207031 85.117188 Z M 132.207031 81.429688 L 126.351562 75.574219 C 127.949219 74.199219 129.976562 73.316406 132.207031 73.148438 Z M 133.734375 73.148438 C 135.96875 73.316406 137.996094 74.199219 139.59375 75.574219 L 133.734375 81.429688 Z M 145.4375 83.273438 C 145.4375 76.40625 139.847656 70.816406 132.972656 70.816406 C 126.097656 70.816406 120.507812 76.40625 120.507812 83.273438 C 120.507812 90.144531 126.097656 95.730469 132.972656 95.730469 C 139.847656 95.730469 145.4375 90.144531 145.4375 83.273438 Z M 60.597656 206.492188 L 58.492188 206.492188 C 58.371094 206.914062 58 207.230469 57.535156 207.230469 L 53.988281 207.230469 C 53.527344 207.230469 53.152344 206.914062 53.035156 206.492188 L 50.925781 206.492188 C 50.097656 206.492188 49.433594 205.820312 49.433594 205 L 49.433594 202.667969 C 49.433594 201.84375 50.097656 201.175781 50.925781 201.175781 L 53.035156 201.175781 C 53.152344 200.753906 53.527344 200.4375 53.988281 200.4375 L 57.535156 200.4375 C 58 200.4375 58.371094 200.753906 58.492188 201.175781 L 60.597656 201.175781 C 61.425781 201.175781 62.09375 201.84375 62.09375 202.667969 L 62.09375 205 C 62.09375 205.820312 61.425781 206.492188 60.597656 206.492188 Z M 51.726562 233.582031 L 59.796875 233.582031 C 59.796875 235.246094 58.453125 236.59375 56.789062 236.59375 L 54.734375 236.59375 C 53.074219 236.59375 51.726562 235.246094 51.726562 233.582031 Z M 35.050781 206.78125 L 32.9375 206.78125 C 32.820312 207.199219 32.449219 207.515625 31.988281 207.515625 L 28.4375 207.515625 C 27.976562 207.515625 27.605469 207.199219 27.484375 206.78125 L 25.375 206.78125 C 24.550781 206.78125 23.882812 206.113281 23.882812 205.289062 L 23.882812 202.957031 C 23.882812 202.132812 24.550781 201.464844 25.375 201.464844 L 27.484375 201.464844 C 27.605469 201.042969 27.976562 200.726562 28.4375 200.726562 L 31.988281 200.726562 C 32.449219 200.726562 32.820312 201.042969 32.9375 201.464844 L 35.050781 201.464844 C 35.871094 201.464844 36.542969 202.132812 36.542969 202.957031 L 36.542969 205.289062 C 36.542969 206.113281 35.871094 206.78125 35.050781 206.78125 Z M 26.175781 233.875 L 34.246094 233.875 C 34.246094 235.535156 32.902344 236.882812 31.238281 236.882812 L 29.183594 236.882812 C 27.523438 236.882812 26.175781 235.535156 26.175781 233.875 Z M 172.34375 39.886719 L 172.34375 37.644531 C 172.34375 36.84375 172.996094 36.195312 173.796875 36.195312 L 181.109375 36.195312 L 181.109375 41.339844 L 173.796875 41.339844 C 172.996094 41.339844 172.34375 40.6875 172.34375 39.886719 Z M 67.464844 34.777344 L 73.347656 34.777344 C 74.335938 34.777344 75.132812 35.574219 75.132812 36.558594 L 75.132812 39.554688 C 75.132812 40.539062 74.335938 41.339844 73.347656 41.339844 L 65.5 41.339844 Z M 39.898438 21.375 L 39.667969 21.375 L 39.667969 16.894531 C 39.667969 11.777344 43.816406 7.628906 48.9375 7.628906 L 73.066406 7.628906 L 73.066406 17.976562 C 73.066406 19.855469 71.546875 21.375 69.667969 21.375 L 53.476562 21.375 C 52.152344 21.375 51.082031 22.449219 51.082031 23.769531 L 51.082031 49.519531 L 47.058594 49.519531 C 42.984375 49.519531 39.695312 46.203125 39.726562 42.136719 Z M 309.851562 15.050781 C 314.304688 15.050781 317.910156 18.65625 317.910156 23.101562 C 317.910156 27.550781 314.304688 31.15625 309.851562 31.15625 C 305.402344 31.15625 301.792969 27.550781 301.792969 23.101562 C 301.792969 18.65625 305.402344 15.050781 309.851562 15.050781 Z M 309.851562 34.378906 C 316.082031 34.378906 321.136719 29.328125 321.136719 23.101562 C 321.136719 16.875 316.082031 11.824219 309.851562 11.824219 C 303.621094 11.824219 298.570312 16.875 298.570312 23.101562 C 298.570312 29.328125 303.621094 34.378906 309.851562 34.378906 Z M 246.289062 83.703125 L 246.289062 21.859375 C 246.289062 20.109375 247.707031 18.695312 249.449219 18.695312 L 268.808594 18.695312 C 270.550781 18.695312 271.96875 20.109375 271.96875 21.859375 L 271.96875 31.078125 C 271.96875 31.941406 271.652344 32.777344 271.078125 33.425781 L 256.273438 50.214844 L 256.273438 83.703125 C 256.273438 86.457031 254.039062 88.691406 251.28125 88.691406 C 248.523438 88.691406 246.289062 86.457031 246.289062 83.703125 Z M 95.59375 294.625 L 90.957031 307.179688 C 90.769531 307.683594 90.289062 308.023438 89.75 308.023438 L 81.058594 308.023438 C 80.535156 308.023438 80.0625 307.699219 79.863281 307.210938 L 74.84375 294.65625 C 74.503906 293.8125 75.128906 292.894531 76.035156 292.894531 L 94.386719 292.894531 C 95.28125 292.894531 95.902344 293.789062 95.59375 294.625 Z M 105.3125 288.4375 C 105.3125 289.070312 104.800781 289.582031 104.167969 289.582031 L 67.863281 289.582031 L 76.3125 311.195312 C 76.367188 311.332031 76.390625 311.472656 76.390625 311.613281 C 76.390625 312.066406 76.117188 312.5 75.664062 312.679688 C 75.527344 312.730469 75.386719 312.757812 75.246094 312.757812 C 74.789062 312.757812 74.359375 312.480469 74.179688 312.027344 L 74.019531 311.613281 L 65.402344 289.582031 L 62.121094 289.582031 L 70.570312 311.195312 C 70.625 311.332031 70.648438 311.472656 70.648438 311.613281 C 70.648438 312.066406 70.375 312.5 69.921875 312.679688 C 69.785156 312.730469 69.644531 312.757812 69.503906 312.757812 C 69.046875 312.757812 68.613281 312.480469 68.433594 312.027344 L 68.273438 311.613281 L 59.660156 289.582031 L 15.636719 289.582031 L 24.085938 311.195312 C 24.140625 311.332031 24.160156 311.472656 24.160156 311.613281 C 24.160156 312.066406 23.886719 312.5 23.433594 312.679688 C 23.296875 312.730469 23.15625 312.757812 23.019531 312.757812 C 22.558594 312.757812 22.128906 312.480469 21.953125 312.027344 L 21.785156 311.613281 L 13.175781 289.582031 L 9.894531 289.582031 L 18.339844 311.195312 C 18.394531 311.332031 18.417969 311.472656 18.417969 311.613281 C 18.417969 312.066406 18.144531 312.5 17.691406 312.679688 C 17.554688 312.730469 17.414062 312.757812 17.273438 312.757812 C 16.816406 312.757812 16.382812 312.480469 16.207031 312.027344 L 16.042969 311.613281 L 7.433594 289.582031 L 1.511719 289.582031 C 0.878906 289.582031 0.367188 289.070312 0.367188 288.4375 C 0.367188 287.804688 0.878906 287.292969 1.511719 287.292969 L 2.046875 287.292969 L 13.328125 263.234375 L 92.351562 263.234375 L 102.015625 287.292969 L 104.167969 287.292969 C 104.800781 287.292969 105.3125 287.804688 105.3125 288.4375 Z M 279.570312 126 L 281.390625 110.921875 C 281.503906 110 282.285156 109.304688 283.21875 109.304688 L 291.441406 109.304688 C 292.375 109.304688 293.160156 110 293.269531 110.921875 L 295.089844 126 C 295.222656 127.097656 294.367188 128.0625 293.265625 128.0625 L 281.398438 128.0625 C 280.292969 128.0625 279.4375 127.097656 279.570312 126 Z M 193.703125 117.464844 L 211.003906 117.417969 L 210.40625 137.433594 L 199.394531 139.875 C 194.007812 159.777344 178.6875 205.714844 178.6875 205.714844 L 140.238281 205.714844 C 140.238281 205.714844 146.890625 146.382812 152.800781 133.304688 C 158.710938 120.230469 169.402344 117.417969 169.402344 117.417969 L 170.125 115.121094 L 169.042969 114.382812 L 172.683594 107.25 L 187.53125 113.078125 L 189.917969 117.417969 L 190.753906 117.417969 L 192.875 113.449219 L 192.769531 110.972656 L 195.59375 112.054688 L 196.21875 116.800781 L 194.21875 115.957031 Z M 282.222656 167.042969 L 278.355469 174.097656 C 277.847656 175.03125 276.871094 175.625 275.804688 175.644531 L 269.851562 175.78125 L 257.9375 197.535156 C 260.675781 200.585938 261.347656 205.148438 259.265625 208.949219 C 257.179688 212.753906 252.976562 214.648438 248.925781 213.984375 L 254.222656 204.3125 L 252.554688 200.476562 L 248.425781 201.140625 L 243.125 210.8125 C 240.386719 207.757812 239.714844 203.195312 241.796875 199.394531 C 243.878906 195.589844 248.085938 193.699219 252.136719 194.363281 L 264.050781 172.609375 L 260.957031 167.523438 C 260.402344 166.613281 260.378906 165.476562 260.890625 164.539062 L 264.753906 157.484375 C 265.265625 156.550781 266.242188 155.957031 267.308594 155.933594 L 273.261719 155.796875 L 270.289062 161.21875 L 268.796875 161.253906 L 266.246094 165.910156 L 269.007812 170.445312 L 274.316406 170.324219 L 276.867188 165.667969 L 276.089844 164.394531 L 279.0625 158.972656 L 282.15625 164.054688 C 282.707031 164.96875 282.734375 166.105469 282.222656 167.042969 Z M 357.828125 146.328125 L 230.925781 146.328125 L 230.925781 311.597656 L 364.4375 311.597656 C 364.4375 311.597656 369.011719 212.007812 357.828125 146.328125"/></g><path fill="#70D0DB" d="M 53.117188 75.667969 L 49.855469 74.78125 L 45.933594 89.179688 C 48.1875 89.792969 49.730469 91.714844 49.976562 93.90625 C 49.992188 94.074219 50.003906 94.246094 50.007812 94.414062 C 50.011719 94.464844 50.015625 94.515625 50.011719 94.566406 C 50 96.152344 49.308594 97.644531 48.140625 98.675781 L 52.199219 97.546875 L 51.472656 94.933594 L 51.890625 94.582031 Z M 38.960938 94.0625 C 39.148438 91.820312 40.691406 89.828125 42.988281 89.1875 L 38.976562 74.8125 L 35.71875 75.722656 L 37.066406 94.628906 L 38.023438 95.421875 L 38.101562 95.402344 L 36.769531 97.585938 L 36.792969 97.601562 L 40.855469 98.707031 C 39.652344 97.664062 38.980469 96.191406 38.941406 94.664062 C 38.941406 94.65625 38.941406 94.648438 38.941406 94.640625 C 38.9375 94.449219 38.945312 94.253906 38.960938 94.0625 Z M 57.070312 158.914062 L 55.761719 155.816406 C 56.066406 156.585938 56.171875 157.359375 56.214844 158.128906 C 56.226562 158.511719 56.257812 158.902344 56.183594 159.285156 C 56.117188 159.671875 56.011719 160.054688 55.761719 160.441406 C 55.507812 160.054688 55.410156 159.671875 55.34375 159.285156 C 55.269531 158.902344 55.296875 158.511719 55.308594 158.128906 C 55.355469 157.355469 55.457031 156.585938 55.761719 155.816406 L 54.453125 158.914062 C 54.367188 159.113281 54.324219 159.332031 54.324219 159.546875 L 54.242188 200.4375 L 57.28125 200.4375 L 57.199219 159.546875 C 57.199219 159.332031 57.15625 159.113281 57.070312 158.914062 Z M 31.785156 155.816406 L 28.636719 155.816406 L 28.039062 161.546875 L 29.007812 161.546875 L 28.054688 200.804688 C 28.175781 200.753906 28.300781 200.726562 28.4375 200.726562 L 31.988281 200.726562 C 32.121094 200.726562 32.25 200.753906 32.367188 200.804688 L 31.414062 161.546875 L 32.382812 161.546875 Z M 57.703125 23.5625 L 64.378906 23.5625 L 64.378906 15.773438 L 57.703125 15.773438 Z M 75.132812 39.515625 L 77.894531 39.515625 L 77.894531 45.449219 L 83.226562 40.980469 L 83.226562 45.449219 L 88.554688 40.980469 L 88.554688 45.449219 L 93.886719 40.980469 L 93.886719 45.449219 L 99.21875 40.980469 L 99.21875 45.449219 L 104.546875 40.980469 L 104.546875 45.449219 L 109.875 40.980469 L 109.875 45.449219 L 115.207031 40.980469 L 115.207031 45.449219 L 120.539062 40.980469 L 120.539062 45.449219 L 125.867188 40.980469 L 125.867188 45.449219 L 131.199219 40.980469 L 131.199219 45.449219 L 136.527344 40.980469 L 136.527344 45.449219 L 141.855469 40.980469 L 141.855469 45.449219 L 147.1875 40.980469 L 147.1875 45.449219 L 152.519531 40.980469 L 152.519531 45.449219 L 157.847656 40.980469 L 157.847656 45.449219 L 163.175781 40.980469 L 163.175781 45.449219 L 170.253906 39.515625 L 172.34375 39.515625 L 172.34375 37.644531 C 172.34375 37.5 172.375 37.359375 172.417969 37.226562 L 75.132812 37.226562 Z M 260.621094 40.746094 L 271.839844 40.746094 C 272.8125 40.746094 273.597656 39.957031 273.597656 38.988281 L 273.597656 36.085938 C 273.597656 35.117188 272.8125 34.328125 271.839844 34.328125 L 260.621094 34.328125 C 259.648438 34.328125 258.859375 35.117188 258.859375 36.085938 L 258.859375 38.988281 C 258.859375 39.957031 259.648438 40.746094 260.621094 40.746094 Z M 309.851562 90.28125 L 302.644531 90.28125 L 302.644531 131.628906 L 309.851562 131.628906 Z M 321.398438 193.0625 L 321.398438 166.847656 L 316.808594 166.847656 L 316.808594 193.0625 Z M 309.09375 197.738281 L 280.527344 197.738281 L 280.527344 202.324219 L 309.09375 202.324219 Z M 309.09375 204.636719 L 280.527344 204.636719 L 280.527344 209.21875 L 309.09375 209.21875 Z M 323.710938 193.0625 L 328.300781 193.0625 L 328.300781 166.847656 L 323.710938 166.847656 Z M 316.832031 248.503906 L 316.832031 254.613281 L 334.035156 254.613281 L 334.035156 255.394531 L 316.832031 255.394531 L 316.832031 261.507812 L 334.035156 261.507812 L 334.035156 293.398438 L 248.347656 293.398438 L 248.347656 201.28125 L 248.425781 201.140625 L 252.554688 200.476562 L 254.222656 204.3125 L 248.925781 213.984375 C 252.976562 214.648438 257.179688 212.753906 259.265625 208.949219 C 261.347656 205.148438 260.675781 200.585938 257.9375 197.535156 L 269.851562 175.78125 L 275.804688 175.644531 C 276.871094 175.625 277.847656 175.03125 278.355469 174.097656 L 282.222656 167.042969 C 282.734375 166.105469 282.707031 164.96875 282.15625 164.054688 L 279.0625 158.976562 L 334.035156 158.976562 L 334.035156 248.503906 Z M 252.136719 194.363281 L 264.050781 172.609375 L 260.957031 167.523438 C 260.402344 166.613281 260.378906 165.476562 260.890625 164.539062 L 263.9375 158.976562 L 248.347656 158.976562 L 248.347656 194.472656 C 249.578125 194.199219 250.867188 194.15625 252.136719 194.363281 Z M 279.054688 158.976562 L 276.089844 164.394531 L 276.867188 165.667969 L 274.316406 170.324219 L 269.007812 170.445312 L 266.246094 165.910156 L 268.796875 161.253906 L 270.289062 161.21875 L 271.519531 158.976562 L 279.054688 158.976562"/><path fill="#8E5B6D" d="M 292.753906 106.769531 C 291.3125 104.625 282.734375 102.597656 280.4375 101.761719 C 278.144531 100.925781 268.417969 108.199219 268.417969 108.199219 C 268.136719 108.253906 267.886719 108.328125 267.648438 108.410156 L 242.347656 115.375 C 237.421875 116.730469 232.335938 117.417969 227.226562 117.417969 L 211.003906 117.417969 L 210.40625 137.433594 L 235.273438 132.351562 C 246.355469 130.910156 256.9375 126.84375 266.125 120.488281 L 267.882812 119.273438 C 269.050781 119.660156 271.210938 120.195312 274.144531 120.117188 C 278.679688 120 282.734375 122.144531 284.882812 120.59375 C 287.027344 119.046875 284.640625 118.09375 283.449219 116.304688 C 282.257812 114.511719 279.992188 111.535156 281.492188 110.820312 C 282.988281 110.105469 287.625 110.34375 288.339844 110.582031 C 289.054688 110.820312 292.277344 114.992188 293.828125 114.277344 C 295.378906 113.5625 294.199219 108.90625 292.753906 106.769531 Z M 261.824219 173.0625 C 259.558594 173.074219 248.863281 178.308594 248.863281 178.308594 L 224.382812 173.683594 C 219.191406 172.703125 213.878906 172.582031 208.648438 173.328125 L 202.308594 173.980469 C 199.96875 167.507812 196.546875 161.472656 192.191406 156.140625 L 189.945312 153.390625 L 170.539062 164.199219 L 187 185.777344 C 190.710938 190.644531 196.570312 193.386719 202.6875 193.117188 L 248.863281 191.09375 C 253.355469 195.730469 263.007812 196.347656 263.007812 196.347656 C 264.222656 196.292969 266.191406 194.804688 266.191406 194.804688 C 266.191406 194.804688 267.835938 194.441406 268.480469 193.546875 C 269.179688 192.585938 268.480469 191.09375 268.480469 191.09375 C 272.203125 191.09375 270.566406 187.320312 270.566406 187.320312 C 274.214844 186.917969 272.203125 181.882812 272.203125 181.882812 C 274.589844 181.171875 272.679688 178.070312 271.488281 176.640625 C 270.296875 175.210938 264.089844 173.050781 261.824219 173.0625 Z M 187.53125 113.078125 L 189.917969 117.417969 L 190.753906 117.417969 L 192.875 113.449219 L 192.792969 111.574219 L 192.71875 109.792969 C 192.691406 109.113281 193.382812 108.636719 194.003906 108.910156 C 196.273438 109.898438 199.832031 110.695312 201.660156 109.484375 C 204.621094 107.53125 206.183594 96.300781 205.941406 86.757812 C 205.726562 78.351562 198.75 71.523438 190.34375 71.761719 C 186.507812 71.871094 182.816406 72.820312 180.296875 74.785156 C 177.359375 77.085938 176.199219 83.324219 176.515625 90.335938 C 176.785156 96.238281 175.769531 102.121094 173.550781 107.589844 Z M 247.859375 278.363281 L 257.816406 292.949219 L 269.425781 292.949219 L 263.484375 278.363281 Z M 132.730469 277.265625 L 143.109375 279.734375 L 142.734375 292.234375 L 129.742188 289.53125 C 126.800781 279.269531 132.730469 277.265625 132.730469 277.265625"/><path fill="#3D3361" d="M 47.605469 99.414062 C 47.679688 99.414062 47.753906 99.394531 47.824219 99.347656 C 49.207031 98.394531 50.09375 96.925781 50.324219 95.316406 C 50.347656 95.273438 50.363281 95.226562 50.367188 95.179688 C 50.667969 92.472656 49.121094 89.972656 46.625 89.007812 L 47.945312 84.171875 C 47.945312 84.171875 48.921875 82.96875 49.203125 81.925781 C 49.488281 80.878906 49.3125 79.078125 49.3125 79.078125 L 48.726562 78.921875 L 46.03125 88.8125 C 45.832031 88.753906 45.621094 88.875 45.5625 89.078125 C 45.507812 89.28125 45.628906 89.492188 45.832031 89.546875 C 47.886719 90.105469 49.328125 91.808594 49.59375 93.828125 C 49.59375 93.839844 49.585938 93.855469 49.589844 93.871094 C 49.8125 95.769531 48.96875 97.628906 47.390625 98.71875 C 47.214844 98.835938 47.171875 99.078125 47.289062 99.25 C 47.363281 99.355469 47.484375 99.414062 47.605469 99.414062 Z M 64.90625 137.542969 C 65.238281 138.855469 65.515625 140.035156 65.738281 141.03125 C 66.152344 142.917969 68.066406 144.066406 69.929688 143.550781 C 71.589844 143.085938 72.632812 141.449219 72.347656 139.746094 C 71.691406 135.847656 70.34375 128.832031 68.296875 122.867188 C 65.992188 116.15625 61.105469 109.351562 58.644531 105.519531 C 57.90625 106.144531 56.957031 107.242188 56.878906 108.792969 C 56.753906 111.351562 64.300781 121.035156 65.691406 127.03125 C 66.90625 132.257812 67.59375 135.605469 64.90625 137.542969 Z M 56.953125 100.488281 L 52.265625 105.589844 L 57.746094 104.0625 C 57.46875 103.578125 57.28125 103.1875 57.203125 102.902344 C 56.976562 102.09375 56.929688 101.246094 56.957031 100.488281 Z M 42.546875 100.066406 C 42.589844 100.082031 42.632812 100.089844 42.675781 100.089844 C 42.832031 100.089844 42.980469 99.988281 43.035156 99.832031 C 43.101562 99.632812 42.996094 99.414062 42.796875 99.347656 C 40.984375 98.71875 39.671875 97.160156 39.378906 95.265625 C 39.371094 95.230469 39.355469 95.207031 39.34375 95.179688 C 39.34375 95.160156 39.351562 95.140625 39.347656 95.125 C 39.046875 92.585938 40.621094 90.246094 43.089844 89.554688 C 43.292969 89.5 43.414062 89.289062 43.355469 89.085938 C 43.296875 88.882812 43.085938 88.761719 42.886719 88.820312 L 40.128906 78.949219 L 39.542969 79.113281 C 39.542969 79.113281 39.378906 80.910156 39.667969 81.953125 C 39.960938 82.992188 40.941406 84.191406 40.941406 84.191406 L 42.292969 89.023438 C 39.804688 90 38.269531 92.507812 38.589844 95.210938 C 38.59375 95.253906 38.609375 95.285156 38.621094 95.320312 C 38.621094 95.34375 38.617188 95.363281 38.621094 95.382812 C 38.957031 97.558594 40.464844 99.351562 42.546875 100.066406 Z M 19.332031 143.710938 C 21.195312 144.214844 23.105469 143.054688 23.507812 141.167969 C 23.726562 140.167969 23.992188 138.984375 24.316406 137.671875 C 21.617188 135.75 22.285156 132.398438 23.464844 127.164062 C 24.820312 121.160156 32.304688 111.429688 32.160156 108.867188 C 32.074219 107.316406 31.121094 106.230469 30.378906 105.609375 C 27.941406 109.453125 23.09375 116.289062 20.832031 123.015625 C 18.828125 128.992188 17.519531 136.019531 16.890625 139.925781 C 16.613281 141.625 17.667969 143.257812 19.332031 143.710938 Z M 32.035156 100.570312 C 32.066406 101.324219 32.023438 102.175781 31.804688 102.984375 C 31.726562 103.265625 31.539062 103.65625 31.265625 104.144531 L 36.753906 105.636719 Z M 44.476562 98.128906 C 46.464844 98.128906 48.082031 96.515625 48.082031 94.527344 C 48.082031 92.535156 46.464844 90.921875 44.476562 90.921875 C 42.488281 90.921875 40.867188 92.535156 40.867188 94.527344 C 40.867188 96.515625 42.488281 98.128906 44.476562 98.128906 Z M 44.476562 98.894531 C 42.066406 98.894531 40.105469 96.933594 40.105469 94.527344 C 40.105469 92.117188 42.066406 90.15625 44.476562 90.15625 C 46.886719 90.15625 48.847656 92.117188 48.847656 94.527344 C 48.847656 96.933594 46.886719 98.894531 44.476562 98.894531 Z M 87.445312 145.179688 C 88.46875 145.179688 89.285156 144.339844 89.257812 143.320312 L 88.582031 115.265625 C 88.558594 114.28125 87.753906 113.496094 86.765625 113.496094 L 82.300781 113.496094 C 81.316406 113.496094 80.511719 114.28125 80.488281 115.265625 L 79.808594 143.320312 C 79.785156 144.339844 80.601562 145.179688 81.625 145.179688 Z M 98.015625 78.355469 C 95.835938 75.257812 90.824219 73.9375 89.144531 73.574219 L 89.144531 72.328125 C 89.144531 71.714844 88.648438 71.214844 88.035156 71.214844 L 81.035156 71.214844 C 80.417969 71.214844 79.921875 71.714844 79.921875 72.328125 L 79.921875 74.023438 L 77.683594 74.023438 L 77.683594 73.117188 C 77.683594 72.476562 77.164062 71.957031 76.523438 71.957031 L 73.460938 71.957031 C 72.820312 71.957031 72.296875 72.476562 72.296875 73.117188 L 72.296875 78.5 C 72.296875 79.140625 72.820312 79.660156 73.460938 79.660156 L 76.523438 79.660156 C 77.164062 79.660156 77.683594 79.140625 77.683594 78.5 L 77.683594 77.59375 L 79.921875 77.59375 L 79.921875 79.285156 C 79.921875 79.902344 80.417969 80.398438 81.035156 80.398438 L 88.035156 80.398438 C 88.648438 80.398438 89.144531 79.902344 89.144531 79.285156 L 89.144531 78.226562 C 92.101562 77.089844 95.425781 78.273438 97.3125 79.1875 C 97.835938 79.441406 98.351562 78.835938 98.015625 78.355469 Z M 135.863281 83.273438 C 135.863281 81.679688 134.566406 80.386719 132.972656 80.386719 C 131.378906 80.386719 130.082031 81.679688 130.082031 83.273438 C 130.082031 84.871094 131.378906 86.164062 132.972656 86.164062 C 134.566406 86.164062 135.863281 84.871094 135.863281 83.273438 Z M 124.28125 93.871094 C 124.792969 93.871094 125.273438 93.671875 125.632812 93.3125 L 128.007812 90.933594 C 128.757812 90.191406 128.757812 88.976562 128.007812 88.234375 C 127.648438 87.871094 127.167969 87.675781 126.660156 87.675781 C 126.148438 87.675781 125.667969 87.871094 125.308594 88.234375 L 122.929688 90.609375 C 122.570312 90.96875 122.371094 91.449219 122.371094 91.960938 C 122.371094 92.472656 122.570312 92.949219 122.929688 93.3125 C 123.289062 93.671875 123.773438 93.871094 124.28125 93.871094 Z M 125.953125 83.273438 C 125.953125 82.21875 125.097656 81.367188 124.046875 81.367188 L 120.679688 81.367188 C 119.628906 81.367188 118.769531 82.21875 118.769531 83.273438 C 118.769531 84.328125 119.628906 85.183594 120.679688 85.183594 L 124.046875 85.183594 C 125.097656 85.183594 125.953125 84.328125 125.953125 83.273438 Z M 128.007812 75.613281 L 125.632812 73.238281 C 125.273438 72.878906 124.792969 72.679688 124.28125 72.679688 C 123.773438 72.679688 123.289062 72.878906 122.929688 73.238281 C 122.570312 73.601562 122.371094 74.078125 122.371094 74.589844 C 122.371094 75.097656 122.570312 75.578125 122.929688 75.941406 L 125.308594 78.316406 C 125.667969 78.675781 126.148438 78.875 126.660156 78.875 C 127.167969 78.875 127.648438 78.675781 128.007812 78.316406 C 128.757812 77.570312 128.757812 76.359375 128.007812 75.613281 Z M 139.289062 78.875 C 139.796875 78.875 140.277344 78.675781 140.636719 78.316406 L 143.015625 75.941406 C 143.757812 75.191406 143.757812 73.980469 143.015625 73.238281 C 142.65625 72.878906 142.171875 72.679688 141.664062 72.679688 C 141.152344 72.679688 140.671875 72.878906 140.3125 73.238281 L 137.9375 75.613281 C 137.191406 76.359375 137.191406 77.570312 137.9375 78.316406 C 138.292969 78.675781 138.777344 78.875 139.289062 78.875 Z M 137.9375 90.933594 L 140.3125 93.3125 C 140.671875 93.671875 141.152344 93.871094 141.664062 93.871094 C 142.171875 93.871094 142.65625 93.671875 143.015625 93.3125 C 143.757812 92.566406 143.757812 91.355469 143.015625 90.609375 L 140.636719 88.234375 C 140.277344 87.871094 139.796875 87.675781 139.289062 87.675781 C 138.777344 87.675781 138.292969 87.871094 137.9375 88.234375 C 137.191406 88.976562 137.191406 90.191406 137.9375 90.933594 Z M 147.175781 83.273438 C 147.175781 82.21875 146.316406 81.367188 145.265625 81.367188 L 141.902344 81.367188 C 140.847656 81.367188 139.992188 82.21875 139.992188 83.273438 C 139.992188 84.328125 140.847656 85.183594 141.902344 85.183594 L 145.265625 85.183594 C 146.316406 85.183594 147.175781 84.328125 147.175781 83.273438 Z M 131.058594 92.199219 L 131.058594 95.558594 C 131.058594 96.613281 131.917969 97.464844 132.972656 97.464844 C 134.027344 97.464844 134.882812 96.613281 134.882812 95.558594 L 134.882812 92.199219 C 134.882812 91.144531 134.027344 90.289062 132.972656 90.289062 C 131.917969 90.289062 131.058594 91.144531 131.058594 92.199219 Z M 134.882812 74.351562 L 134.882812 70.988281 C 134.882812 69.9375 134.027344 69.082031 132.972656 69.082031 C 131.917969 69.082031 131.058594 69.9375 131.058594 70.988281 L 131.058594 74.351562 C 131.058594 75.402344 131.917969 76.261719 132.972656 76.261719 C 134.027344 76.261719 134.882812 75.402344 134.882812 74.351562 Z M 55.308594 158.128906 C 55.296875 158.511719 55.269531 158.902344 55.34375 159.285156 C 55.410156 159.671875 55.507812 160.054688 55.761719 160.441406 C 56.011719 160.054688 56.117188 159.671875 56.183594 159.285156 C 56.257812 158.902344 56.226562 158.511719 56.214844 158.128906 C 56.171875 157.355469 56.066406 156.585938 55.761719 155.816406 C 55.457031 156.585938 55.355469 157.355469 55.308594 158.128906 Z M 50.597656 231.65625 C 50.847656 233.171875 52.15625 234.28125 53.691406 234.28125 L 57.832031 234.28125 C 59.367188 234.28125 60.675781 233.171875 60.925781 231.65625 L 61.40625 228.753906 C 62.320312 223.210938 62.320312 217.558594 61.40625 212.015625 L 60.925781 209.117188 C 60.675781 207.601562 59.367188 206.492188 57.832031 206.492188 L 53.691406 206.492188 C 52.15625 206.492188 50.847656 207.601562 50.597656 209.117188 L 50.121094 212.015625 C 49.203125 217.558594 49.203125 223.210938 50.121094 228.753906 Z M 32.28125 234.570312 C 33.816406 234.570312 35.125 233.457031 35.375 231.945312 L 35.855469 229.042969 C 36.769531 223.5 36.769531 217.847656 35.855469 212.308594 L 35.375 209.402344 C 35.125 207.890625 33.816406 206.78125 32.28125 206.78125 L 28.140625 206.78125 C 26.609375 206.78125 25.296875 207.890625 25.046875 209.402344 L 24.566406 212.308594 C 23.652344 217.847656 23.652344 223.5 24.566406 229.042969 L 25.046875 231.945312 C 25.296875 233.457031 26.609375 234.570312 28.140625 234.570312 Z M 42.519531 42.566406 C 42.507812 43.808594 42.984375 44.976562 43.859375 45.859375 C 44.734375 46.742188 45.902344 47.230469 47.144531 47.230469 L 57.664062 47.230469 C 59.675781 47.230469 61.445312 45.941406 62.066406 44.027344 L 70.617188 17.566406 C 71.082031 16.144531 70.839844 14.636719 69.960938 13.425781 C 69.078125 12.214844 67.714844 11.523438 66.21875 11.523438 L 47.375 11.523438 C 44.847656 11.523438 42.773438 13.578125 42.75 16.105469 Z M 40.605469 49.085938 C 38.859375 47.328125 37.910156 45 37.933594 42.523438 L 38.164062 16.066406 C 38.207031 11.035156 42.339844 6.941406 47.375 6.941406 L 153.785156 6.941406 C 163.695312 6.941406 172.527344 12.867188 176.277344 22.035156 L 183.230469 38.957031 C 183.710938 40.128906 183.152344 41.464844 181.980469 41.945312 C 181.695312 42.0625 181.402344 42.117188 181.109375 42.117188 C 180.207031 42.117188 179.351562 41.582031 178.988281 40.695312 L 172.035156 23.773438 C 168.988281 16.332031 161.828125 11.523438 153.785156 11.523438 L 74.179688 11.523438 C 75.5 13.78125 75.804688 16.445312 74.984375 18.976562 L 66.425781 45.4375 C 65.195312 49.25 61.671875 51.8125 57.664062 51.8125 L 47.144531 51.8125 C 44.671875 51.8125 42.347656 50.84375 40.605469 49.085938 Z M 293.117188 23.101562 C 293.117188 32.339844 300.609375 39.828125 309.851562 39.828125 C 312.65625 39.828125 315.296875 39.136719 317.617188 37.914062 C 318.503906 37.449219 319.34375 36.910156 320.128906 36.296875 C 320.140625 36.289062 320.148438 36.28125 320.160156 36.273438 C 320.417969 36.070312 320.667969 35.863281 320.910156 35.648438 C 320.910156 35.648438 320.914062 35.648438 320.914062 35.648438 C 321.660156 34.992188 322.34375 34.269531 322.964844 33.488281 C 322.96875 33.480469 322.976562 33.472656 322.984375 33.464844 C 323.1875 33.207031 323.382812 32.945312 323.570312 32.679688 C 324.144531 31.855469 324.644531 30.984375 325.066406 30.066406 C 325.773438 28.53125 326.25 26.878906 326.460938 25.140625 C 326.542969 24.46875 326.589844 23.792969 326.589844 23.101562 C 326.589844 13.863281 319.09375 6.375 309.851562 6.375 C 300.609375 6.375 293.117188 13.863281 293.117188 23.101562 Z M 291.078125 23.101562 C 291.078125 12.742188 299.484375 4.339844 309.851562 4.339844 C 320.21875 4.339844 328.628906 12.742188 328.628906 23.101562 C 328.628906 26.160156 327.886719 29.046875 326.589844 31.597656 L 326.589844 56.53125 L 323.640625 54.402344 L 321.089844 55.257812 L 319.480469 54.40625 L 317.617188 55.539062 L 317.617188 40.179688 C 315.25 41.257812 312.625 41.863281 309.851562 41.863281 C 299.484375 41.863281 291.078125 33.460938 291.078125 23.101562 Z M 248.988281 80.890625 L 248.988281 83.441406 C 248.988281 84.832031 250.117188 85.960938 251.511719 85.960938 C 252.902344 85.960938 254.035156 84.832031 254.035156 83.441406 L 254.035156 80.890625 C 254.035156 79.5 252.902344 78.371094 251.511719 78.371094 C 250.117188 78.371094 248.988281 79.5 248.988281 80.890625 Z M 258.3125 26.613281 C 258.3125 26.191406 257.972656 25.851562 257.550781 25.851562 L 249.398438 25.851562 C 248.976562 25.851562 248.632812 26.191406 248.632812 26.613281 C 248.632812 27.035156 248.976562 27.378906 249.398438 27.378906 L 257.550781 27.378906 C 257.972656 27.378906 258.3125 27.035156 258.3125 26.613281 Z M 246.289062 23.867188 L 271.96875 23.867188 C 272.390625 23.867188 272.734375 23.523438 272.734375 23.101562 C 272.734375 22.679688 272.390625 22.335938 271.96875 22.335938 L 246.289062 22.335938 C 245.867188 22.335938 245.523438 22.679688 245.523438 23.101562 C 245.523438 23.523438 245.867188 23.867188 246.289062 23.867188 Z M 272.257812 34.152344 L 270.730469 40.570312 C 270.628906 40.980469 270.882812 41.390625 271.292969 41.488281 C 271.355469 41.503906 271.414062 41.507812 271.472656 41.507812 C 271.820312 41.507812 272.132812 41.273438 272.214844 40.921875 L 273.742188 34.507812 C 273.839844 34.097656 273.585938 33.683594 273.175781 33.585938 C 272.769531 33.488281 272.355469 33.742188 272.257812 34.152344 Z M 269.539062 33.585938 C 269.132812 33.488281 268.71875 33.742188 268.617188 34.152344 L 267.089844 40.570312 C 267.078125 40.628906 267.085938 40.6875 267.085938 40.746094 L 264.984375 40.746094 L 266.46875 34.507812 C 266.566406 34.097656 266.316406 33.683594 265.90625 33.585938 C 265.492188 33.488281 265.082031 33.742188 264.984375 34.152344 L 263.453125 40.570312 C 263.359375 40.964844 263.597656 41.359375 263.984375 41.472656 L 263.171875 42.394531 L 263.171875 59.421875 C 263.171875 60.179688 263.789062 60.796875 264.546875 60.796875 C 265.226562 60.796875 265.800781 60.300781 265.90625 59.628906 L 268.796875 40.746094 L 268.621094 40.746094 L 270.109375 34.507812 C 270.203125 34.097656 269.949219 33.683594 269.539062 33.585938 Z M 261.347656 34.152344 L 259.816406 40.570312 C 259.71875 40.980469 259.972656 41.390625 260.382812 41.488281 C 260.445312 41.503906 260.503906 41.507812 260.5625 41.507812 C 260.910156 41.507812 261.222656 41.273438 261.304688 40.921875 L 262.832031 34.507812 C 262.929688 34.097656 262.675781 33.683594 262.265625 33.585938 C 261.859375 33.488281 261.445312 33.742188 261.347656 34.152344 Z M 252.78125 14.167969 C 252.78125 11.078125 255.492188 8.613281 258.660156 9.019531 C 261.277344 9.355469 263.171875 11.710938 263.171875 14.347656 L 263.171875 18.695312 L 268.808594 18.695312 C 268.96875 18.695312 269.128906 18.71875 269.285156 18.746094 L 269.285156 14.167969 C 269.285156 7.746094 263.902344 2.558594 257.40625 2.878906 C 251.332031 3.179688 246.667969 8.417969 246.667969 14.496094 L 246.667969 14.710938 L 252.78125 14.710938 Z M 74.84375 294.65625 L 79.863281 307.210938 C 80.0625 307.699219 80.535156 308.023438 81.058594 308.023438 L 89.75 308.023438 C 90.289062 308.023438 90.769531 307.683594 90.957031 307.179688 L 95.59375 294.625 C 95.902344 293.789062 95.28125 292.894531 94.386719 292.894531 L 76.035156 292.894531 C 75.128906 292.894531 74.503906 293.8125 74.84375 294.65625 Z M 67.863281 289.582031 L 102.078125 289.582031 L 94.390625 311.613281 L 76.390625 311.613281 C 76.390625 311.472656 76.367188 311.332031 76.3125 311.195312 Z M 9.894531 289.582031 L 18.339844 311.195312 C 18.394531 311.332031 18.417969 311.472656 18.417969 311.613281 L 21.785156 311.613281 L 13.175781 289.582031 Z M 62.121094 289.582031 L 70.570312 311.195312 C 70.625 311.332031 70.648438 311.472656 70.648438 311.613281 L 74.019531 311.613281 L 65.402344 289.582031 Z M 1.996094 289.582031 L 11.289062 311.613281 L 16.042969 311.613281 L 7.433594 289.582031 Z M 15.636719 289.582031 L 24.085938 311.195312 C 24.140625 311.332031 24.160156 311.472656 24.160156 311.613281 L 68.273438 311.613281 L 59.660156 289.582031 Z M 24.851562 262.753906 L 13.449219 287.292969 L 15.976562 287.292969 L 26.929688 263.71875 C 27.199219 263.144531 26.949219 262.464844 26.375 262.199219 C 25.796875 261.929688 25.117188 262.179688 24.851562 262.753906 Z M 8.25 287.292969 L 10.230469 287.292969 L 21.1875 263.71875 C 21.453125 263.144531 21.203125 262.464844 20.628906 262.199219 C 20.050781 261.929688 19.375 262.179688 19.105469 262.753906 L 7.703125 287.292969 Z M 66.222656 287.292969 L 67.816406 287.292969 L 76.324219 263.621094 C 76.542969 263.027344 76.230469 262.371094 75.636719 262.15625 C 75.039062 261.945312 74.382812 262.253906 74.167969 262.847656 L 65.378906 287.292969 Z M 60.46875 287.292969 L 62.074219 287.292969 L 70.582031 263.621094 C 70.796875 263.027344 70.484375 262.371094 69.890625 262.15625 C 69.296875 261.945312 68.640625 262.253906 68.421875 262.847656 L 59.636719 287.292969 Z M 76.035156 284.828125 L 94.386719 284.828125 C 95.296875 284.828125 95.917969 283.90625 95.582031 283.0625 L 90.558594 270.511719 C 90.363281 270.023438 89.890625 269.703125 89.363281 269.703125 L 80.671875 269.703125 C 80.132812 269.703125 79.652344 270.039062 79.464844 270.542969 L 74.832031 283.097656 C 74.519531 283.9375 75.140625 284.828125 76.035156 284.828125 Z M 43.445312 257.050781 L 60.007812 257.050781 L 62.921875 263.234375 L 65.453125 263.234375 L 61.773438 255.417969 C 61.582031 255.015625 61.175781 254.761719 60.734375 254.761719 L 42.777344 254.761719 C 42.363281 254.761719 41.984375 254.984375 41.777344 255.339844 L 37.289062 263.234375 L 39.921875 263.234375 Z M 270.566406 188.085938 C 270.84375 188.085938 271.113281 187.933594 271.25 187.667969 C 271.4375 187.292969 271.289062 186.832031 270.914062 186.640625 L 263.613281 182.921875 C 263.238281 182.730469 262.777344 182.878906 262.585938 183.253906 C 262.394531 183.632812 262.542969 184.089844 262.917969 184.285156 L 270.21875 188.003906 C 270.328125 188.054688 270.449219 188.085938 270.566406 188.085938 Z M 272.203125 182.648438 C 272.429688 182.648438 272.652344 182.546875 272.804688 182.355469 C 273.066406 182.027344 273.007812 181.546875 272.675781 181.285156 L 267.660156 177.339844 C 267.328125 177.082031 266.847656 177.140625 266.585938 177.46875 C 266.328125 177.804688 266.382812 178.28125 266.714844 178.542969 L 271.730469 182.484375 C 271.871094 182.597656 272.039062 182.648438 272.203125 182.648438 Z M 169.265625 163.222656 L 158.75 149.164062 C 158.496094 148.824219 158.015625 148.757812 157.679688 149.007812 C 157.339844 149.261719 157.273438 149.738281 157.523438 150.078125 L 168.429688 164.65625 C 168.578125 164.855469 168.804688 164.960938 169.042969 164.960938 C 169.164062 164.960938 169.28125 164.933594 169.394531 164.875 L 190.296875 154.066406 C 190.488281 153.96875 190.632812 153.792969 190.6875 153.582031 C 190.742188 153.371094 190.699219 153.148438 190.582031 152.964844 L 182.320312 140.644531 C 177.425781 125.398438 170.441406 116.578125 170.441406 116.578125 C 165.992188 114.300781 164.378906 118.992188 164.378906 118.992188 C 164.378906 118.992188 165.949219 121.476562 168.019531 125.429688 C 169.199219 125.777344 170.335938 126.328125 171.382812 127.074219 L 188.835938 153.105469 Z M 268.480469 191.859375 C 268.808594 191.859375 269.105469 191.648438 269.210938 191.328125 C 269.335938 190.925781 269.113281 190.496094 268.714844 190.367188 L 260.847656 187.855469 C 260.445312 187.730469 260.011719 187.949219 259.886719 188.351562 C 259.757812 188.753906 259.980469 189.183594 260.382812 189.308594 L 268.25 191.820312 C 268.324219 191.847656 268.40625 191.859375 268.480469 191.859375 Z M 259.808594 192.796875 C 259.394531 192.71875 258.992188 192.988281 258.914062 193.402344 C 258.832031 193.816406 259.101562 194.21875 259.519531 194.296875 L 266.042969 195.554688 C 266.09375 195.5625 266.140625 195.570312 266.191406 195.570312 C 266.550781 195.570312 266.867188 195.316406 266.941406 194.945312 C 267.019531 194.535156 266.75 194.132812 266.335938 194.050781 Z M 271.210938 146.328125 L 357.828125 146.328125 C 357.445312 144.078125 357.042969 141.867188 356.621094 139.699219 C 356.082031 136.929688 355.515625 134.238281 354.910156 131.628906 L 328.628906 131.628906 L 328.628906 75.394531 C 328.628906 68.238281 322.796875 62.410156 315.636719 62.410156 C 308.472656 62.410156 302.644531 68.238281 302.644531 75.394531 L 302.644531 87.953125 L 301.3125 87.953125 C 300.574219 87.953125 299.976562 88.546875 299.976562 89.28125 L 299.976562 91.273438 C 299.976562 92.007812 300.574219 92.609375 301.3125 92.609375 L 311.539062 92.609375 C 312.277344 92.609375 312.875 92.007812 312.875 91.273438 L 312.875 89.28125 C 312.875 88.546875 312.277344 87.953125 311.539062 87.953125 L 309.78125 87.953125 L 309.78125 75.394531 C 309.78125 72.171875 312.40625 69.542969 315.636719 69.542969 C 318.863281 69.542969 321.488281 72.171875 321.488281 75.394531 L 321.488281 131.628906 L 291.863281 131.628906 L 291.863281 128.0625 L 283.289062 128.0625 L 283.289062 131.628906 L 219.183594 131.628906 L 219.183594 146.328125 Z M 292.398438 126.691406 C 292.414062 126.890625 292.582031 127.039062 292.777344 127.039062 C 292.789062 127.039062 292.800781 127.039062 292.808594 127.039062 C 293.019531 127.019531 293.175781 126.839844 293.160156 126.628906 L 292.105469 113.84375 C 291.839844 113.671875 291.566406 113.460938 291.292969 113.238281 Z M 290.054688 127.039062 C 290.058594 127.039062 290.066406 127.039062 290.070312 127.039062 C 290.28125 127.03125 290.445312 126.851562 290.4375 126.644531 L 289.828125 111.898438 C 289.570312 111.644531 289.335938 111.410156 289.121094 111.207031 C 289.074219 111.277344 289.042969 111.351562 289.046875 111.441406 L 289.671875 126.675781 C 289.679688 126.882812 289.851562 127.039062 290.054688 127.039062 Z M 287.332031 127.039062 C 287.542969 127.039062 287.714844 126.871094 287.714844 126.660156 L 287.714844 111.425781 C 287.714844 111.214844 287.542969 111.046875 287.332031 111.046875 C 287.121094 111.046875 286.949219 111.214844 286.949219 111.425781 L 286.949219 126.660156 C 286.949219 126.871094 287.121094 127.039062 287.332031 127.039062 Z M 284.589844 127.039062 C 284.597656 127.039062 284.601562 127.039062 284.609375 127.039062 C 284.808594 127.039062 284.980469 126.882812 284.988281 126.675781 L 285.253906 120.289062 C 285.148438 120.390625 285.027344 120.492188 284.882812 120.59375 C 284.75 120.691406 284.609375 120.773438 284.464844 120.839844 L 284.226562 126.644531 C 284.21875 126.851562 284.378906 127.03125 284.589844 127.039062 Z M 285.613281 111.441406 C 285.621094 111.230469 285.460938 111.054688 285.25 111.046875 C 285.039062 111.027344 284.863281 111.199219 284.851562 111.414062 L 284.597656 117.628906 C 284.871094 117.90625 285.125 118.167969 285.328125 118.425781 Z M 283.519531 111.457031 C 283.53125 111.246094 283.378906 111.0625 283.167969 111.046875 C 282.957031 111.027344 282.769531 111.183594 282.753906 111.394531 L 282.472656 114.851562 C 282.703125 115.203125 282.941406 115.546875 283.15625 115.863281 Z M 281.851562 127.039062 C 281.863281 127.039062 281.875 127.039062 281.882812 127.039062 C 282.082031 127.039062 282.25 126.890625 282.265625 126.691406 L 282.71875 121.152344 C 282.476562 121.152344 282.222656 121.140625 281.957031 121.113281 L 281.503906 126.628906 C 281.484375 126.839844 281.640625 127.019531 281.851562 127.039062 Z M 200.40625 105.324219 C 200.558594 105.324219 200.714844 105.324219 200.871094 105.316406 C 201.082031 105.304688 201.242188 105.128906 201.234375 104.917969 C 201.226562 104.707031 201.039062 104.535156 200.835938 104.554688 C 199.824219 104.597656 198.816406 104.484375 197.839844 104.21875 C 197.636719 104.167969 197.425781 104.285156 197.375 104.492188 C 197.320312 104.695312 197.4375 104.902344 197.640625 104.957031 C 198.546875 105.203125 199.472656 105.324219 200.40625 105.324219 Z M 203.414062 102.871094 C 203.359375 102.671875 203.148438 102.554688 202.945312 102.605469 C 200.613281 103.25 198.042969 102.976562 195.902344 101.84375 C 195.714844 101.746094 195.484375 101.816406 195.386719 102.003906 C 195.285156 102.191406 195.355469 102.421875 195.546875 102.519531 C 197.035156 103.308594 198.722656 103.710938 200.40625 103.710938 C 201.332031 103.710938 202.253906 103.589844 203.148438 103.34375 C 203.351562 103.285156 203.472656 103.074219 203.414062 102.871094 Z M 205.527344 90.96875 C 205.683594 90.828125 205.695312 90.585938 205.554688 90.425781 C 205.113281 89.9375 204.457031 89.648438 203.796875 89.648438 C 203.792969 89.648438 203.789062 89.648438 203.785156 89.648438 C 203.117188 89.648438 202.460938 89.953125 202.019531 90.449219 C 201.882812 90.605469 201.898438 90.847656 202.054688 90.988281 C 202.128906 91.050781 202.21875 91.082031 202.308594 91.082031 C 202.414062 91.082031 202.519531 91.039062 202.59375 90.953125 C 202.894531 90.617188 203.339844 90.414062 203.789062 90.410156 C 203.792969 90.410156 203.792969 90.410156 203.796875 90.410156 C 204.242188 90.410156 204.6875 90.605469 204.988281 90.941406 C 205.128906 91.097656 205.371094 91.109375 205.527344 90.96875 Z M 196.8125 90.808594 C 196.972656 90.667969 196.984375 90.425781 196.84375 90.269531 C 196.398438 89.78125 195.746094 89.488281 195.082031 89.488281 C 195.082031 89.488281 195.074219 89.488281 195.070312 89.488281 C 194.40625 89.492188 193.746094 89.792969 193.308594 90.289062 C 193.171875 90.449219 193.183594 90.691406 193.34375 90.828125 C 193.414062 90.890625 193.503906 90.921875 193.59375 90.921875 C 193.699219 90.921875 193.804688 90.878906 193.882812 90.796875 C 194.179688 90.457031 194.625 90.253906 195.074219 90.253906 C 195.5 90.238281 195.972656 90.449219 196.273438 90.78125 C 196.414062 90.9375 196.65625 90.949219 196.8125 90.808594 Z M 204.734375 92.671875 C 204.734375 92.003906 204.3125 91.464844 203.789062 91.464844 C 203.265625 91.464844 202.84375 92.003906 202.84375 92.671875 C 202.84375 93.335938 203.265625 93.878906 203.789062 93.878906 C 204.3125 93.878906 204.734375 93.335938 204.734375 92.671875 Z M 195.429688 91.464844 C 194.910156 91.464844 194.488281 92.003906 194.488281 92.671875 C 194.488281 93.335938 194.910156 93.878906 195.429688 93.878906 C 195.953125 93.878906 196.375 93.335938 196.375 92.671875 C 196.375 92.003906 195.953125 91.464844 195.429688 91.464844 Z M 202.476562 99.765625 C 203.003906 99.089844 202.171875 96.464844 201.617188 94.925781 C 201.460938 94.496094 200.867188 94.46875 200.675781 94.882812 L 198.820312 98.898438 C 198.695312 99.167969 198.824219 99.488281 199.105469 99.589844 C 200.023438 99.921875 201.914062 100.488281 202.476562 99.765625 Z M 178.886719 69.117188 C 178.140625 68.835938 177.335938 68.671875 176.488281 68.671875 C 172.738281 68.671875 169.703125 71.710938 169.703125 75.457031 C 169.703125 76.316406 169.867188 77.132812 170.15625 77.890625 C 167.34375 78.71875 165.285156 81.3125 165.285156 84.394531 C 165.285156 86.59375 166.335938 88.542969 167.960938 89.785156 C 166.570312 91.246094 165.710938 93.214844 165.710938 95.390625 C 165.710938 99.890625 169.363281 103.535156 173.863281 103.535156 C 174.089844 103.535156 174.316406 103.523438 174.539062 103.5 C 174.675781 103.523438 174.816406 103.535156 174.964844 103.535156 C 176.78125 103.535156 179.042969 101.382812 181.042969 98.667969 C 177.367188 96.65625 176.835938 89.132812 180.023438 88.726562 C 183.984375 88.226562 184.292969 93.023438 184.292969 93.023438 L 184.292969 93.324219 C 185.121094 91.660156 185.699219 90.144531 185.875 89.117188 C 188.09375 88.128906 189.789062 86.183594 190.433594 83.804688 C 191.441406 83.585938 192.382812 83.183594 193.214844 82.628906 C 194.457031 84.226562 196.390625 85.257812 198.574219 85.257812 C 201.332031 85.257812 203.699219 83.613281 204.761719 81.257812 C 205.46875 82.960938 205.894531 84.8125 205.941406 86.757812 C 205.96875 87.886719 205.972656 89.042969 205.953125 90.203125 C 207.925781 89.015625 209.246094 86.863281 209.246094 84.394531 C 209.246094 83.152344 208.90625 81.988281 208.320312 80.988281 C 210.054688 79.757812 211.1875 77.742188 211.1875 75.457031 C 211.1875 72.25 208.957031 69.566406 205.960938 68.859375 C 205.578125 65.480469 202.707031 62.851562 199.222656 62.851562 C 197.558594 62.851562 196.035156 63.453125 194.855469 64.445312 C 193.246094 62.238281 190.648438 60.796875 187.707031 60.796875 C 182.996094 60.796875 179.15625 64.476562 178.886719 69.117188 Z M 282.378906 301.933594 C 272.609375 300.929688 270.882812 288.4375 270.882812 288.4375 L 252.925781 290.449219 L 253.644531 311.597656 L 297.460938 311.597656 C 297.460938 311.597656 292.144531 302.9375 282.378906 301.933594 Z M 245.5 216.625 C 242.847656 207.738281 234.378906 201.871094 225.121094 202.511719 L 182.503906 205.449219 C 184.898438 201.691406 188.15625 196.226562 191.292969 189.851562 C 189.675781 188.742188 188.21875 187.378906 187 185.777344 L 174.382812 169.238281 C 173.496094 170.425781 172.429688 171.515625 171.136719 172.464844 C 164.039062 177.707031 151.28125 178.101562 143.816406 177.816406 C 146.269531 160.515625 149.640625 140.296875 152.800781 133.304688 C 154.976562 128.496094 157.796875 125.078125 160.492188 122.671875 C 160.492188 122.671875 155.109375 124.148438 148.589844 136.863281 C 148.433594 138.136719 137.933594 177.394531 137.933594 177.394531 L 131.253906 205.714844 C 131.253906 205.714844 125.210938 229.054688 131.890625 237.316406 C 136.371094 242.859375 155.863281 265.980469 168.226562 280.613281 C 153.550781 279.042969 141.910156 279.28125 141.910156 279.28125 C 141.734375 279.273438 141.574219 279.292969 141.40625 279.300781 L 132.734375 277.265625 L 141.300781 279.304688 C 135.707031 279.574219 135.222656 285.972656 135.660156 290.765625 L 129.742188 289.53125 C 126.800781 279.269531 132.730469 277.265625 132.730469 277.265625 L 119.644531 274.195312 C 119.644531 274.195312 115.347656 276.417969 115.191406 282.933594 C 115.03125 289.453125 115.191406 311.597656 115.191406 311.597656 L 142.070312 311.597656 C 142.070312 311.597656 142.230469 305.664062 135.390625 303.4375 L 131.972656 302.328125 C 130.660156 301.902344 130.089844 300.371094 130.796875 299.1875 L 133.480469 292.894531 C 133.480469 292.894531 134.535156 293.160156 135.933594 292.976562 C 136.203125 294.730469 136.515625 295.9375 136.515625 295.9375 L 181.832031 311.597656 L 194.347656 311.597656 C 204.652344 311.597656 213.003906 303.25 213.003906 292.949219 L 182.757812 240.117188 C 200.675781 238.34375 221.078125 233.820312 221.078125 233.820312 C 221.078125 233.820312 221.273438 244.21875 225.414062 252.894531 C 229.546875 261.570312 248.171875 289.257812 248.171875 289.257812 L 265.15625 282.460938 Z M 195.695312 160.898438 C 197.144531 163.074219 198.449219 165.339844 199.609375 167.679688 C 200.054688 165.820312 200.4375 163.953125 200.71875 162.09375 C 204.296875 138.492188 196.542969 117.457031 196.542969 117.457031 L 194.035156 117.429688 L 195.546875 114.386719 C 195.738281 114.007812 195.582031 113.550781 195.207031 113.363281 C 194.824219 113.175781 194.367188 113.328125 194.179688 113.707031 L 190.835938 120.417969 L 187.9375 116.710938 L 188.234375 116.019531 C 188.398438 115.628906 188.21875 115.179688 187.832031 115.015625 C 187.445312 114.851562 186.996094 115.03125 186.828125 115.414062 L 184.085938 121.808594 L 169.410156 113.710938 C 169.042969 113.511719 168.578125 113.644531 168.371094 114.011719 C 168.167969 114.382812 168.304688 114.847656 168.671875 115.050781 L 184.085938 123.554688 C 184.277344 123.660156 184.5 123.679688 184.703125 123.609375 C 184.910156 123.539062 185.070312 123.386719 185.15625 123.1875 L 187.25 118.3125 L 190.285156 122.195312 C 190.738281 123.808594 194.863281 139.292969 192.167969 154.445312 C 192.097656 154.859375 192.375 155.257812 192.789062 155.332031 C 192.832031 155.339844 192.878906 155.339844 192.925781 155.339844 C 193.285156 155.339844 193.609375 155.082031 193.675781 154.710938 C 196.359375 139.609375 192.425781 124.21875 191.796875 121.921875 L 193.503906 118.492188 C 199.96875 133.914062 197.101562 160.898438 197.101562 160.898438 Z M 357.308594 257.738281 L 357.273438 257.738281 L 357.273438 243.1875 C 357.273438 242.554688 356.761719 242.039062 356.128906 242.039062 C 355.496094 242.039062 354.980469 242.554688 354.980469 243.1875 L 354.980469 292.175781 L 334.035156 300.5625 L 334.035156 150.128906 L 329.207031 151.34375 L 329.207031 171.554688 L 328.300781 171.554688 L 328.300781 188.355469 L 329.207031 188.355469 L 329.207031 227.378906 C 324.671875 222.765625 318.371094 219.894531 311.402344 219.894531 C 306.886719 219.894531 303.21875 216.226562 303.21875 211.71875 L 303.21875 209.21875 L 286.402344 209.21875 L 286.402344 211.71875 C 286.402344 225.492188 297.617188 236.695312 311.402344 236.695312 C 315.910156 236.695312 319.582031 240.367188 319.582031 244.875 L 319.582031 248.503906 L 329.207031 248.503906 L 329.207031 254.613281 L 319.582031 254.613281 L 319.582031 255.394531 L 329.207031 255.394531 L 329.207031 261.507812 L 319.582031 261.507812 L 319.582031 293.398438 L 329.207031 293.398438 L 329.207031 300.582031 L 329.246094 300.59375 C 329.09375 301.207031 329.464844 301.828125 330.078125 301.984375 L 334.113281 303 L 357.273438 293.722656 L 357.273438 274.554688 L 357.308594 274.554688 C 358.378906 274.554688 359.25 273.683594 359.25 272.613281 L 359.25 259.679688 C 359.25 258.605469 358.378906 257.738281 357.308594 257.738281 Z M 357.308594 176.730469 L 357.273438 176.730469 L 357.273438 158.976562 C 357.273438 158.34375 356.761719 157.832031 356.128906 157.832031 C 355.496094 157.832031 354.980469 158.34375 354.980469 158.976562 L 354.980469 234.886719 C 354.980469 235.519531 355.496094 236.03125 356.128906 236.03125 C 356.761719 236.03125 357.273438 235.519531 357.273438 234.886719 L 357.273438 193.546875 L 357.308594 193.546875 C 358.378906 193.546875 359.25 192.679688 359.25 191.605469 L 359.25 178.667969 C 359.25 177.597656 358.378906 176.730469 357.308594 176.730469 Z M 323.710938 188.355469 L 323.710938 171.554688 L 321.398438 171.554688 L 321.398438 188.355469 Z M 286.402344 204.636719 L 303.21875 204.636719 L 303.21875 202.324219 L 286.402344 202.324219 Z M 303.21875 197.738281 L 286.402344 197.738281 L 286.402344 158.976562 L 303.21875 158.976562 L 303.21875 171.554688 L 316.808594 171.554688 L 316.808594 188.355469 L 303.21875 188.355469 L 303.21875 197.738281"/></svg>